<svg width="20" height="20" viewBox="0 0 20 20" fill="none" xmlns="http://www.w3.org/2000/svg">
<path d="M7.85543 2.55208C8.90333 1.9617 9.42733 1.6665 10.0003 1.6665C10.5733 1.6665 11.0973 1.9617 12.1452 2.55208L13.6036 3.37368C14.6913 3.98651 15.2352 4.29293 15.5344 4.80537C15.8337 5.31781 15.8337 5.94281 15.8337 7.19282V8.64017C15.8337 9.89017 15.8337 10.5152 15.5344 11.0277C15.2352 11.5401 14.6913 11.8465 13.6036 12.4593L12.1452 13.2809C11.0973 13.8713 10.5733 14.1665 10.0003 14.1665C9.42733 14.1665 8.90333 13.8713 7.85543 13.2809L6.3971 12.4593C5.30933 11.8465 4.76545 11.5401 4.46623 11.0277C4.16699 10.5152 4.16699 9.89017 4.16699 8.64017V7.19282C4.16699 5.94281 4.16699 5.31781 4.46623 4.80537C4.76545 4.29293 5.30933 3.98651 6.3971 3.37368L7.85543 2.55208Z" stroke="#64748B" stroke-linejoin="round"/>
<path d="M7.5 8.47225C7.5 8.47225 8.125 8.47225 8.75 9.58333C8.75 9.58333 10.7353 6.80556 12.5 6.25" stroke="#64748B" stroke-linecap="round" stroke-linejoin="round"/>
<path d="M14.0687 12.5L14.6272 15.1749C14.9861 16.8936 15.1655 17.7529 14.7969 18.1602C14.4284 18.5675 13.7883 18.2172 12.5082 17.5165L10.6137 16.4794C10.3112 16.3138 10.1599 16.2311 10 16.2311C9.84008 16.2311 9.68883 16.3138 9.38633 16.4794L7.49173 17.5165C6.21164 18.2172 5.5716 18.5675 5.20304 18.1602C4.83449 17.7529 5.01391 16.8936 5.37276 15.1749L5.93127 12.5" stroke="#64748B" stroke-linecap="round" stroke-linejoin="round"/>
</svg>
