<svg width="25" height="24" viewBox="0 0 25 24" fill="none" xmlns="http://www.w3.org/2000/svg">
<path d="M8.6665 13.5H16.6665M8.6665 8.5H12.6665" stroke="#A3A3A3" stroke-width="1.5" stroke-linecap="round" stroke-linejoin="round"/>
<path d="M6.76531 19C5.4652 18.8721 4.49125 18.4816 3.83807 17.8284C2.6665 16.6569 2.6665 14.7712 2.6665 11V10.5C2.6665 6.72876 2.6665 4.84315 3.83807 3.67157C5.00965 2.5 6.89526 2.5 10.6665 2.5H14.6665C18.4377 2.5 20.3234 2.5 21.4949 3.67157C22.6665 4.84315 22.6665 6.72876 22.6665 10.5V11C22.6665 14.7712 22.6665 16.6569 21.4949 17.8284C20.3234 19 18.4377 19 14.6665 19C14.106 19.0125 13.6596 19.0551 13.2211 19.155C12.0227 19.4309 10.913 20.0441 9.81637 20.5789C8.25379 21.3408 7.4725 21.7218 6.98219 21.3651C6.04419 20.6665 6.96104 18.5019 7.1665 17.5" stroke="#A3A3A3" stroke-width="1.5" stroke-linecap="round"/>
</svg>
