<svg width="130" height="130" viewBox="0 0 130 130" fill="none" xmlns="http://www.w3.org/2000/svg">
<path d="M17.1388 61.4774L21.6668 62.6094L24.1415 87.2109C25.5397 101.112 26.2389 108.062 30.8806 112.26C35.5223 116.458 42.5076 116.458 56.4781 116.458H73.5222C87.4929 116.458 94.4782 116.458 99.1198 112.26C103.761 108.062 104.461 101.112 105.859 87.2109L108.334 62.6094L112.862 61.4774C116.567 60.5511 119.167 57.2215 119.167 53.4018C119.167 50.6855 117.841 48.14 115.616 46.5823L71.2125 15.4998C67.4826 12.8887 62.5177 12.8887 58.7878 15.4998L14.3841 46.5823C12.1588 48.14 10.8335 50.6855 10.8335 53.4018C10.8335 57.2215 13.4331 60.5511 17.1388 61.4774Z" stroke="#64748B" stroke-width="5" stroke-linecap="round" stroke-linejoin="round"/>
<path d="M65.0002 92.0833C72.479 92.0833 78.5418 86.0205 78.5418 78.5417C78.5418 71.0628 72.479 65 65.0002 65C57.5213 65 51.4585 71.0628 51.4585 78.5417C51.4585 86.0205 57.5213 92.0833 65.0002 92.0833Z" stroke="#64748B" stroke-width="5" stroke-linecap="round" stroke-linejoin="round"/>
</svg>
