<svg width="20" height="20" viewBox="0 0 20 20" fill="none" xmlns="http://www.w3.org/2000/svg">
<path d="M12.0837 7.49984C12.0837 8.65042 11.1509 9.58317 10.0003 9.58317C8.84974 9.58317 7.91699 8.65042 7.91699 7.49984C7.91699 6.34925 8.84974 5.4165 10.0003 5.4165C11.1509 5.4165 12.0837 6.34925 12.0837 7.49984Z" stroke="#0E0F1D" stroke-width="1.5"/>
<path d="M11.0482 14.5778C10.7671 14.8485 10.3914 14.9998 10.0005 14.9998C9.60949 14.9998 9.23383 14.8485 8.95274 14.5778C6.37891 12.0838 2.92965 9.29775 4.61175 5.25295C5.52124 3.06594 7.70444 1.6665 10.0005 1.6665C12.2965 1.6665 14.4797 3.06595 15.3892 5.25295C17.0692 9.29267 13.6283 12.0924 11.0482 14.5778Z" stroke="#0E0F1D" stroke-width="1.5"/>
<path d="M15 16.6665C15 17.587 12.7614 18.3332 10 18.3332C7.23857 18.3332 5 17.587 5 16.6665" stroke="#0E0F1D" stroke-width="1.5" stroke-linecap="round"/>
</svg>
