<svg width="20" height="20" viewBox="0 0 20 20" fill="none" xmlns="http://www.w3.org/2000/svg">
<path d="M12.0833 8.33333C11.7248 7.12855 10.4879 6.25 9.16667 6.25C7.55583 6.25 6.25 7.55583 6.25 9.16667C6.25 10.636 7.33654 11.8812 8.75 12.0833" stroke="#64748B" stroke-linecap="round"/>
<path d="M16.6257 8.33317C16.2251 4.61189 12.9667 1.6665 9.16699 1.6665C5.10819 1.6665 1.66699 5.02732 1.66699 9.10467C1.66699 13.2613 5.17024 16.1345 8.39449 18.1304C8.62991 18.2633 8.89616 18.3332 9.16699 18.3332C9.43783 18.3332 9.70408 18.2633 9.93949 18.1304C10.1517 18.0006 10.365 17.8668 10.5784 17.7288" stroke="#64748B" stroke-linecap="round"/>
<path d="M14.583 10C16.6124 10 18.333 11.6804 18.333 13.7191C18.333 15.7902 16.5844 17.2437 14.9693 18.2319C14.8516 18.2984 14.7184 18.3333 14.583 18.3333C14.4476 18.3333 14.3144 18.2984 14.1968 18.2319C12.5846 17.234 10.833 15.7973 10.833 13.7191C10.833 11.6804 12.5536 10 14.583 10Z" stroke="#64748B"/>
<path d="M14.583 13.75H14.5905" stroke="#64748B" stroke-linecap="round" stroke-linejoin="round"/>
</svg>
