<svg width="34" height="32" viewBox="0 0 34 32" fill="none" xmlns="http://www.w3.org/2000/svg">
<path d="M17 8.8835L18.6166 12.7002L19.4 14.5502L21.4 14.7168L25.5166 15.0668L22.3833 17.7835L20.8666 19.1002L21.3166 21.0668L22.25 25.0835L18.7166 22.9502L17 21.8835L15.2833 22.9168L11.75 25.0502L12.6833 21.0335L13.1333 19.0668L11.6166 17.7502L8.48331 15.0335L12.6 14.6835L14.6 14.5168L15.3833 12.6668L17 8.8835ZM17 0.333496L12.3166 11.3835L0.333313 12.4002L9.43331 20.2835L6.69998 32.0002L17 25.7835L27.3 32.0002L24.5666 20.2835L33.6666 12.4002L21.6833 11.3835L17 0.333496Z" fill="#EAC613"/>
</svg>
