<svg width="25" height="24" viewBox="0 0 25 24" fill="none" xmlns="http://www.w3.org/2000/svg">
<path d="M3.30029 10.0039V15.0039C3.30029 17.8323 3.30029 19.2465 4.17897 20.1252C5.05765 21.0039 6.47186 21.0039 9.30029 21.0039H11.3003" stroke="#A3A3A3" stroke-width="1.5" stroke-linecap="round"/>
<path d="M10.4373 7.9252C10.1553 8.94484 9.12977 10.7037 7.18126 10.9586C5.46082 11.1837 4.15595 10.4318 3.82265 10.1174C3.45517 9.86251 2.61765 9.0468 2.41255 8.53698C2.20744 8.02716 2.44673 6.92255 2.61765 6.47221L3.30092 4.49142C3.46772 3.9939 3.85819 2.81717 4.2585 2.41915C4.65882 2.02113 5.4693 2.00382 5.80289 2.00382H12.8084C14.6116 2.02932 18.5544 1.98772 19.3338 2.00382C20.1132 2.01992 20.5816 2.67406 20.7183 2.95446C21.8812 5.77471 22.3335 7.38989 22.3335 8.07814C22.1817 8.81235 21.5535 10.1968 19.3338 10.8057C17.0268 11.4385 15.7189 10.2076 15.3086 9.73505M9.48871 9.73506C9.81346 10.1344 10.8322 10.9382 12.3089 10.9586C13.7857 10.979 15.0608 9.94748 15.5137 9.42916C15.6419 9.27622 15.9188 8.82248 16.206 7.9252" stroke="#A3A3A3" stroke-width="1.5" stroke-linecap="round" stroke-linejoin="round"/>
<path d="M17.8335 15.3333V14M17.8335 15.3333C16.8948 15.3333 16.0712 15.8338 15.6072 16.5865M17.8335 15.3333C18.7722 15.3333 19.5958 15.8338 20.0598 16.5865M15.6072 16.5865L14.3335 15.7778M15.6072 16.5865C15.3546 16.9963 15.2085 17.4808 15.2085 18C15.2085 18.5192 15.3546 19.0037 15.6072 19.4135M20.0598 16.5865L21.3335 15.7778M20.0598 16.5865C20.3124 16.9963 20.4585 17.4808 20.4585 18C20.4585 18.5192 20.3124 19.0037 20.0598 19.4135M17.8335 22V20.6667M17.8335 20.6667C16.8948 20.6667 16.0712 20.1662 15.6072 19.4135M17.8335 20.6667C18.7722 20.6667 19.5958 20.1662 20.0598 19.4135M15.6072 19.4135L14.3335 20.2222M20.0598 19.4135L21.3335 20.2222" stroke="#A3A3A3" stroke-width="1.5" stroke-linecap="round" stroke-linejoin="round"/>
</svg>
