<svg width="20" height="20" viewBox="0 0 20 20" fill="none" xmlns="http://www.w3.org/2000/svg">
<path d="M1.66699 10.4167C1.66699 9.49617 2.41318 8.75 3.33366 8.75C4.71437 8.75 5.83366 9.86925 5.83366 11.25V14.5833C5.83366 15.9641 4.71437 17.0833 3.33366 17.0833C2.41318 17.0833 1.66699 16.3372 1.66699 15.4167V10.4167Z" stroke="white" stroke-width="1.5" stroke-linecap="round" stroke-linejoin="round"/>
<path d="M12.8986 6.50505L12.6767 7.22179C12.4948 7.8091 12.4039 8.10275 12.4738 8.33467C12.5304 8.52225 12.6546 8.68401 12.8238 8.79042C13.033 8.92192 13.3494 8.92192 13.9823 8.92192H14.3189C16.4607 8.92192 17.5315 8.92192 18.0373 9.55592C18.0951 9.62834 18.1465 9.70542 18.191 9.78626C18.5801 10.4933 18.1378 11.4458 17.253 13.3508C16.4411 15.0989 16.0351 15.973 15.2813 16.4875C15.2084 16.5373 15.1334 16.5843 15.0566 16.6283C14.263 17.0832 13.2798 17.0832 11.3133 17.0832H10.8868C8.50442 17.0832 7.31324 17.0832 6.57312 16.3661C5.83301 15.6489 5.83301 14.4948 5.83301 12.1864V11.3751C5.83301 10.162 5.83301 9.55551 6.04829 9.00034C6.26357 8.44517 6.6758 7.98871 7.50025 7.07577L10.9098 3.3003C10.9953 3.20562 11.038 3.15827 11.0758 3.12546C11.4276 2.81924 11.9707 2.8537 12.2783 3.2018C12.3113 3.23909 12.3473 3.29143 12.4193 3.39612C12.532 3.55988 12.5883 3.64176 12.6375 3.72288C13.077 4.44911 13.21 5.3118 13.0087 6.1308C12.9862 6.22227 12.957 6.31659 12.8986 6.50505Z" stroke="white" stroke-width="1.5" stroke-linecap="round" stroke-linejoin="round"/>
</svg>
