<?xml version="1.0" encoding="UTF-8"?>
<svg version="1.1" xmlns="http://www.w3.org/2000/svg" width="1564" height="1125">
<path d="M0 0 C1.44610913 -0.0016508 2.89221782 -0.00373761 4.33832577 -0.0062201 C8.3209813 -0.01178153 12.3036153 -0.01111529 16.28627347 -0.00944251 C20.61594124 -0.00871124 24.94560295 -0.01373477 29.27526814 -0.01801753 C37.86666308 -0.0255978 46.45805182 -0.02779061 55.04944976 -0.02834659 C65.33873109 -0.0292602 75.62800668 -0.03592769 85.91728554 -0.04269341 C110.78711884 -0.05875618 135.65695154 -0.06465703 160.5267891 -0.06944216 C172.29146074 -0.07177785 184.05613189 -0.07538048 195.82080315 -0.07913754 C236.09090015 -0.09197335 276.36099688 -0.10269246 316.63109589 -0.10614014 C319.15920526 -0.10636177 321.68731463 -0.10658355 324.215424 -0.10680549 C326.7496482 -0.10702613 329.28387239 -0.10724661 331.81809658 -0.10746694 C336.90220702 -0.10790949 341.98631746 -0.1083566 347.07042789 -0.10880661 C348.33099246 -0.108916 349.59155703 -0.10902539 350.89032053 -0.1091381 C391.76424167 -0.11276874 432.63814507 -0.12868889 473.51205942 -0.15199697 C516.72419359 -0.17659337 559.93631763 -0.19031289 603.14845902 -0.19150805 C607.8921789 -0.19167951 612.63589877 -0.19189494 617.37961864 -0.19214249 C618.54765968 -0.19219826 619.71570072 -0.19225402 620.91913694 -0.19231148 C639.71589651 -0.1934621 658.51263789 -0.20448506 677.30939132 -0.21902954 C696.20335946 -0.23339642 715.09730427 -0.23663044 733.99127638 -0.22858956 C745.21465575 -0.22413421 756.43795981 -0.22799022 767.66132928 -0.24382807 C775.1626914 -0.25358397 782.66400081 -0.25239396 790.16536246 -0.24239184 C794.43659426 -0.23700426 798.70768153 -0.23627535 802.97890132 -0.24890056 C806.87321749 -0.26031527 810.76727276 -0.25763294 814.66158028 -0.24423349 C816.7040871 -0.24069191 818.74660385 -0.25171203 820.78907958 -0.26352477 C845.82681109 -0.12299551 868.24905457 8.53811345 886.15465641 26.12752151 C903.19536557 43.7770365 910.63660397 66.22212971 910.47722054 90.44633579 C910.48170877 92.03164421 910.48794476 93.61694844 910.49574587 95.20224401 C910.51203417 99.52955146 910.50372452 103.85650335 910.49113424 108.18380997 C910.48184283 112.90267389 910.49583483 117.62148066 910.50677341 122.34033316 C910.52272437 130.60129912 910.52386821 138.86216315 910.51517582 147.12313843 C910.50228444 159.40779859 910.51228083 171.69236689 910.52667537 183.97702156 C910.55159485 205.92028397 910.55350214 227.8635032 910.54540125 249.80677563 C910.53832607 269.01166998 910.53827337 288.21654759 910.54526424 307.42144203 C910.54617558 309.99844152 910.54708634 312.575441 910.54799653 315.15244048 C910.54937968 319.03583862 910.55077077 322.91923675 910.55218267 326.80263487 C910.56516181 362.90266459 910.57032419 399.00268568 910.55864906 435.10271549 C910.55843051 435.78278858 910.55821195 436.46286167 910.55798678 437.16354304 C910.55554171 444.74659928 910.5529718 452.32965548 910.55035139 459.91271166 C910.55011485 460.59731355 910.54987831 461.28191544 910.5496346 461.98726285 C910.54867722 464.75583628 910.54771967 467.52440972 910.54675445 470.29298315 C910.53150829 514.08070822 910.53949855 557.86836787 910.56798649 601.65608597 C910.57515144 612.69016033 910.58225421 623.72423472 910.58896828 634.75830936 C910.5893825 635.4377761 910.58979671 636.11724284 910.59022348 636.81729947 C910.61245777 673.52689494 910.61191516 710.23648583 910.60418648 746.94608706 C910.60314971 752.11071343 910.60216248 757.27533981 910.60120296 762.4399662 C910.60082964 764.34742575 910.60082964 764.34742575 910.60044876 766.29341984 C910.59700986 785.48261325 910.60631044 804.6717735 910.62197399 823.86096001 C910.63974816 845.68588812 910.63986675 867.51073559 910.61662234 889.33566026 C910.60412907 901.54496444 910.60535572 913.75408331 910.6265032 925.96337658 C910.63924886 934.12544881 910.6337179 942.28737865 910.61351839 950.44943545 C910.60252518 955.09547041 910.59922918 959.7411417 910.61819369 964.38715921 C910.7437167 997.51852474 906.46625091 1022.74705008 882.79918766 1047.39314651 C864.71727904 1064.69331848 840.25339237 1070.63995716 815.8659296 1070.50895119 C814.41273909 1070.51209039 812.95955094 1070.51654135 811.50636792 1070.52216429 C807.54594807 1070.53374496 803.58575038 1070.52691077 799.62533453 1070.51683043 C795.3041909 1070.50917311 790.98307954 1070.51901865 786.66194057 1070.52656043 C779.09935971 1070.53736523 771.53684316 1070.53708547 763.97425938 1070.52941895 C752.72824511 1070.51804947 741.48228489 1070.52388415 730.23627096 1070.53304387 C710.14837098 1070.54882664 690.06049964 1070.54747767 669.97259694 1070.53880713 C652.39320468 1070.53125671 634.81382291 1070.52929211 617.23442936 1070.53287506 C616.06777451 1070.53310422 614.90111966 1070.53333337 613.69911163 1070.53356947 C608.96312898 1070.53450351 604.22714633 1070.53545871 599.49116369 1070.53644876 C555.07547432 1070.54562316 510.65980319 1070.5373095 466.24411663 1070.52115807 C426.79436492 1070.50692155 387.34464225 1070.50819544 347.89489079 1070.52254105 C303.55977845 1070.53860933 259.22468222 1070.54497248 214.88956738 1070.53570426 C210.16227691 1070.53474212 205.43498644 1070.5338036 200.70769596 1070.53287506 C198.96176161 1070.53251921 198.96176161 1070.53251921 197.18055587 1070.53215618 C179.61338558 1070.52874557 162.04622694 1070.53273121 144.47905827 1070.54031372 C124.50188302 1070.54889354 104.52474088 1070.54674261 84.54756975 1070.53047149 C73.37080565 1070.52166815 62.19411325 1070.52107964 51.01735102 1070.53241001 C43.54737355 1070.53914672 36.07745345 1070.5349332 28.60748447 1070.52189571 C24.35434248 1070.5147742 20.10134274 1070.51228825 15.84820533 1070.52311365 C11.97040631 1070.53288275 8.09287427 1070.52857632 4.2150943 1070.51357167 C2.18145681 1070.50917857 0.14780324 1070.51931024 -1.88580966 1070.53023452 C-27.06109899 1070.37795433 -50.14619099 1062.02690093 -68.09534359 1044.21736526 C-88.4046049 1023.21776002 -93.2004 997.99077435 -93.15757179 969.76975441 C-93.15892033 968.22719291 -93.16070529 966.68463174 -93.16288403 965.14207119 C-93.16759678 960.91025272 -93.16611796 956.67845587 -93.16360626 952.44663636 C-93.16196948 947.83990499 -93.16611709 943.23317818 -93.16951543 938.62644827 C-93.17466486 930.55465969 -93.17608742 922.4828771 -93.17505932 914.41108704 C-93.17353419 902.4077434 -93.1776966 890.40440639 -93.18293394 878.40106404 C-93.19260576 855.71515798 -93.19541812 833.02925417 -93.195991 810.34334628 C-93.19645052 792.82420607 -93.1985087 775.30506674 -93.20169163 757.78592682 C-93.20258917 752.743348 -93.20347898 747.70076919 -93.20436651 742.65819037 C-93.20458755 741.40459528 -93.2048086 740.1510002 -93.20503635 738.85941738 C-93.21119071 703.59711304 -93.21514279 668.33480894 -93.21469307 633.07250404 C-93.21467729 631.72955521 -93.21466156 630.38660638 -93.21464586 629.04365755 C-93.21457248 622.98055362 -93.21448431 616.9174497 -93.21439198 610.85434577 C-93.21435085 608.15073565 -93.21431071 605.44712553 -93.21427066 602.7435154 C-93.21425027 601.39031081 -93.21422925 600.03710622 -93.2142076 598.68390163 C-93.21352745 555.89964249 -93.22084362 513.11539162 -93.23474789 470.3311348 C-93.23824902 459.55209417 -93.24171853 448.77305353 -93.24501228 437.99401283 C-93.24531659 436.99839547 -93.24531659 436.99839547 -93.24562705 435.98266463 C-93.25652029 400.12618311 -93.25848914 364.26970115 -93.25778466 328.41321814 C-93.25771003 323.36875319 -93.25766133 318.32428825 -93.25763035 313.2798233 C-93.25761869 312.03774557 -93.25760704 310.79566783 -93.25759503 309.51595137 C-93.25756426 289.52942781 -93.26394959 269.54291124 -93.27256261 249.55638976 C-93.28104016 229.46875467 -93.28202824 209.3811298 -93.27545329 189.29349391 C-93.27175836 177.36157187 -93.27358835 165.4296809 -93.28339563 153.49776215 C-93.28939628 145.52296938 -93.2880992 137.54819912 -93.28092513 129.5734074 C-93.27704439 125.03268938 -93.27626583 120.49203149 -93.28438248 115.95131771 C-93.29171771 111.81137784 -93.28965927 107.67154757 -93.28045862 103.53161239 C-93.27875305 102.05207027 -93.28031341 100.57251933 -93.28575983 99.09298625 C-93.31220253 91.38669026 -93.01900667 83.77149461 -92.15400678 76.112414 C-92.07859246 75.42913688 -92.00317814 74.74585975 -91.92547854 74.04187726 C-89.2392942 52.4349518 -76.88319019 32.26203982 -60.04846859 18.73689651 C-48.41399911 9.81634993 -35.49882492 3.8072249 -21.02893734 1.13142776 C-19.64550031 0.87228336 -19.64550031 0.87228336 -18.23411506 0.60790372 C-12.19767787 -0.23423233 -6.08135779 -0.00844936 0 0 Z " fill="#A55025" transform="translate(367.0289373397827,25.868572235107422)"/>
<path d="M0 0 C0 233.31 0 466.62 0 707 C-4.54606024 706.09078795 -7.90804809 704.71790976 -11.93359375 702.60546875 C-12.59856369 702.26249756 -13.26353363 701.91952637 -13.94865417 701.56616211 C-16.11497542 700.44631629 -18.27629742 699.31718847 -20.4375 698.1875 C-21.95151089 697.4018119 -23.46567232 696.61641385 -24.97998047 695.83129883 C-33.75153366 691.27276633 -42.45428435 686.60425712 -51.10253906 681.81567383 C-62.13188872 675.75605053 -73.37132592 670.09310329 -84.58251953 664.37963867 C-94.34041073 659.40479113 -104.05776012 654.36064994 -113.74291992 649.24560547 C-118.05975118 646.96581513 -122.39038946 644.71332971 -126.72460938 642.46679688 C-134.87288998 638.24199025 -142.96688476 633.93963812 -151 629.5 C-163.05185634 622.85460505 -175.31922975 616.62923572 -187.58007812 610.38085938 C-197.33879766 605.40563204 -207.05695514 600.36107507 -216.74291992 595.24560547 C-221.05975118 592.96581513 -225.39038946 590.71332971 -229.72460938 588.46679688 C-237.87288998 584.24199025 -245.96688476 579.93963812 -254 575.5 C-266.05185634 568.85460505 -278.31922975 562.62923572 -290.58007812 556.38085938 C-301.02983325 551.05338277 -311.43417854 545.64688442 -321.80239868 540.16235352 C-324.85523085 538.54765199 -327.90975426 536.93616021 -330.9641571 535.32443237 C-331.63598526 534.96986969 -332.30781342 534.61530701 -333 534.25 C-333.66131424 533.91211456 -334.32262848 533.57422913 -335.00398254 533.22610474 C-339.47027621 530.78415643 -341.13753365 528.68428736 -343 524 C-343.28830884 521.33257437 -343.43106953 518.90048725 -343.41992188 516.23803711 C-343.42839142 515.48441391 -343.43686096 514.73079071 -343.44558716 513.95433044 C-343.4688698 511.47849374 -343.46998171 509.00328135 -343.46875 506.52734375 C-343.47585501 504.79911554 -343.48355451 503.07088967 -343.49182129 501.34266663 C-343.50524461 497.72731966 -343.50684373 494.11219103 -343.50097656 490.49682617 C-343.49507121 485.86733331 -343.52571583 481.23888581 -343.56609344 476.6095953 C-343.59195423 473.04332347 -343.59484958 469.47730428 -343.59120178 465.91095161 C-343.59289342 464.20412117 -343.60254021 462.4972791 -343.62034607 460.7905407 C-343.64251383 458.40383818 -343.63284884 456.01926433 -343.61523438 453.63256836 C-343.62849762 452.9306134 -343.64176086 452.22865845 -343.65542603 451.50543213 C-343.58842815 447.59327979 -343.09658864 446.11369808 -340.52404785 443.08546448 C-339.27464417 442.05315956 -339.27464417 442.05315956 -338 441 C-337.67 440.67 -337.34 440.34 -337 440 C-328.85624979 440.24242696 -321.48624738 442.90152764 -313.86889648 445.55541992 C-311.68001864 446.3150965 -309.48427119 447.0517857 -307.28710938 447.78710938 C-305.88234424 448.2694718 -304.47803006 448.75314993 -303.07421875 449.23828125 C-302.42313644 449.45511063 -301.77205414 449.67194 -301.10124207 449.89533997 C-297.20345943 451.27702803 -294.42915302 452.60142462 -292 456 C-291.50170898 458.94506836 -291.50170898 458.94506836 -291.49609375 462.33984375 C-291.46805664 464.1815918 -291.46805664 464.1815918 -291.43945312 466.06054688 C-291.43880859 467.33994141 -291.43816406 468.61933594 -291.4375 469.9375 C-291.42855093 472.46752892 -291.40691145 474.99755255 -291.37109375 477.52734375 C-291.37036865 478.64874756 -291.36964355 479.77015137 -291.36889648 480.92553711 C-290.91938912 484.67182846 -290.55822475 486.18368319 -288 489 C-284.55248772 490.78220351 -280.94930677 492.01834236 -277.28515625 493.28125 C-276.21298355 493.66639771 -275.14081085 494.05154541 -274.03614807 494.44836426 C-271.79565961 495.25161488 -269.55253231 496.04753965 -267.3069458 496.83642578 C-264.23144969 497.91856265 -261.16481634 499.02180687 -258.10107422 500.13671875 C-253.24257175 501.90397585 -248.37829042 503.65450322 -243.51138306 505.39846802 C-238.08184464 507.34415369 -232.65440477 509.29568253 -227.2265625 511.24609375 C-226.12026993 511.64344223 -225.01397736 512.04079071 -223.87416077 512.45018005 C-212.68101971 516.47126878 -201.49593652 520.51451343 -190.3125 524.5625 C-188.37801138 525.26261479 -186.44352245 525.96272872 -184.5090332 526.6628418 C-181.60552909 527.71369841 -178.70204234 528.76460288 -175.79859924 529.81562805 C-169.81366514 531.98205515 -163.82826484 534.14718794 -157.84239197 536.3110199 C-155.79771219 537.05018225 -153.75308511 537.78949037 -151.70851135 538.52894592 C-146.71592976 540.33448824 -141.72266149 542.13807612 -136.7277832 543.93725586 C-127.78479057 547.16154884 -118.85599602 550.41506409 -109.9609375 553.76953125 C-107.685129 554.62137225 -105.40889825 555.47207397 -103.13250732 556.32235718 C-101.06895102 557.0990479 -99.01238232 557.89243838 -96.95556641 558.68676758 C-95.73272949 559.1433374 -94.50989258 559.59990723 -93.25 560.0703125 C-92.20328125 560.47008301 -91.1565625 560.86985352 -90.078125 561.28173828 C-86.38815833 562.14276953 -83.68217641 561.80631193 -80 561 C-77.41544715 559.10466125 -77.03724494 558.11173483 -76 555 C-75.90419637 552.78531248 -75.87083645 550.56778026 -75.86857224 548.35102272 C-75.8665196 547.66864457 -75.86446697 546.98626643 -75.86235213 546.28321016 C-75.85666482 543.97993675 -75.8581415 541.67672282 -75.85955811 539.3734436 C-75.85697547 537.71212265 -75.85396259 536.05080232 -75.8505547 534.38948286 C-75.84246967 529.81107662 -75.8406943 525.23268604 -75.83995724 520.65427351 C-75.83810932 515.7216649 -75.83056336 510.78906447 -75.82382202 505.85646057 C-75.81022805 495.06532545 -75.80421248 484.27419404 -75.79981136 473.48305178 C-75.79705104 466.74893776 -75.79281411 460.01482518 -75.78830719 453.28071213 C-75.77611371 434.64668938 -75.76581418 416.01266778 -75.7624321 397.37864113 C-75.76221253 396.18555697 -75.76199297 394.99247281 -75.76176675 393.76323458 C-75.76154847 392.56725214 -75.76133019 391.37126969 -75.7611053 390.13904536 C-75.76066183 387.71541826 -75.76021526 385.29179116 -75.75976562 382.86816406 C-75.7595442 381.66595437 -75.75932277 380.46374467 -75.75909463 379.22510438 C-75.75514474 359.73531167 -75.73768525 340.24555631 -75.7144061 320.75577803 C-75.69071484 300.76008799 -75.67823128 280.76441671 -75.67706418 260.7687124 C-75.67614623 249.53609139 -75.67036363 238.30351904 -75.65224457 227.07091141 C-75.63687366 217.50810351 -75.63170531 207.94535933 -75.63998267 198.38254143 C-75.64389972 193.50096081 -75.64290831 188.61950861 -75.62892532 183.73794365 C-75.61624959 179.272039 -75.61732786 174.8063601 -75.62951604 170.34045605 C-75.63148405 168.72202658 -75.62834402 167.10358145 -75.61967167 165.48517402 C-75.60865064 163.29005922 -75.61601563 161.09575124 -75.6280632 158.90065956 C-75.62746611 157.67996604 -75.62686903 156.45927251 -75.62625384 155.20158827 C-76.03550489 151.69585766 -76.88919147 149.80184017 -79 147 C-85.26060044 144.34538412 -91.70450363 146.76602268 -97.671875 149.06640625 C-98.60215515 149.40719711 -99.5324353 149.74798798 -100.49090576 150.09910583 C-103.58391011 151.23642263 -106.6665041 152.39967718 -109.75 153.5625 C-111.9582321 154.37899057 -114.16723652 155.19339499 -116.37695312 156.00585938 C-121.11025709 157.7478171 -125.84021074 159.49849497 -130.56835938 161.25439453 C-138.06722036 164.03262576 -145.58488907 166.75704795 -153.109375 169.46484375 C-153.74028234 169.69190569 -154.37118969 169.91896763 -155.02121544 170.15291023 C-157.58240331 171.07446077 -160.14371631 171.99566211 -162.70522594 172.91631794 C-167.23016805 174.54268432 -171.75380879 176.17262513 -176.27661133 177.80493164 C-176.9165204 178.03587493 -177.55642946 178.26681822 -178.21572971 178.50475979 C-179.50382481 178.96964846 -180.79191743 179.43454401 -182.08000755 179.89944649 C-193.35755135 183.96932724 -204.63884409 188.02871659 -215.92285156 192.0806427 C-224.08983219 195.01385242 -232.25288421 197.95783771 -240.4140625 200.90715027 C-246.13944192 202.97434162 -251.8710505 205.02298036 -257.60810852 207.05752563 C-261.19598178 208.33289258 -264.77928924 209.62073084 -268.36160278 210.91162109 C-270.0142826 211.5039924 -271.66892963 212.09090876 -273.32565308 212.671875 C-275.57409088 213.46096992 -277.81480624 214.26902442 -280.0546875 215.08203125 C-280.70626328 215.30522537 -281.35783905 215.52841949 -282.02915955 215.75837708 C-286.31313367 217.3443312 -288.72999906 219.01273327 -291 223 C-291.36347067 225.7194081 -291.51242583 228.04054434 -291.46875 230.75 C-291.47579956 231.48573242 -291.48284912 232.22146484 -291.4901123 232.97949219 C-291.51208267 235.32001851 -291.50915803 237.65940116 -291.5 240 C-291.48793348 243.08394967 -291.50170197 246.16619892 -291.53125 249.25 C-291.51993042 249.9522168 -291.50861084 250.65443359 -291.49694824 251.37792969 C-291.5309666 254.69683293 -291.928811 256.87099956 -293.53955078 259.78979492 C-296.66585821 262.59813598 -299.90956328 263.83346982 -303.8359375 265.11328125 C-304.59290924 265.37255905 -305.34988098 265.63183685 -306.12979126 265.89897156 C-307.72583812 266.44178613 -309.32458972 266.97670475 -310.92578125 267.50415039 C-313.36635333 268.30964622 -315.79651694 269.14186599 -318.2265625 269.97851562 C-319.78331236 270.50421135 -321.34058828 271.02835236 -322.8984375 271.55078125 C-323.62050385 271.79758133 -324.34257019 272.04438141 -325.08651733 272.29866028 C-329.1672615 273.62916356 -332.70879284 274.48469369 -337 274 C-339.57285724 271.827365 -341.48996919 270.02006162 -343 267 C-343.11398442 264.31111396 -343.16783662 261.64753015 -343.17700195 258.95776367 C-343.18685875 257.71116219 -343.18685875 257.71116219 -343.19691467 256.43937683 C-343.21666566 253.68223994 -343.22831413 250.92515756 -343.23828125 248.16796875 C-343.24235678 247.22724329 -343.2464323 246.28651783 -343.25063133 245.31728554 C-343.27149956 240.33839766 -343.28579813 235.35953741 -343.29516602 230.38061523 C-343.30623326 225.23556696 -343.34063463 220.09095085 -343.38033772 214.94605541 C-343.40647155 210.99208263 -343.41485497 207.03821332 -343.41844749 203.08416176 C-343.42332167 201.18753452 -343.43495924 199.29091215 -343.45348549 197.39436913 C-343.47780883 194.73937017 -343.47692455 192.08549596 -343.4699707 189.43041992 C-343.48918579 188.25585236 -343.48918579 188.25585236 -343.50878906 187.05755615 C-343.47360412 183.37074091 -343.14322517 181.22527766 -341.14654541 178.0847168 C-338.59382787 175.60552716 -336.11415603 174.17840176 -332.93359375 172.58203125 C-332.05434486 172.1341777 -332.05434486 172.1341777 -331.15733337 171.67727661 C-329.25595374 170.71158048 -327.3469118 169.76219979 -325.4375 168.8125 C-324.10889257 168.14067872 -322.78093435 167.46757207 -321.45361328 166.79321289 C-318.82563563 165.45890403 -316.19530877 164.12943 -313.56298828 162.80371094 C-309.13996671 160.56462067 -304.75272966 158.26352286 -300.375 155.9375 C-292.77143415 151.91676623 -285.13835185 147.95419996 -277.5 144 C-269.82035242 140.02427203 -262.14670578 136.03875306 -254.5 132 C-245.68126227 127.34221599 -236.82544679 122.75697909 -227.96875 118.171875 C-221.46704484 114.80387458 -214.97464936 111.41970917 -208.5 108 C-199.68126227 103.34221599 -190.82544679 98.75697909 -181.96875 94.171875 C-175.46704422 90.80387426 -168.97468276 87.41964657 -162.5 84 C-153.77644491 79.39345809 -145.01877109 74.8537076 -136.25878906 70.31689453 C-126.09868968 65.05424266 -115.95252623 59.76524137 -105.81054688 54.46777344 C-101.04114818 51.9770138 -96.2705037 49.48864238 -91.5 47 C-89.58332753 46.00001112 -87.66666086 45.00001113 -85.75 44 C-51.25 26 -51.25 26 -48.37158203 24.49829102 C-46.46622723 23.50414356 -44.560953 22.50984165 -42.65576172 21.51538086 C-37.69169309 18.92452641 -32.72600657 16.33684209 -27.7578125 13.75390625 C-26.73107422 13.21958984 -25.70433594 12.68527344 -24.64648438 12.13476562 C-22.6977889 11.12073857 -20.74860604 10.1076473 -18.79882812 9.09570312 C-13.7362011 6.45991107 -8.73287887 3.7540831 -3.79052734 0.89819336 C-2 0 -2 0 0 0 Z " fill="#FEFEFE" transform="translate(775,253)"/>
<path d="M0 0 C6.7502931 2.2500977 6.7502931 2.2500977 9.77612305 3.8125 C10.45582657 4.16084396 11.13553009 4.50918793 11.83583069 4.86808777 C12.55387375 5.2416188 13.27191681 5.61514984 14.01171875 6 C15.15361916 6.58766899 15.15361916 6.58766899 16.31858826 7.18721008 C18.77709953 8.45391399 21.2323467 9.72680163 23.6875 11 C25.38575468 11.87683732 27.08416012 12.75338271 28.78271484 13.62963867 C37.61563427 18.1906725 46.43832034 22.77116599 55.22338867 27.42382812 C61.96044212 30.99136727 68.72974257 34.49598485 75.5 38 C83.92257941 42.36025891 92.33236686 46.74244728 100.71875 51.171875 C107.62797572 54.81578171 114.56323894 58.40884494 121.5 62 C129.92253771 66.36034032 138.33236621 70.74244694 146.71875 75.171875 C153.62797572 78.81578171 160.56323894 82.40884494 167.5 86 C175.17964076 89.97574323 182.8532546 93.96132079 190.5 98 C199.22355509 102.60654191 207.98122891 107.1462924 216.74121094 111.68310547 C226.90131032 116.94575734 237.04747377 122.23475863 247.18945312 127.53222656 C251.95885182 130.0229862 256.7294963 132.51135762 261.5 135 C263.41667247 135.99998888 265.33333914 136.99998887 267.25 138 C268.19875 138.495 269.1475 138.99 270.125 139.5 C273 141 275.875 142.5 278.75 144 C279.6989917 144.49508057 280.6479834 144.99016113 281.62573242 145.50024414 C283.54010866 146.49914104 285.45433425 147.49832672 287.3684082 148.49780273 C292.19391691 151.01708363 297.02203594 153.53110805 301.85546875 156.03515625 C311.36289996 160.96572847 320.84372575 165.94108698 330.25 171.0625 C331.09006592 171.51568604 331.93013184 171.96887207 332.7956543 172.43579102 C333.56949463 172.86045654 334.34333496 173.28512207 335.140625 173.72265625 C335.81641602 174.09140869 336.49220703 174.46016113 337.18847656 174.84008789 C339.12904203 176.08262516 340.50714461 177.24220673 342 179 C342.30666212 181.91617309 342.43029488 184.62047417 342.41992188 187.53881836 C342.42839142 188.41065262 342.43686096 189.28248688 342.44558716 190.18074036 C342.46901662 193.0672559 342.46997791 195.95324025 342.46875 198.83984375 C342.47584801 200.84379796 342.48354647 202.84775013 342.49182129 204.85169983 C342.50527979 209.05410408 342.50682872 213.25632044 342.50097656 217.45874023 C342.49507934 222.84727927 342.52566678 228.23491766 342.56609344 233.62328243 C342.59192802 237.76254647 342.59485171 241.90159243 342.59120178 246.04092598 C342.59289702 248.02768785 342.60257824 250.01445936 342.62034607 252.0011425 C342.64245206 254.77863919 342.63287696 257.55429737 342.61523438 260.33178711 C342.62849762 261.15425934 342.64176086 261.97673157 342.65542603 262.8241272 C342.59774758 266.72690553 342.37572395 268.58851265 339.70137024 271.51742554 C334.79000916 274.21289408 330.4344473 273.35435786 325.23364258 272.06958008 C323.9495118 271.64953033 322.66983847 271.21565358 321.39453125 270.76953125 C320.70743576 270.53723312 320.02034027 270.304935 319.31242371 270.06559753 C317.87260658 269.57482918 316.43488814 269.07786321 314.99926758 268.57495117 C312.81379751 267.8129524 310.61992465 267.08033333 308.42382812 266.34960938 C307.01763066 265.86632128 305.61200978 265.38135156 304.20703125 264.89453125 C303.55797318 264.6797261 302.9089151 264.46492096 302.2401886 264.24360657 C297.76946021 262.64401572 294.84530473 260.82078079 292 257 C291.51572471 254.20303236 291.3229535 252.00175574 291.36328125 249.21484375 C291.35290329 248.47673965 291.34252533 247.73863556 291.33183289 246.97816467 C291.30224116 244.63079786 291.30551262 242.28501891 291.3125 239.9375 C291.30359331 237.58685666 291.28759849 235.23663443 291.2610321 232.88612366 C291.24617186 231.42707873 291.24228146 229.96786948 291.25080872 228.5087738 C291.28501937 223.38169138 291.28501937 223.38169138 289 219 C286.24281123 217.47080762 286.24281123 217.47080762 282.80078125 216.265625 C282.14435135 216.01605042 281.48792145 215.76647583 280.81159973 215.50933838 C278.54709853 214.65564574 276.27459297 213.82640981 274 213 C273.17417419 212.69666748 272.34834839 212.39333496 271.49749756 212.08081055 C264.74053211 209.60062759 257.96500301 207.17336783 251.1875 204.75 C248.96905246 203.95439271 246.7507116 203.15848793 244.5324707 202.36230469 C239.94393756 200.71563549 235.35495608 199.07022519 230.765625 197.42578125 C221.41081285 194.07287366 212.06094358 190.70625655 202.71130371 187.33895874 C199.66994152 186.24367669 196.62844395 185.14877134 193.58691406 184.05395508 C172.60577149 176.50110225 151.62870545 168.93691059 130.65400696 161.36618042 C128.25754563 160.50214075 125.86049104 159.63974455 123.46281433 158.77908325 C117.60007827 156.67271436 111.75023328 154.53890801 105.91845703 152.34814453 C104.78533585 151.92719009 103.65221466 151.50623566 102.48475647 151.07252502 C100.35874084 150.28181344 98.2363738 149.48118827 96.11863708 148.66856384 C90.54552399 146.6085437 85.94603946 145.07393389 80 146 C77.20264617 148.68397391 76.10030939 150.35738522 75.49860334 154.212111 C75.49795393 155.4377959 75.49730453 156.66348081 75.49663544 157.92630768 C75.49082167 158.61437026 75.48500791 159.30243284 75.47901797 160.0113458 C75.46439325 162.32225006 75.47831373 164.63209625 75.49206543 166.94299316 C75.48745747 168.61429466 75.48110525 170.2855921 75.47315645 171.95688105 C75.45642554 176.55367857 75.46472653 181.15014484 75.47710133 185.74694371 C75.48613413 190.70271273 75.47219089 195.65842391 75.46118164 200.61418152 C75.4433729 210.32415446 75.44724689 220.03400389 75.4588322 229.74398172 C75.46785699 237.63380027 75.46909466 245.52358415 75.46473694 253.41340637 C75.46412401 254.53530661 75.46351107 255.65720685 75.46287957 256.81310406 C75.4616007 259.09205275 75.46030385 261.37100142 75.4589892 263.64995009 C75.4475765 285.03164811 75.46070793 306.41327759 75.48219067 327.79496437 C75.50006226 346.15094157 75.49695835 364.5068176 75.47851562 382.86279297 C75.4571211 404.16673305 75.44867521 425.47061303 75.46096468 446.77456236 C75.46223891 449.04523944 75.46349639 451.31591653 75.46473694 453.58659363 C75.46535404 454.70387979 75.46597114 455.82116595 75.46660694 456.97230926 C75.4700641 464.85482991 75.46422363 472.73731251 75.45481873 480.61982727 C75.44361312 490.22287498 75.44660849 499.82579187 75.4679417 509.42882454 C75.47847148 514.33069697 75.48254116 519.2323511 75.46934509 524.13422203 C75.45745523 528.61862891 75.46392724 533.10261444 75.4852553 537.58698291 C75.48973586 539.21207565 75.48742263 540.83720375 75.47775215 542.4622739 C75.46563753 544.66659049 75.47801078 546.86945243 75.49663544 549.07369232 C75.49760955 550.91221968 75.49760955 550.91221968 75.49860334 552.787889 C76.09997441 556.64046877 77.21002131 558.31277478 80 561 C87.4275245 562.25624538 93.95331489 559.23160237 100.84765625 556.671875 C102.11895093 556.21028802 103.39066033 555.74984189 104.66275024 555.29045105 C108.08706567 554.05029322 111.50548627 552.79458425 114.92306137 551.53599167 C118.534228 550.20931333 122.1507927 548.89751618 125.7668457 547.58422852 C131.6842993 545.4331265 137.59873351 543.27393047 143.51074219 541.10791016 C151.10949832 538.3239901 158.71347383 535.55474184 166.3203125 532.79296875 C172.98766565 530.37176931 179.65487045 527.9501972 186.31958008 525.52172852 C198.64476027 521.03116684 210.9762444 516.5585746 223.31640625 512.109375 C224.00373526 511.8615584 224.69106426 511.6137418 225.39922142 511.3584156 C231.48147613 509.1657058 237.56411675 506.97406861 243.64755249 504.78463745 C244.59240525 504.44458412 244.59240525 504.44458412 245.55634594 504.09766102 C246.17801301 503.87392653 246.79968008 503.65019205 247.44018555 503.41967773 C253.25165125 501.32807572 259.06037741 499.22898616 264.8684082 497.12786865 C267.8666973 496.04801007 270.86920041 494.98078785 273.87304688 493.91650391 C275.608145 493.29479748 277.3431761 492.67290397 279.078125 492.05078125 C280.23752594 491.64619942 280.23752594 491.64619942 281.42034912 491.23344421 C284.9724875 489.94984844 287.55517657 488.89761059 290 486 C291.07870126 482.76389623 291.12544545 480.3793125 291.140625 476.9765625 C291.15996094 475.790625 291.17929688 474.6046875 291.19921875 473.3828125 C291.23296516 470.88557814 291.25129384 468.388086 291.25390625 465.890625 C291.27839844 464.70210937 291.30289062 463.51359375 291.328125 462.2890625 C291.34214355 460.66025146 291.34214355 460.66025146 291.35644531 458.99853516 C292.2289484 454.9332533 293.75340211 453.55383773 297 451 C299.43830749 449.8614653 301.67522147 448.94336876 304.20703125 448.10546875 C304.89125656 447.86838699 305.57548187 447.63130524 306.28044128 447.38703918 C307.72106666 446.89191876 309.16419975 446.40404113 310.60961914 445.9230957 C312.80253042 445.19082909 314.98410695 444.43035975 317.16601562 443.66601562 C318.57493533 443.1857788 319.98442415 442.70720778 321.39453125 442.23046875 C322.03751663 442.00554245 322.68050201 441.78061615 323.3429718 441.5488739 C328.15289557 439.97550823 332.00634265 439.49323131 337 440 C339.69839478 441.52471924 339.69839478 441.52471924 342 444 C342.51000867 446.86014068 342.69528797 449.13307269 342.6628418 451.99389648 C342.67320969 452.79599548 342.68357758 453.59809448 342.69425964 454.42449951 C342.72134667 457.07388595 342.71166481 459.72161883 342.69921875 462.37109375 C342.70512713 464.21428388 342.71237362 466.05747016 342.72090149 467.90065002 C342.73278539 471.76347853 342.7260689 475.625731 342.70678711 479.48852539 C342.68391017 484.43665395 342.71066384 489.38306422 342.75184917 494.33102322 C342.7774376 498.13755446 342.77484437 501.94367522 342.76395607 505.75026131 C342.76246983 507.57430645 342.7701543 509.39838313 342.78720665 511.22234917 C342.80719446 513.77485853 342.78878133 516.32433882 342.76049805 518.87670898 C342.77421448 519.62855972 342.78793091 520.38041046 342.80206299 521.15504456 C342.739128 523.99991907 342.57760973 526.29847239 340.72695637 528.54615688 C337.26934306 531.50101127 333.33990157 533.59146877 329.30078125 535.63671875 C328.67278122 535.95761978 328.04478119 536.27852081 327.39775085 536.60914612 C325.37276783 537.64217981 323.34269474 538.66475325 321.3125 539.6875 C319.9012489 540.40570413 318.49044432 541.12478627 317.08007812 541.84472656 C314.30286566 543.26211812 311.52425496 544.67670382 308.74462891 546.08935547 C304.14044742 548.43353606 299.56521902 550.83091915 295 553.25 C290.10977423 555.83772633 285.213432 558.41206084 280.30078125 560.95703125 C271.65332512 565.43958725 263.0208093 569.91773664 254.5625 574.75 C249.09466962 577.86987163 243.55352916 580.78274672 237.90576172 583.56396484 C230.78703136 587.07848896 223.73702838 590.72435338 216.6875 594.375 C216.05339203 594.70329803 215.41928406 595.03159607 214.76596069 595.36984253 C206.46137771 599.67114997 198.1694689 603.99587191 189.89916992 608.36279297 C183.77668212 611.59557353 177.63987906 614.80038744 171.5 618 C168.59050406 619.51760968 165.68118595 621.03555951 162.77197266 622.55371094 C160.98802469 623.48449373 159.20386213 624.41486541 157.41943359 625.34472656 C148.81976659 629.82899649 140.27068688 634.37859457 131.8125 639.125 C125.8811721 642.44834793 119.90430568 645.61136584 113.80517578 648.61425781 C106.71982508 652.11163478 99.70376477 655.74171081 92.6875 659.375 C91.73606613 659.86758301 91.73606613 659.86758301 90.76541138 660.37011719 C82.46101219 664.67133418 74.16928777 668.99596755 65.89916992 673.36279297 C59.7766831 676.59557301 53.63996903 679.80056136 47.5 683 C40.32747183 686.73889644 33.15852777 690.48435807 26 694.25 C25.23373291 694.6526709 24.46746582 695.0553418 23.67797852 695.47021484 C19.9608575 697.42701555 16.25276854 699.39862042 12.55859375 701.3984375 C11.51348633 701.96256348 11.51348633 701.96256348 10.44726562 702.53808594 C9.14317002 703.24336213 7.84096182 703.95214375 6.54101562 704.66503906 C2.22170311 707 2.22170311 707 0 707 C0 473.69 0 240.38 0 0 Z " fill="#FEFEFE" transform="translate(777,254)"/>
<path d="M0 0 C1.74373384 0.80054473 3.45668505 1.67015587 5.140625 2.58984375 C6.11942627 3.1214209 7.09822754 3.65299805 8.10668945 4.20068359 C9.14398193 4.77383301 10.18127441 5.34698242 11.25 5.9375 C12.33047607 6.52869629 13.41095215 7.11989258 14.52416992 7.72900391 C21.18389608 11.391284 27.76761448 15.16028854 34.29199219 19.05737305 C43.65201669 24.62329992 53.22162106 29.82195645 62.75024414 35.09161377 C71.96016036 40.18747357 81.13646632 45.34367906 90.31591797 50.49414062 C92.6697389 51.81471253 95.02421744 53.13410157 97.37890625 54.453125 C104.58634018 58.49460174 111.76745981 62.58005318 118.9375 66.6875 C130.9106152 73.5437116 142.95408767 80.27277612 155 87 C167.71668428 94.10182672 180.42069856 101.22114918 193.05664062 108.46582031 C202.93157697 114.11983716 212.86761872 119.66426642 222.80175781 125.21337891 C240.84235708 135.29132589 258.85139394 145.42344598 276.83398438 155.60449219 C287.81477908 161.82039284 298.8037795 168.02116422 309.8125 174.1875 C310.76495605 174.72109131 311.71741211 175.25468262 312.69873047 175.80444336 C321.787592 180.8906657 330.89531269 185.94184039 340 191 C340 208.16 340 225.32 340 243 C335.69677813 241.56559271 332.23130939 240.22066662 328.28125 238.1640625 C326.65413086 237.31956543 326.65413086 237.31956543 324.99414062 236.45800781 C323.26454102 235.55066895 323.26454102 235.55066895 321.5 234.625 C320.27807357 233.98780463 319.05606721 233.35076253 317.83398438 232.71386719 C309.80622336 228.51995292 301.85114733 224.20186811 293.9206543 219.82714844 C285.1351615 215.01313659 276.22731162 210.44330167 267.3125 205.875 C266.16102982 205.28487625 266.16102982 205.28487625 264.98629761 204.68283081 C261.98236345 203.14356023 258.9783338 201.60447625 255.97413635 200.0657196 C245.49984372 194.69790985 235.09479227 189.20589202 224.73046875 183.62890625 C222.4037828 182.37734848 220.07700866 181.1259574 217.75 179.875 C217.1637384 179.55976379 216.57747681 179.24452759 215.97344971 178.91973877 C206.34371489 173.74628417 196.65798061 168.68816518 186.9375 163.6875 C186.27555634 163.34693573 185.61361267 163.00637146 184.93161011 162.65548706 C182.350391 161.32766 179.7691 159.99997279 177.18769836 158.67250061 C166.97797647 153.41947476 156.8256633 148.06190027 146.71484375 142.62109375 C144.3933571 141.3721571 142.07179951 140.12335471 139.75 138.875 C139.16410095 138.55994507 138.5782019 138.24489014 137.97454834 137.92028809 C128.34444336 132.74665911 118.65834386 127.68835205 108.9375 122.6875 C108.27555634 122.34693573 107.61361267 122.00637146 106.93161011 121.65548706 C104.350391 120.32766 101.7691 118.99997279 99.18769836 117.67250061 C88.97797647 112.41947476 78.8256633 107.06190027 68.71484375 101.62109375 C66.39335189 100.37216686 64.07178822 99.12337566 61.75 97.875 C61.16476562 97.5602774 60.57953125 97.24555481 59.9765625 96.92129517 C48.99834705 91.02286906 37.94382629 85.27878901 26.85302734 79.59521484 C21.35549226 76.77619542 15.86524398 73.95174486 10.44140625 70.9921875 C9.65080811 70.56212402 8.86020996 70.13206055 8.0456543 69.68896484 C6.66052592 68.93026782 5.27993443 68.16318713 3.90551758 67.38525391 C0.43695199 65.48642141 -2.05530363 64.26837162 -6 65 C-8.54250848 66.2524101 -10.89594816 67.5406327 -13.3125 69 C-14.75863578 69.84290657 -16.20660073 70.68268168 -17.65625 71.51953125 C-18.75259766 72.1530249 -18.75259766 72.1530249 -19.87109375 72.79931641 C-22.96380674 74.54357816 -26.12449334 76.12613047 -29.3125 77.6875 C-44.84169472 85.33882466 -60.22259395 93.31480554 -75.375 101.6875 C-86.1127611 107.61782545 -97.03422057 113.17712038 -107.95751953 118.75488281 C-118.00868087 123.88986798 -127.99637521 129.10325193 -137.87231445 134.56982422 C-149.00169227 140.7028831 -160.34221825 146.43557289 -171.6444397 152.24130249 C-177.47370265 155.23812901 -183.27621492 158.2836266 -189.06982422 161.34863281 C-193.34793588 163.60979917 -197.63558453 165.8510634 -201.93359375 168.07421875 C-211.76276153 173.15913635 -221.56339499 178.27278125 -231.25 183.625 C-242.03157496 189.5747833 -252.99508504 195.15726441 -263.96099854 200.75662231 C-273.91017893 205.8392938 -283.79805598 210.99466155 -293.56689453 216.41821289 C-303.90393318 222.11877108 -314.44761804 227.42982385 -324.97314453 232.77172852 C-333.59875324 237.12547124 -333.59875324 237.12547124 -341.9140625 242.03515625 C-345 244 -345 244 -347 244 C-347 226.84 -347 209.68 -347 192 C-322.96413745 178.2652214 -322.96413745 178.2652214 -313.75 173.125 C-312.7175415 172.5475 -311.68508301 171.97 -310.62133789 171.375 C-305.3170863 168.40843968 -300.00942302 165.44807743 -294.69921875 162.4921875 C-284.38303918 156.7422253 -274.11709744 150.9263775 -263.9375 144.9375 C-254.98920856 139.67578155 -245.93325626 134.65909142 -236.78662109 129.75146484 C-229.4554739 125.81110793 -222.21226263 121.73829426 -214.9987793 117.5871582 C-208.2345655 113.69654271 -201.43728672 109.86827309 -194.625 106.0625 C-186.57152226 101.5622993 -178.52795819 97.04557695 -170.5 92.5 C-161.46064123 87.38257414 -152.40185659 82.30066795 -143.3359375 77.23046875 C-135.43374388 72.80876984 -127.54815785 68.35835943 -119.66845703 63.89672852 C-112.5832203 59.88767249 -105.48147451 55.90876517 -98.375 51.9375 C-90.72785139 47.66298819 -83.09976573 43.3581974 -75.5 39 C-62.59615572 31.60154945 -49.60580313 24.35796204 -36.61572266 17.11230469 C-34.35513388 15.85134885 -32.09487628 14.58979911 -29.83496094 13.32763672 C-27.72310632 12.14818703 -25.61052811 10.97003158 -23.49707031 9.79345703 C-22.52995117 9.25317871 -21.56283203 8.71290039 -20.56640625 8.15625 C-19.17059326 7.37894531 -19.17059326 7.37894531 -17.74658203 6.5859375 C-14.16770736 4.51941573 -10.70900292 2.27633566 -7.26928711 -0.01367188 C-4.33639677 -1.28843002 -3.01801792 -0.97654582 0 0 Z " fill="#FEFEFE" transform="translate(779,162)"/>
</svg>
