<svg width="269" height="241" viewBox="0 0 269 241" fill="none" xmlns="http://www.w3.org/2000/svg">
<g clip-path="url(#clip0_14_274)">
<path d="M266.618 197.619C264.171 212.617 253.146 224.229 241.409 234.378C239.771 235.795 238.128 237.185 236.481 238.547C236.47 238.553 236.459 238.566 236.447 238.573C236.368 238.638 236.289 238.704 236.215 238.769C235.875 239.049 235.535 239.33 235.198 239.608L235.41 239.673L236.069 239.875C235.843 239.813 235.619 239.754 235.393 239.692C235.326 239.673 235.256 239.657 235.188 239.638C227.407 237.544 219.467 235.246 213.105 230.341C206.505 225.246 201.96 216.56 204.236 208.557C204.536 207.509 204.952 206.497 205.477 205.54C205.691 205.14 205.928 204.753 206.177 204.371C207.681 202.017 209.787 200.105 212.279 198.831C214.77 197.558 217.558 196.968 220.354 197.123C223.151 197.278 225.855 198.172 228.19 199.713C230.524 201.255 232.405 203.388 233.637 205.893C233.526 197.075 225.441 190.645 217.857 186.094C210.27 181.546 201.681 176.632 199.295 168.135C197.966 163.408 199.084 158.539 201.696 154.425C201.777 154.3 201.858 154.175 201.942 154.053C205.144 149.242 210.051 145.812 215.681 144.447C226.187 142.073 237.197 146.446 245.815 152.89C259.683 163.257 269.399 180.567 266.618 197.619Z" fill="#F2F2F2"/>
<path d="M244.334 181.051C246.758 183.971 248.74 187.228 250.22 190.718C251.493 193.843 252.289 197.141 252.582 200.501C253.221 207.403 251.906 214.379 249.285 220.767C247.246 225.616 244.599 230.19 241.409 234.378C239.77 235.795 238.127 237.185 236.481 238.547C236.469 238.553 236.458 238.566 236.447 238.573C236.368 238.638 236.288 238.704 236.215 238.769C235.875 239.049 235.535 239.33 235.198 239.608L235.409 239.673L236.068 239.875C235.842 239.813 235.619 239.754 235.393 239.692C235.325 239.673 235.255 239.657 235.188 239.638C235.198 234.126 233.882 228.691 231.349 223.79C228.817 218.888 225.142 214.663 220.632 211.468C216.12 208.33 210.926 206.299 205.476 205.54C205.691 205.14 205.927 204.753 206.176 204.371C208.285 204.697 210.361 205.208 212.38 205.898C219.593 208.344 225.824 213.039 230.15 219.288C234.041 224.966 236.225 231.633 236.445 238.504C236.717 238.193 236.988 237.875 237.251 237.561C242.259 231.648 246.544 225.036 249.097 217.692C251.33 211.464 251.991 204.784 251.022 198.242C249.883 191.118 246.221 184.831 241.38 179.556C236.196 173.911 229.97 169.112 223.455 165.089C216.782 160.96 209.626 157.66 202.147 155.263C201.978 155.208 201.837 155.09 201.753 154.934C201.669 154.778 201.648 154.596 201.695 154.425C201.725 154.274 201.813 154.14 201.941 154.053C202.008 154.014 202.083 153.991 202.16 153.985C202.237 153.979 202.314 153.99 202.386 154.018C203.309 154.315 204.227 154.618 205.14 154.939C212.746 157.615 219.989 161.222 226.702 165.677C233.185 169.967 239.409 175.011 244.334 181.051Z" fill="white"/>
<path d="M112.058 146.803C111.31 146.801 110.591 146.517 110.045 146.007C109.5 145.498 109.169 144.801 109.12 144.057L108.682 137.401C108.631 136.624 108.892 135.858 109.408 135.272C109.924 134.686 110.652 134.329 111.432 134.278L163.78 130.863C164.606 130.809 165.434 130.917 166.217 131.181C167.001 131.446 167.724 131.862 168.346 132.405C168.968 132.948 169.476 133.608 169.842 134.347C170.208 135.086 170.424 135.89 170.478 136.712C170.533 137.534 170.423 138.359 170.157 139.139C169.891 139.92 169.474 140.64 168.928 141.259C168.382 141.879 167.72 142.385 166.978 142.749C166.236 143.113 165.429 143.328 164.603 143.381L112.255 146.796C112.189 146.8 112.124 146.803 112.058 146.803Z" fill="#A64E1B"/>
<path d="M122.38 147.661C121.618 147.659 120.885 147.364 120.336 146.837C119.787 146.31 119.464 145.592 119.435 144.833L119.062 134.891C119.047 134.506 119.109 134.121 119.244 133.76C119.379 133.398 119.583 133.066 119.847 132.783C120.11 132.501 120.427 132.272 120.779 132.112C121.131 131.951 121.511 131.861 121.898 131.846L164.946 130.244C165.727 130.215 166.488 130.496 167.062 131.026C167.635 131.556 167.973 132.291 168.003 133.069L168.376 143.011C168.39 143.396 168.328 143.781 168.194 144.143C168.059 144.504 167.854 144.836 167.59 145.119C167.327 145.401 167.01 145.63 166.658 145.79C166.306 145.951 165.926 146.041 165.539 146.056L122.492 147.658C122.454 147.66 122.417 147.661 122.38 147.661Z" fill="#0E0F1D"/>
<path d="M172.825 239.302H166.129C165.347 239.301 164.597 238.991 164.045 238.44C163.492 237.89 163.181 237.143 163.18 236.364V180.772C163.181 179.993 163.492 179.246 164.045 178.695C164.597 178.145 165.347 177.835 166.129 177.834H172.825C173.607 177.835 174.356 178.145 174.909 178.695C175.462 179.246 175.773 179.993 175.774 180.772V236.364C175.773 237.143 175.462 237.89 174.909 238.44C174.356 238.991 173.607 239.301 172.825 239.302Z" fill="#0E0F1D"/>
<path d="M143.104 209.916L137.377 206.458C136.709 206.054 136.229 205.402 136.043 204.646C135.857 203.889 135.98 203.09 136.384 202.424L165.312 154.883C165.718 154.217 166.373 153.739 167.132 153.554C167.891 153.368 168.694 153.49 169.363 153.893L175.089 157.351C175.757 157.755 176.237 158.407 176.423 159.163C176.609 159.92 176.486 160.719 176.082 161.385L147.154 208.927C146.748 209.592 146.093 210.07 145.334 210.255C144.575 210.441 143.773 210.319 143.104 209.916Z" fill="#0E0F1D"/>
<path d="M162.655 119.817C175.433 119.817 185.792 109.498 185.792 96.7689C185.792 84.0398 175.433 73.7209 162.655 73.7209C149.876 73.7209 139.517 84.0398 139.517 96.7689C139.517 109.498 149.876 119.817 162.655 119.817Z" fill="#A64E1B"/>
<path d="M150.131 104.638C149.387 104.395 148.703 103.995 148.127 103.467C147.745 103.089 147.451 102.633 147.265 102.13C147.078 101.628 147.004 101.091 147.049 100.557C147.073 100.176 147.185 99.8064 147.376 99.4762C147.568 99.1461 147.833 98.8645 148.152 98.6535C148.979 98.1248 150.086 98.1233 151.213 98.6179L151.17 89.6203L152.077 89.616L152.128 100.194L151.429 99.7556C150.618 99.2484 149.46 98.8915 148.642 99.4143C148.44 99.5525 148.272 99.7352 148.153 99.9483C148.033 100.161 147.964 100.399 147.952 100.643C147.921 101.041 147.977 101.441 148.115 101.815C148.254 102.189 148.472 102.53 148.754 102.813C149.756 103.766 151.217 104.064 152.884 104.331L152.741 105.223C151.855 105.106 150.982 104.91 150.131 104.638Z" fill="#2F2E41"/>
<path d="M141.817 89.1658L141.698 90.0617L146.543 90.6991L146.662 89.8031L141.817 89.1658Z" fill="#2F2E41"/>
<path d="M157.109 91.177L156.99 92.0729L161.835 92.7103L161.954 91.8143L157.109 91.177Z" fill="#2F2E41"/>
<path d="M181.974 195.687H142.959C141.936 195.686 140.956 195.281 140.233 194.561C139.51 193.841 139.103 192.864 139.102 191.846L147.27 129.451C147.277 128.438 147.686 127.468 148.408 126.753C149.13 126.039 150.107 125.639 151.125 125.639H164.971C170.501 125.645 175.803 127.837 179.714 131.732C183.625 135.628 185.824 140.91 185.831 146.419V191.846C185.829 192.864 185.423 193.841 184.7 194.561C183.977 195.281 182.997 195.686 181.974 195.687Z" fill="#242A32"/>
<path d="M172.15 192.361C171.913 192.876 171.531 193.313 171.051 193.617C170.57 193.921 170.012 194.081 169.442 194.077L162.747 194.019C162.359 194.016 161.977 193.936 161.62 193.786C161.264 193.635 160.941 193.416 160.669 193.141C160.398 192.865 160.183 192.54 160.038 192.182C159.893 191.824 159.82 191.442 159.824 191.056L160.278 138.8C160.286 137.977 160.456 137.162 160.779 136.404C161.102 135.646 161.572 134.959 162.161 134.381C162.751 133.804 163.449 133.348 164.216 133.039C164.982 132.731 165.803 132.575 166.63 132.583C167.456 132.59 168.274 132.759 169.035 133.081C169.796 133.403 170.486 133.871 171.066 134.458C171.645 135.046 172.103 135.741 172.413 136.505C172.723 137.268 172.879 138.085 172.871 138.909L172.417 191.165C172.414 191.578 172.323 191.985 172.15 192.361Z" fill="#A64E1B"/>
<path d="M175.108 178.411C174.871 178.926 174.489 179.363 174.009 179.667C173.528 179.971 172.97 180.131 172.401 180.127L160.964 180.028C160.182 180.02 159.435 179.704 158.887 179.149C158.339 178.593 158.035 177.844 158.041 177.065L158.414 134.156C158.418 133.77 158.497 133.389 158.649 133.033C158.8 132.678 159.02 132.356 159.296 132.086C159.572 131.816 159.899 131.602 160.258 131.457C160.617 131.313 161.001 131.24 161.389 131.244L172.825 131.342C173.213 131.346 173.595 131.425 173.952 131.576C174.308 131.726 174.632 131.946 174.903 132.221C175.174 132.496 175.389 132.822 175.534 133.179C175.679 133.537 175.752 133.92 175.748 134.305L175.375 177.215C175.372 177.628 175.281 178.035 175.108 178.411Z" fill="#0E0F1D"/>
<path d="M163.088 83.0991C159.995 80.5495 155.86 82.9609 152.362 82.6187C149.016 82.2912 146.322 79.3576 145.588 76.2008C144.732 72.5178 146.588 68.7766 149.384 66.4173C152.447 63.8333 156.558 63.0303 160.476 63.4235C164.967 63.8742 169.104 65.877 172.829 68.3238C176.422 70.6104 179.739 73.3034 182.711 76.3493C185.374 79.1699 187.65 82.549 188.429 86.3975C189.138 89.8951 188.722 93.7935 186.696 96.8061C185.62 98.3509 184.164 99.5936 182.466 100.414C180.696 101.322 178.803 101.982 177.092 103.003C174.504 104.546 172.02 107.69 172.901 110.898C173.09 111.598 173.45 112.242 173.947 112.772C174.545 113.408 175.585 112.533 174.985 111.895C173.933 110.774 173.944 109.253 174.468 107.881C175.092 106.335 176.224 105.046 177.68 104.225C179.472 103.159 181.459 102.485 183.297 101.51C185.058 100.618 186.576 99.3158 187.722 97.7137C189.886 94.596 190.474 90.5806 189.899 86.8873C189.278 82.8905 187.141 79.2883 184.492 76.286C181.609 73.0186 178.092 70.2732 174.506 67.8149C170.658 65.1771 166.419 62.9657 161.762 62.225C157.725 61.5829 153.372 62.1076 149.896 64.3583C146.65 66.4592 144.199 70.0139 144.023 73.9375C143.967 75.7222 144.39 77.4895 145.247 79.0576C146.105 80.6257 147.366 81.9378 148.902 82.859C150.476 83.7577 152.295 84.1412 154.1 83.9554C156.031 83.7956 157.954 83.1693 159.903 83.2962C160.784 83.3328 161.629 83.6545 162.311 84.2127C162.986 84.7698 163.758 83.6516 163.088 83.0991Z" fill="#2F2E41"/>
<path d="M135.881 203.227C135.889 203.176 135.899 203.125 135.91 203.074C135.991 202.697 136.146 202.339 136.366 202.022C136.587 201.704 136.868 201.434 137.194 201.225L142.821 197.61C143.479 197.188 144.277 197.044 145.041 197.208C145.806 197.373 146.473 197.832 146.898 198.486L164.256 225.294C164.68 225.949 164.825 226.744 164.66 227.506C164.495 228.267 164.033 228.932 163.376 229.355L157.749 232.97C157.092 233.392 156.293 233.536 155.529 233.372C154.765 233.207 154.097 232.748 153.672 232.094L136.314 205.286C135.918 204.677 135.763 203.943 135.881 203.227Z" fill="#0E0F1D"/>
<path d="M114.807 26.5493C114.375 25.5268 113.651 24.6529 112.725 24.0359C111.8 23.4189 110.713 23.0859 109.599 23.078H5.63563C4.14122 23.0788 2.70824 23.6705 1.65152 24.7231C0.594812 25.7757 0.000802991 27.2032 0 28.6918V159.707C0.000802991 161.196 0.594812 162.624 1.65152 163.676C2.70824 164.729 4.14122 165.321 5.63563 165.321H109.603C111.097 165.319 112.529 164.727 113.585 163.675C114.642 162.622 115.236 161.196 115.238 159.707V28.6918C115.241 27.9564 115.095 27.228 114.811 26.5493H114.807ZM113.983 159.707C113.982 160.865 113.519 161.975 112.697 162.794C111.875 163.613 110.761 164.073 109.599 164.075H5.63563C4.47308 164.074 3.35819 163.614 2.53607 162.796C1.71395 161.977 1.2519 160.866 1.25151 159.708V28.6926C1.25309 27.5348 1.7155 26.4249 2.53734 25.6063C3.35918 24.7876 4.47338 24.327 5.63563 24.3254H109.603C110.478 24.3287 111.333 24.5918 112.058 25.0811C112.782 25.5704 113.344 26.2637 113.672 27.0726C113.736 27.2338 113.791 27.3983 113.837 27.5653C113.936 27.9329 113.987 28.3119 113.987 28.6926L113.983 159.707Z" fill="#3F3D56"/>
<path d="M92.8266 54.4943H61.5114C60.847 54.4943 60.2097 54.2314 59.7399 53.7634C59.2701 53.2953 59.0061 52.6606 59.0061 51.9987C59.0061 51.3368 59.2701 50.702 59.7399 50.234C60.2097 49.766 60.847 49.5031 61.5114 49.5031H92.8266C93.4911 49.5031 94.1283 49.766 94.5982 50.234C95.068 50.702 95.332 51.3368 95.332 51.9987C95.332 52.6606 95.068 53.2953 94.5982 53.7634C94.1283 54.2314 93.4911 54.4943 92.8266 54.4943Z" fill="#3F3D56"/>
<path d="M92.8268 67.5958H61.5116C61.1823 67.5962 60.8562 67.532 60.5518 67.4068C60.2475 67.2816 59.9709 67.0978 59.7379 66.866C59.5049 66.6342 59.3201 66.359 59.194 66.056C59.0678 65.753 59.0029 65.4282 59.0029 65.1002C59.0029 64.7721 59.0678 64.4474 59.194 64.1444C59.3201 63.8413 59.5049 63.5661 59.7379 63.3343C59.9709 63.1025 60.2475 62.9187 60.5518 62.7935C60.8562 62.6683 61.1823 62.6041 61.5116 62.6045H92.8268C93.1561 62.6041 93.4822 62.6683 93.7866 62.7935C94.0909 62.9187 94.3675 63.1025 94.6005 63.3343C94.8335 63.5661 95.0183 63.8413 95.1444 64.1444C95.2705 64.4474 95.3354 64.7721 95.3354 65.1002C95.3354 65.4282 95.2705 65.753 95.1444 66.056C95.0183 66.359 94.8335 66.6342 94.6005 66.866C94.3675 67.0978 94.0909 67.2816 93.7866 67.4068C93.4822 67.532 93.1561 67.5962 92.8268 67.5958Z" fill="#3F3D56"/>
<path d="M45.729 74.5719H22.8439C22.0967 74.5711 21.3802 74.2751 20.8518 73.7487C20.3234 73.2223 20.0262 72.5086 20.0254 71.7642V44.8624C20.0262 44.118 20.3234 43.4043 20.8518 42.8779C21.3802 42.3515 22.0967 42.0555 22.8439 42.0547H45.729C46.4762 42.0555 47.1927 42.3515 47.7211 42.8779C48.2495 43.4043 48.5467 44.118 48.5475 44.8624V71.7642C48.5467 72.5086 48.2495 73.2223 47.7211 73.7487C47.1927 74.2751 46.4762 74.5711 45.729 74.5719Z" fill="#A64E1B"/>
<path d="M92.8942 93.9392H22.122C21.4576 93.9392 20.8203 93.6762 20.3505 93.2082C19.8806 92.7402 19.6167 92.1054 19.6167 91.4435C19.6167 90.7816 19.8806 90.1469 20.3505 89.6788C20.8203 89.2108 21.4576 88.9479 22.122 88.9479H92.8942C93.5586 88.9479 94.1959 89.2108 94.6657 89.6788C95.1356 90.1469 95.3995 90.7816 95.3995 91.4435C95.3995 92.1054 95.1356 92.7402 94.6657 93.2082C94.1959 93.6762 93.5586 93.9392 92.8942 93.9392Z" fill="#CCCCCC"/>
<path d="M92.8942 107.041H22.122C21.4576 107.041 20.8203 106.778 20.3505 106.31C19.8806 105.842 19.6167 105.207 19.6167 104.545C19.6167 103.883 19.8806 103.248 20.3505 102.78C20.8203 102.312 21.4576 102.049 22.122 102.049H92.8942C93.5586 102.049 94.1959 102.312 94.6657 102.78C95.1356 103.248 95.3995 103.883 95.3995 104.545C95.3995 105.207 95.1356 105.842 94.6657 106.31C94.1959 106.778 93.5586 107.041 92.8942 107.041Z" fill="#CCCCCC"/>
<path d="M92.8942 120.142H22.1221C21.4582 120.141 20.8218 119.878 20.3527 119.41C19.8836 118.942 19.6201 118.308 19.6201 117.647C19.6201 116.985 19.8836 116.351 20.3527 115.883C20.8218 115.415 21.4582 115.152 22.1221 115.151H92.8942C93.2235 115.151 93.5497 115.215 93.854 115.34C94.1584 115.465 94.435 115.649 94.6679 115.881C94.9009 116.112 95.0858 116.388 95.2119 116.691C95.338 116.994 95.4029 117.319 95.4029 117.647C95.4029 117.975 95.338 118.299 95.2119 118.602C95.0858 118.905 94.9009 119.181 94.6679 119.412C94.435 119.644 94.1584 119.828 93.854 119.953C93.5497 120.078 93.2235 120.143 92.8942 120.142Z" fill="#CCCCCC"/>
<path d="M92.8942 133.244H22.122C21.4576 133.244 20.8203 132.981 20.3505 132.513C19.8806 132.045 19.6167 131.41 19.6167 130.748C19.6167 130.086 19.8806 129.452 20.3505 128.984C20.8203 128.515 21.4576 128.253 22.122 128.253H92.8942C93.5586 128.253 94.1959 128.515 94.6657 128.984C95.1356 129.452 95.3995 130.086 95.3995 130.748C95.3995 131.41 95.1356 132.045 94.6657 132.513C94.1959 132.981 93.5586 133.244 92.8942 133.244Z" fill="#CCCCCC"/>
<path d="M92.8942 146.345H22.122C21.4576 146.345 20.8203 146.082 20.3505 145.614C19.8806 145.146 19.6167 144.512 19.6167 143.85C19.6167 143.188 19.8806 142.553 20.3505 142.085C20.8203 141.617 21.4576 141.354 22.122 141.354H92.8942C93.5586 141.354 94.1959 141.617 94.6657 142.085C95.1356 142.553 95.3995 143.188 95.3995 143.85C95.3995 144.512 95.1356 145.146 94.6657 145.614C94.1959 146.082 93.5586 146.345 92.8942 146.345Z" fill="#CCCCCC"/>
<path d="M115.584 48.2471C128.937 48.2471 139.762 37.4641 139.762 24.1627C139.762 10.8612 128.937 0.078186 115.584 0.078186C102.231 0.078186 91.4065 10.8612 91.4065 24.1627C91.4065 37.4641 102.231 48.2471 115.584 48.2471Z" fill="#A64E1B"/>
<path d="M113.188 33.3502C112.644 33.3511 112.115 33.1758 111.68 32.8508L111.653 32.8306L105.971 28.5008C105.708 28.2998 105.487 28.0492 105.321 27.7632C105.155 27.4772 105.047 27.1614 105.004 26.8339C104.96 26.5065 104.982 26.1737 105.068 25.8546C105.153 25.5355 105.301 25.2363 105.503 24.9742C105.705 24.712 105.956 24.492 106.244 24.3267C106.531 24.1615 106.848 24.0541 107.176 24.0109C107.505 23.9676 107.839 23.9893 108.16 24.0747C108.48 24.16 108.78 24.3074 109.043 24.5084L112.724 27.3198L121.421 16.0174C121.622 15.7553 121.874 15.5354 122.161 15.3702C122.448 15.205 122.765 15.0977 123.093 15.0545C123.422 15.0112 123.756 15.0329 124.076 15.1182C124.396 15.2035 124.697 15.3508 124.96 15.5517L124.96 15.5523L124.906 15.6269L124.962 15.5523C125.492 15.9586 125.84 16.558 125.927 17.219C126.015 17.88 125.835 18.5486 125.429 19.0781L115.199 32.3663C114.962 32.6725 114.658 32.9202 114.31 33.0903C113.962 33.2604 113.579 33.3483 113.191 33.3472L113.188 33.3502Z" fill="white"/>
<path d="M216.941 240.078H52.447C52.3284 240.078 52.2147 240.031 52.1309 239.948C52.0471 239.864 52 239.751 52 239.633C52 239.515 52.0471 239.402 52.1309 239.318C52.2147 239.235 52.3284 239.188 52.447 239.188H216.941C217.059 239.188 217.173 239.235 217.257 239.318C217.341 239.402 217.388 239.515 217.388 239.633C217.388 239.751 217.341 239.864 217.257 239.948C217.173 240.031 217.059 240.078 216.941 240.078Z" fill="#3F3D56"/>
</g>
<defs>
<clipPath id="clip0_14_274">
<rect width="269" height="240" fill="white" transform="translate(0 0.078186)"/>
</clipPath>
</defs>
</svg>
