<svg width="290" height="306" viewBox="0 0 290 306" fill="none" xmlns="http://www.w3.org/2000/svg">
<g clip-path="url(#clip0_7_1384)">
<path d="M172.783 239.424L185.661 321.527H53.6533L65.4591 251.767L130.927 222.789L161.514 232.448L172.783 239.424Z" fill="#78C1D8"/>
<path d="M167.682 151.111L190.041 105.498L195.586 94.5871C195.586 94.5871 200.952 96.018 203.993 97.8069C207.033 99.5959 236.19 109.613 240.304 110.686C244.418 111.76 261.947 116.947 264.272 117.483C266.598 118.02 274.468 122.313 274.468 122.313L275.899 123.923L254.971 173.292C254.971 173.292 244.596 177.227 243.165 178.837C241.734 180.447 236.745 186.616 236.745 186.616L233.241 187.194L172.153 162.023L167.682 151.111Z" fill="#78C1D8"/>
<path d="M187.793 137.728C186.957 136.445 185.366 136.567 184.024 136.583C180.825 136.619 177.626 136.655 174.427 136.691C176.046 133.126 177.831 129.636 179.785 126.241C180.399 125.174 181.03 124.116 181.676 123.067C182.033 122.488 181.328 121.814 180.756 122.147C177.986 123.76 175.215 125.373 172.445 126.985C169.758 128.55 167.033 130.065 164.393 131.708C162.963 132.598 161.577 133.564 160.311 134.677C160.038 134.917 160.066 135.383 160.311 135.628L160.314 135.63C160.315 135.721 160.323 135.81 160.336 135.9C160.345 135.968 160.356 136.034 160.369 136.099C160.113 136.223 159.94 136.489 160.057 136.843C161.69 141.75 163.794 146.499 166.337 151.002C166.501 151.293 166.967 151.458 167.257 151.243C168.25 150.507 168.62 149.43 169.131 148.355C169.361 147.87 169.625 147.411 170.042 147.062C170.478 146.696 171.025 146.481 171.564 146.322C172.944 145.915 174.401 145.72 175.813 145.447C177.338 145.153 178.865 144.864 180.389 144.563C182.916 144.066 185.865 143.364 187.5 141.188C188.234 140.21 188.494 138.803 187.793 137.728Z" fill="#A5645B"/>
<path d="M189.305 191.176L237.197 186.386C237.197 186.386 241.471 178.786 245.943 177.355C250.414 175.924 255.244 173.778 255.244 173.778L259.179 163.761C259.179 163.761 264.724 167.696 266.334 168.77C267.944 169.843 269.017 170.737 269.017 172.526C269.017 174.315 267.049 177.713 267.049 177.713L263.293 178.428C263.293 178.428 265.439 185.225 265.975 186.657C266.512 188.088 266.333 193.991 266.333 193.991C266.333 193.991 266.513 198.284 265.26 200.252C264.008 202.219 244.689 208.838 244.689 208.838C244.689 208.838 198.898 227.977 190.67 230.302C182.442 232.627 173.677 237.993 165.986 225.293C165.986 225.293 177.971 219.927 183.337 211.162C188.704 202.397 189.305 191.176 189.305 191.176Z" fill="#A5645B"/>
<path d="M144.007 111.024C144.007 111.024 148.269 111.556 151.2 115.553C154.131 119.549 167.185 147.787 167.185 147.787L181.304 177.891H184.235L192.227 190.146C192.227 190.146 191.207 200.787 183.336 211.161C175.466 221.536 162.587 226.544 162.587 226.544L158.295 228.154L140.049 266.297L114.829 195.778L78.5179 138.002L78.3389 129.774L86.9248 120.652C86.9248 120.652 102.487 111.35 103.202 111.171C103.918 110.992 134.505 104.195 134.505 104.195L144.007 111.024Z" fill="#FFEEEE"/>
<path d="M156.289 51.0074C156.242 49.0313 156.172 47.056 156.098 45.0807C156.025 43.1413 156.007 41.1873 155.73 39.2633C155.285 36.1624 153.767 33.3219 151.35 31.3092C150.176 30.3318 148.85 29.5642 147.405 29.0653C146.603 28.7886 145.7 28.5421 144.997 29.1761C144.432 29.6853 144.309 30.5226 144.28 31.2402C143.969 38.8553 145.008 46.4873 146.006 54.0174C147.01 61.6054 148.06 69.2286 147.941 76.9002C147.927 77.7969 147.896 78.6935 147.849 79.5888C147.847 79.5895 147.844 79.5909 147.841 79.5924C147.507 79.7318 147.267 80.0378 147.372 80.4194C147.458 80.7356 147.861 81.0299 148.199 80.889C151.212 79.6335 153.285 76.9904 154.445 74.0032C155.801 70.5119 155.999 66.6222 156.19 62.9203C156.396 58.9535 156.386 54.9779 156.289 51.0074Z" fill="#A5645B"/>
<path d="M154.139 33.2052C153.844 29.8254 151.998 26.8705 149.479 24.667C146.817 22.3387 143.536 20.7537 140.172 19.7257C136.618 18.6397 132.848 18.2046 129.139 18.4233C128.404 18.4666 127.671 18.537 126.941 18.6302C122.665 18.7821 118.378 19.2957 114.165 20.0104C109.859 20.7413 105.426 21.5792 101.413 23.3594C97.9417 24.8989 94.9464 27.3621 92.5623 30.3017C87.2902 36.8014 85.1527 45.0403 83.724 53.1265C82.1148 62.232 81.1029 71.4475 80.6862 80.6842C80.2708 89.8799 80.4491 99.102 81.2218 108.274C81.3179 109.413 81.4236 110.552 81.5373 111.689C81.5476 111.79 81.5748 111.885 81.6159 111.972C81.6555 112.231 81.8309 112.486 82.0965 112.528C86.5094 113.223 90.9414 113.799 95.3859 114.249C99.815 114.697 104.257 115.021 108.703 115.22C111.083 115.327 113.463 115.396 115.845 115.431C115.884 115.729 116.096 115.994 116.486 115.98C118.02 115.928 119.175 114.795 120.305 113.888C121.585 112.86 122.865 111.832 124.145 110.805C125.408 109.791 126.67 108.778 127.933 107.764C128.014 107.698 128.095 107.631 128.178 107.562C128.35 107.613 128.538 107.602 128.683 107.493C130.908 105.819 133.787 105.837 136.429 106.184C137.789 106.363 139.151 106.612 140.489 106.915C140.574 107.075 140.725 107.201 140.909 107.274C142.708 107.995 144.401 108.982 145.928 110.176C146.299 110.841 146.499 111.588 146.427 112.387C146.395 112.75 146.76 113.059 147.1 113.059C147.346 113.059 147.536 112.936 147.651 112.753C147.745 112.82 147.85 112.872 147.963 112.901C148.629 113.078 149.108 112.499 149.167 111.894C149.226 111.3 149.131 110.669 149.101 110.073C149.068 109.401 149.035 108.727 149.002 108.054C148.875 105.458 148.747 102.861 148.619 100.264C148.363 95.0472 148.106 89.83 147.85 84.6129C147.596 79.4412 147.37 74.2674 147.003 69.1023C146.644 64.026 146.087 58.9821 145.317 53.9513C144.855 50.9266 144.342 47.5902 144.892 44.4958C145.21 44.5707 145.584 44.4511 145.715 44.0534C146.132 42.7913 146.421 41.4895 146.593 40.1717C146.686 40.0044 146.697 39.8422 146.649 39.7006C146.977 36.6547 146.661 33.5361 145.707 30.6275C145.672 30.5218 145.632 30.4183 145.596 30.3127C147.367 32.4369 148.645 34.9582 149.296 37.6651C149.558 38.7533 149.711 39.8576 149.758 40.9759C149.784 41.6047 150.454 41.8021 150.906 41.4514C153.376 39.5348 154.406 36.2438 154.139 33.2052Z" fill="#A64E1B"/>
<path d="M156.17 61.2832C156.245 60.702 156.295 60.1143 156.275 59.5346C156.249 58.8148 156.062 58.0509 155.451 57.6062C155.312 57.505 155.166 57.4338 155.016 57.3854C154.999 57.37 154.982 57.3538 154.964 57.3391C154.42 56.9047 153.703 56.7895 153.052 57.0464C152.366 57.3171 151.883 57.8264 151.544 58.4376C151.387 58.5851 151.242 58.7502 151.118 58.9417C150.674 59.6256 150.55 60.4738 150.453 61.2656C150.344 62.1512 150.328 63.0457 150.39 63.9358C150.453 64.8523 150.586 65.7702 150.783 66.6676C150.942 67.3911 151.175 68.133 151.621 68.7347C151.893 69.1008 152.223 69.3914 152.602 69.5925C153.047 70.101 153.731 70.2147 154.363 69.9344C154.529 69.861 154.679 69.7686 154.815 69.6615C155.133 69.4986 155.409 69.2564 155.607 68.9372C155.718 68.7567 155.732 68.5799 155.684 68.4258C155.688 68.4155 155.694 68.4052 155.698 68.3942C155.975 67.7067 156.051 66.9524 156.09 66.2178C156.134 65.4254 156.152 64.6307 156.166 63.8367C156.18 63.0274 156.184 62.218 156.173 61.4087C156.172 61.3668 156.17 61.325 156.17 61.2832Z" fill="#8F3251"/>
<path d="M148.244 57.9041C148.17 55.8011 148.09 53.6989 148.005 51.5966C147.97 50.7344 146.626 50.73 146.66 51.5966C146.957 58.9769 147.192 66.3595 147.362 73.7435C147.41 75.8472 147.454 77.9502 147.492 80.0539C147.507 80.9183 148.852 80.9212 148.837 80.0539C148.702 72.6692 148.505 65.2852 148.244 57.9041Z" fill="#A5645B"/>
<path d="M145.066 109.632C143.52 109.199 141.975 108.767 140.429 108.334C140.226 108.188 140.03 108.029 139.843 107.858C139.522 107.564 139.121 107.659 138.884 107.901C138.846 107.891 138.81 107.881 138.772 107.87C137.726 107.577 136.671 107.273 135.602 107.058C135.659 106.735 135.524 106.388 135.141 106.322C133.926 106.113 132.71 106.308 131.644 106.939C131.434 107.063 131.34 107.245 131.326 107.433C129.025 108.229 126.988 109.64 125.036 111.079C122.447 112.986 119.866 114.905 117.282 116.818L101.7 128.35C98.7989 130.496 95.8983 132.643 92.9977 134.789C90.8572 133.827 88.7168 132.866 86.5764 131.904C85.3524 131.354 84.1285 130.804 82.9038 130.254C82.5729 130.105 82.1811 130.158 81.9837 130.495C81.9624 130.531 81.9455 130.571 81.9316 130.613C81.3071 130.297 80.6834 129.981 80.0597 129.665C85.8162 125.906 91.3423 121.795 96.591 117.354C98.1414 116.042 99.6677 114.701 101.17 113.332C101.428 113.097 101.431 112.616 101.17 112.381C99.7513 111.109 98.3329 109.839 96.9146 108.567C96.5851 108.271 96.2571 107.973 95.9254 107.68C95.6018 107.394 95.2526 107.102 94.8189 107.008C93.8525 106.8 93.0468 107.581 92.3218 108.095C89.2216 110.297 86.1214 112.499 83.0212 114.701C80.0964 116.779 77.1569 118.837 74.2555 120.947C71.622 122.863 69.0274 124.846 66.6154 127.037C66.1407 127.468 65.6762 127.912 65.2176 128.361C63.4558 128.042 61.5751 127.922 59.9007 128.614C57.7771 129.493 56.7792 131.525 55.7812 133.457C53.6203 137.641 51.7051 141.955 50.0416 146.36C48.384 150.75 46.9818 155.237 45.8452 159.79C45.2772 162.067 44.7746 164.36 44.3417 166.666C43.8823 169.109 43.5037 171.622 44.0107 174.089C44.3248 175.62 44.969 177.048 45.716 178.419C45.5957 178.626 45.5678 178.893 45.7094 179.093L48.1382 182.527C48.996 183.957 49.8538 185.388 50.7116 186.819C51.0322 187.353 51.3522 187.888 51.6728 188.422C51.9898 188.951 52.6693 188.758 52.8725 188.335C53.9783 189.184 55.2192 189.814 56.471 190.42C56.4908 191.832 56.5084 193.246 56.5223 194.658C56.5803 200.471 56.5884 206.284 56.5458 212.097C56.5253 214.904 56.4908 217.71 56.4468 220.516C53.5484 225.379 50.6499 230.242 47.7515 235.105C46.5833 237.065 45.4159 239.024 44.2477 240.984C43.9065 241.557 44.5134 242.086 45.0138 241.965C49.2044 243.668 53.3957 245.372 57.5863 247.076C56.9245 251.413 56.1973 255.739 55.4004 260.052C54.999 262.226 54.58 264.396 54.1442 266.563C54.0957 266.803 54.1618 267.047 54.3203 267.213C54.2087 267.491 54.2535 267.836 54.5734 268.045C58.5322 270.633 62.5569 273.119 66.6448 275.498C70.7327 277.876 74.8829 280.146 79.0904 282.306C81.4678 283.527 83.8629 284.712 86.2748 285.862C86.5786 286.007 86.8332 285.955 87.0893 285.757C88.4512 284.703 89.8131 283.65 91.175 282.596C91.3056 282.666 91.4648 282.691 91.6504 282.639C92.961 282.264 94.2715 281.89 95.582 281.517C96.8258 281.162 98.0871 280.762 99.383 280.653C101.926 280.441 104.259 281.695 106.768 281.856C107.131 281.879 107.44 281.53 107.44 281.184C107.44 280.801 107.132 280.534 106.768 280.511C106.177 280.474 105.598 280.366 105.024 280.232C109.417 278.916 113.787 277.521 118.129 276.041C122.543 274.537 126.929 272.948 131.283 271.275C133.684 270.353 136.075 269.404 138.455 268.432C138.5 268.458 138.547 268.48 138.599 268.493C138.718 268.525 138.837 268.525 138.956 268.493C139.093 268.449 139.211 268.392 139.323 268.323C139.336 268.32 139.35 268.322 139.364 268.319C139.453 268.315 139.537 268.288 139.614 268.239C139.758 268.147 139.884 268.009 139.923 267.837C139.94 267.764 139.945 267.686 139.941 267.609C139.962 267.544 139.975 267.477 139.969 267.411C139.953 267.22 139.923 267.11 139.844 266.941C139.958 266.799 140.016 266.608 139.965 266.38C138.659 260.647 137.296 254.928 135.876 249.222C134.455 243.516 132.978 237.825 131.444 232.149C131.028 230.609 130.607 229.071 130.183 227.535C130.618 227.608 131.132 227.269 130.975 226.716C129.374 221.079 127.805 215.433 126.27 209.778C124.728 204.095 123.219 198.403 121.744 192.703C120.277 187.03 118.843 181.347 117.442 175.658C116.035 169.94 114.662 164.214 113.323 158.479C111.99 152.773 110.691 147.059 109.426 141.337C109.293 140.731 109.159 140.126 109.026 139.521C113.571 136.174 118.049 132.735 122.451 129.202C125.895 126.437 129.288 123.61 132.638 120.732C132.897 120.883 133.22 120.831 133.451 120.63C137.163 117.412 141.056 114.411 145.113 111.641C145.41 111.438 145.543 111.057 145.358 110.729C145.662 110.396 145.621 109.788 145.066 109.632Z" fill="#4B4466"/>
<path d="M165.383 225.956C163.845 226.833 162.196 227.82 160.394 227.987C159.291 228.089 158.153 227.899 157.254 227.291C157.388 227.03 157.39 226.726 157.158 226.493C156.947 226.282 156.523 226.219 156.278 226.424C156.031 226.312 155.697 226.379 155.512 226.563C155.241 226.834 155.282 227.203 155.491 227.484C154.3 229.24 153.399 231.158 152.588 233.125C151.552 235.641 150.579 238.184 149.591 240.72C147.558 245.933 145.558 251.159 143.592 256.397C142.484 259.349 141.387 262.305 140.3 265.265C140.26 265.374 140.263 265.487 140.292 265.595C140.084 265.758 139.97 266.013 140.047 266.295C140.137 266.62 140.533 266.894 140.874 266.765C146.268 264.721 149.997 260.085 152.908 255.296C156.375 249.591 159.206 243.487 161.872 237.376C163.415 233.84 164.892 230.276 166.37 226.712C166.607 226.145 165.847 225.691 165.383 225.956Z" fill="#4B4466"/>
<path d="M271.195 123.528C271.151 123.453 271.084 123.382 271.008 123.325C270.928 123.144 270.766 123.003 270.566 122.922C268.26 121.987 265.961 121.028 263.626 120.167C261.304 119.31 258.936 118.598 256.546 117.96C251.71 116.67 246.839 115.523 242.015 114.185C237.156 112.838 232.322 111.402 227.498 109.938C225.096 109.21 222.697 108.474 220.298 107.737C218.014 107.036 215.726 106.334 213.517 105.423C211.459 104.574 209.56 103.446 207.644 102.323C205.783 101.234 203.855 100.171 201.753 99.6282C201.223 99.4917 200.688 99.4 200.145 99.3281C199.886 99.2936 199.653 99.488 199.542 99.7214C199.832 98.9942 198.743 98.3881 198.347 99.1241C195.826 103.808 193.306 108.492 190.785 113.177C188.265 117.861 185.744 122.545 183.225 127.229C181.805 129.866 180.386 132.504 178.967 135.141C178.597 135.828 179.503 136.445 179.986 136C180.076 136.056 180.182 136.094 180.309 136.102C181.913 136.201 183.526 136.255 185.125 136.409C186.313 136.524 187.756 136.929 188.081 138.242C188.249 138.915 188.24 139.676 188.187 140.364C188.14 140.977 187.985 141.59 187.651 142.112C187.028 143.09 185.859 143.549 184.793 143.852C183.168 144.314 181.452 144.651 179.76 144.689C179.471 144.696 179.28 144.852 179.184 145.056C177.307 144.926 175.485 145.945 174.244 147.335C172.67 149.096 171.923 151.385 170.808 153.428C170.638 153.74 170.723 154.169 171.05 154.348C175.127 156.582 179.307 158.62 183.543 160.533C187.817 162.463 192.144 164.269 196.488 166.036C200.908 167.835 205.341 169.604 209.768 171.383C214.314 173.209 218.86 175.036 223.406 176.863C227.931 178.681 232.456 180.499 236.981 182.317C237.544 182.543 238.107 182.77 238.67 182.996C239.007 183.132 239.409 182.849 239.497 182.527C239.501 182.513 239.501 182.499 239.504 182.486C239.571 182.454 239.633 182.411 239.682 182.352C241.387 180.286 243.356 178.465 245.532 176.929C245.658 176.976 245.8 176.989 245.949 176.957C247.19 176.695 248.391 176.225 249.488 175.587C249.541 175.556 249.586 175.515 249.628 175.471C249.92 175.603 250.345 175.515 250.491 175.205C253.493 168.825 256.355 162.379 259.075 155.874C261.781 149.402 264.346 142.871 266.764 136.287C268.033 132.833 269.26 129.364 270.449 125.881C270.598 125.783 270.69 125.654 270.75 125.486C270.921 125.006 271.092 124.526 271.263 124.046C271.318 123.889 271.276 123.668 271.195 123.528Z" fill="#FFEEEE"/>
<path d="M261.803 148.896C260.943 147.95 260.548 146.673 259.985 145.548C259.346 144.274 258.42 143.174 256.991 142.796C256.146 142.573 255.258 142.598 254.395 142.649C253.432 142.707 252.471 142.782 251.51 142.873C249.575 143.054 247.643 143.3 245.723 143.608C244.082 143.87 242.343 144.057 240.805 144.721C239.636 145.226 238.429 146.177 238.434 147.57C238.436 148.368 238.87 148.998 239.242 149.667C239.404 149.959 239.512 150.237 239.495 150.578C239.477 150.949 239.344 151.312 239.252 151.67C239.046 152.464 239 153.25 239.415 153.987C239.732 154.548 240.224 154.978 240.629 155.471C240.743 155.609 240.892 155.844 240.929 155.978C240.949 156.055 240.951 156.136 240.948 156.154C240.926 156.286 240.89 156.345 240.804 156.425C240.372 156.829 239.721 156.575 239.288 156.254C238.682 155.806 238.172 155.166 237.742 154.553C237.288 153.904 236.892 153.205 236.591 152.472C236.28 151.715 236.064 150.921 235.926 150.115C235.78 149.258 235.598 148.438 234.964 147.798C233.806 146.627 231.935 146.592 230.733 147.708C230.125 148.273 229.805 149.047 229.769 149.869C229.731 150.723 229.986 151.563 229.865 152.418C229.643 153.985 228.76 155.43 228.837 157.046C228.878 157.886 229.193 158.609 229.645 159.306C230.057 159.942 230.508 160.54 230.454 161.337C230.397 162.183 229.953 162.964 229.73 163.772C229.542 164.457 229.479 165.22 229.662 165.914C229.862 166.671 230.383 167.261 231.121 167.53C231.802 167.778 232.55 167.696 233.182 168.089C233.773 168.457 234.217 169.032 234.691 169.532C235.233 170.103 235.845 170.595 236.542 170.964C237.974 171.721 239.575 172.02 241.129 172.422C242.418 172.755 243.764 173.222 244.761 174.142C245.225 174.569 245.583 175.076 245.771 175.68C246.028 176.504 247.327 176.152 247.068 175.323C246.137 172.334 242.854 171.463 240.164 170.799C238.737 170.446 237.217 170.05 236.1 169.036C235.004 168.041 234.196 166.741 232.628 166.466C232.012 166.359 231.262 166.372 231.003 165.716C230.818 165.249 230.889 164.633 231.026 164.131C231.262 163.268 231.666 162.471 231.774 161.573C231.875 160.733 231.638 159.964 231.205 159.249C230.822 158.616 230.312 158.026 230.2 157.271C230.101 156.602 230.28 155.921 230.467 155.284C230.692 154.52 230.975 153.771 231.124 152.988C231.287 152.131 231.202 151.347 231.131 150.488C231.071 149.762 231.158 149.082 231.753 148.597C232.201 148.233 232.781 148.126 233.326 148.314C233.999 148.548 234.352 149.094 234.502 149.764C234.677 150.549 234.777 151.332 235.027 152.099C235.535 153.658 236.358 155.098 237.44 156.329C238.415 157.437 240.027 158.619 241.49 157.589C242.102 157.158 242.414 156.429 242.241 155.689C242.1 155.08 241.66 154.598 241.25 154.15C240.895 153.762 240.47 153.363 240.43 152.848C240.402 152.499 240.515 152.15 240.605 151.818C240.714 151.412 240.821 151.001 240.84 150.579C240.877 149.76 240.46 149.105 240.071 148.424C239.931 148.178 239.795 147.889 239.78 147.649C239.765 147.409 239.812 147.235 239.916 147.049C240.435 146.128 241.811 145.697 242.844 145.485C246.518 144.732 250.259 144.262 254 144.019C254.793 143.968 255.626 143.881 256.41 144.042C257.08 144.179 257.612 144.49 258.056 144.998C258.85 145.908 259.225 147.181 259.773 148.253C260.067 148.827 260.416 149.369 260.851 149.848C261.435 150.488 262.384 149.535 261.803 148.896Z" fill="#78C1D8"/>
<path d="M229.006 111.669C226.018 113.454 223.572 116.156 222.134 119.329C221.735 120.209 221.429 121.117 221.134 122.036C220.853 122.917 220.56 123.793 220.084 124.592C219.29 125.925 218.08 126.928 216.762 127.719C213.957 129.402 210.728 130.186 207.907 131.837C206.512 132.654 205.219 133.663 204.246 134.963C203.78 135.585 203.417 136.271 203.155 137.001C202.827 137.914 202.768 138.89 202.493 139.817C202.292 140.491 201.824 141.358 201.037 141.453C200.53 141.515 200.01 141.221 199.499 141.204C199.093 141.191 198.699 141.3 198.339 141.479C197.702 141.795 197.229 142.374 196.777 142.906C196.551 143.173 196.322 143.439 196.068 143.681C195.991 143.694 195.914 143.708 195.838 143.732C195.437 143.857 195.09 144.127 194.905 144.507C194.671 144.989 195.066 145.706 195.664 145.495C195.993 145.379 196.289 145.213 196.562 145.014C196.781 145.051 197.027 145.167 197.194 145.318C197.804 145.865 198.196 146.604 198.923 147.025C200.675 148.039 202.661 146.732 204.13 145.794C204.905 145.298 205.674 144.755 206.31 144.084C206.878 143.485 207.28 142.798 207.652 142.067C207.931 141.519 208.235 140.847 208.717 140.491C209.272 140.081 209.956 140.254 210.443 140.72C211.057 141.305 211.223 142.145 211.25 142.964C211.283 144.014 211.173 145.072 211.144 146.122C211.087 148.253 211.143 150.384 211.299 152.51C211.331 152.95 211.385 153.412 211.275 153.844C211.167 154.263 210.853 154.554 210.539 154.832C209.921 155.379 209.373 155.926 208.882 156.593C207.989 157.811 207.341 159.239 206.214 160.27C205.52 160.905 204.661 161.21 203.749 161.381C202.604 161.596 201.43 161.681 200.274 161.816C197.838 162.1 195.403 162.384 192.968 162.668C192.607 162.71 192.295 162.947 192.295 163.341C192.295 163.671 192.604 164.055 192.968 164.013L199.875 163.208C200.994 163.077 202.115 162.96 203.231 162.812C204.265 162.675 205.304 162.471 206.215 161.934C207.691 161.064 208.549 159.537 209.451 158.142C209.885 157.471 210.343 156.817 210.931 156.271C211.657 155.598 212.44 155.02 212.617 153.976C212.708 153.443 212.672 152.914 212.633 152.377C212.591 151.802 212.556 151.226 212.53 150.649C212.478 149.496 212.457 148.341 212.468 147.188C212.479 146.059 212.543 144.934 212.586 143.806C212.625 142.754 212.57 141.664 212.09 140.706C211.686 139.897 210.898 139.19 210.007 138.978C209.119 138.767 208.225 139.059 207.588 139.699C207.023 140.267 206.687 141.011 206.324 141.712C205.916 142.5 205.411 143.148 204.729 143.721C204.023 144.314 203.216 144.797 202.424 145.263C201.717 145.68 200.779 146.224 199.926 145.998C199.131 145.787 198.711 144.892 198.144 144.367C197.987 144.221 197.807 144.093 197.614 143.984C197.949 143.587 198.275 143.173 198.68 142.848C198.784 142.764 199.049 142.619 199.178 142.583C199.449 142.509 199.84 142.618 200.215 142.705C201.169 142.925 202.058 142.676 202.758 141.987C204.124 140.643 203.86 138.633 204.596 136.995C205.21 135.628 206.296 134.534 207.511 133.683C210.2 131.803 213.408 130.981 216.305 129.505C217.743 128.773 219.141 127.865 220.222 126.652C220.804 126 221.297 125.271 221.659 124.475C222.067 123.578 222.347 122.636 222.652 121.702C223.862 118.004 226.336 114.83 229.684 112.83C230.427 112.386 229.751 111.223 229.006 111.669Z" fill="#78C1D8"/>
<path d="M206.198 101.667C205.922 101.391 205.527 101.434 205.247 101.667C203.682 102.971 203.346 105.093 203.044 106.989C202.676 109.296 202.136 111.571 201.419 113.794C200.705 116.007 199.818 118.16 198.762 120.233C198.316 121.109 197.863 122.035 197.136 122.716C196.356 123.446 195.368 123.476 194.369 123.262C193.721 123.123 193.084 122.929 192.436 122.791C191.751 122.645 191.057 122.539 190.361 122.466C188.959 122.318 187.545 122.338 186.146 122.512C185.785 122.556 185.474 122.788 185.474 123.184C185.474 123.513 185.783 123.902 186.146 123.856C187.396 123.7 188.658 123.667 189.914 123.769C191.15 123.868 192.333 124.146 193.532 124.445C194.727 124.743 195.955 124.903 197.105 124.358C198.043 123.913 198.722 123.038 199.244 122.168C200.443 120.17 201.363 117.952 202.16 115.768C202.984 113.511 203.628 111.188 204.081 108.828C204.307 107.658 204.436 106.465 204.72 105.306C204.972 104.279 205.367 103.31 206.197 102.618C206.477 102.386 206.438 101.908 206.198 101.667Z" fill="#78C1D8"/>
<path d="M216.389 116.276C214.677 114.715 211.961 114.514 210.093 115.915C209.14 116.631 208.435 117.633 208.091 118.777C207.698 120.084 207.902 121.445 208.303 122.723C209.31 125.933 210.755 129.017 212.127 132.082C212.276 132.414 212.758 132.493 213.048 132.324C213.076 132.307 213.1 132.287 213.124 132.268C213.326 132.242 213.516 132.137 213.606 131.95C214.888 129.255 216.173 126.525 217.215 123.728C218.11 121.329 218.49 118.192 216.389 116.276ZM214.347 120.788C214.222 121.399 213.671 121.878 213.03 121.878C212.668 121.878 212.329 121.89 211.993 121.694C211.411 121.354 211.135 120.638 211.292 119.993C211.294 119.988 211.296 119.982 211.298 119.977C211.311 119.882 211.328 119.768 211.334 119.74C211.391 119.498 211.452 119.441 211.579 119.277C211.588 119.264 211.599 119.255 211.609 119.243C211.645 119.196 211.682 119.15 211.722 119.106C211.905 118.907 212.197 118.774 212.477 118.73C212.617 118.673 212.725 118.64 212.932 118.647C213.322 118.66 213.657 118.803 213.916 119.061C213.979 119.103 214.041 119.151 214.109 119.219C214.357 119.466 214.506 119.825 214.506 120.173C214.505 120.395 214.446 120.602 214.347 120.788Z" fill="#A64E1B"/>
<path d="M250.733 127.605C249.021 126.044 246.305 125.842 244.437 127.244C243.484 127.959 242.779 128.962 242.435 130.106C242.042 131.412 242.246 132.773 242.647 134.052C243.654 137.262 245.1 140.345 246.472 143.411C246.62 143.743 247.102 143.821 247.392 143.653C247.421 143.636 247.444 143.616 247.468 143.597C247.67 143.57 247.861 143.465 247.95 143.278C249.232 140.584 250.517 137.854 251.56 135.056C252.454 132.658 252.834 129.521 250.733 127.605ZM248.69 132.117C248.565 132.729 248.014 133.207 247.373 133.207C247.011 133.207 246.672 133.219 246.337 133.023C245.755 132.683 245.479 131.966 245.636 131.322C245.638 131.316 245.64 131.311 245.642 131.305C245.654 131.211 245.671 131.097 245.678 131.069C245.734 130.826 245.795 130.769 245.922 130.605C245.932 130.593 245.944 130.584 245.953 130.572C245.988 130.524 246.026 130.478 246.065 130.435C246.249 130.235 246.541 130.103 246.82 130.059C246.961 130.001 247.069 129.968 247.275 129.976C247.666 129.989 248 130.131 248.26 130.39C248.322 130.431 248.385 130.48 248.453 130.548C248.7 130.795 248.849 131.154 248.849 131.503C248.849 131.724 248.79 131.931 248.69 132.117Z" fill="#A64E1B"/>
<path d="M244.174 141.438C242.462 139.877 239.746 139.675 237.878 141.077C236.925 141.792 236.219 142.795 235.876 143.939C235.483 145.246 235.687 146.606 236.088 147.885C237.094 151.095 238.54 154.179 239.912 157.244C240.06 157.576 240.542 157.654 240.832 157.486C240.861 157.469 240.884 157.449 240.909 157.43C241.11 157.404 241.301 157.299 241.391 157.111C242.673 154.417 243.957 151.687 245 148.89C245.895 146.49 246.275 143.354 244.174 141.438ZM242.132 145.95C242.007 146.561 241.456 147.04 240.815 147.04C240.453 147.04 240.114 147.052 239.779 146.856C239.197 146.516 238.921 145.8 239.078 145.155C239.079 145.149 239.081 145.144 239.084 145.138C239.096 145.044 239.113 144.93 239.12 144.902C239.176 144.66 239.237 144.603 239.364 144.438C239.374 144.426 239.385 144.416 239.395 144.405C239.43 144.358 239.467 144.311 239.507 144.268C239.691 144.069 239.983 143.936 240.262 143.892C240.402 143.835 240.511 143.801 240.717 143.809C241.107 143.823 241.442 143.964 241.702 144.223C241.764 144.265 241.827 144.313 241.895 144.381C242.142 144.628 242.292 144.987 242.291 145.336C242.29 145.557 242.232 145.764 242.132 145.95Z" fill="#A64E1B"/>
<path d="M172.94 287.181C171.663 275.966 170.412 264.748 169.189 253.527C168.497 247.172 167.812 240.816 167.136 234.46C167.098 234.099 166.854 233.788 166.464 233.788C166.13 233.788 165.753 234.096 165.792 234.46C166.991 245.741 168.217 257.02 169.47 268.296C170.717 279.514 171.991 290.729 173.291 301.941C174.028 308.292 174.773 314.64 175.526 320.988C175.569 321.348 175.804 321.66 176.198 321.66C176.528 321.66 176.914 321.351 176.87 320.988C175.533 309.722 174.223 298.453 172.94 287.181Z" fill="#32767C"/>
<path d="M166.706 289.127C165.751 278.322 164.992 267.5 164.428 256.668C164.11 250.565 163.857 244.458 163.663 238.349C163.636 237.486 162.291 237.482 162.318 238.349C162.663 249.246 163.203 260.136 163.944 271.013C164.681 281.834 165.613 292.643 166.741 303.431C167.376 309.51 168.075 315.582 168.834 321.646C168.879 322.006 169.111 322.318 169.507 322.318C169.835 322.318 170.224 322.008 170.179 321.646C168.826 310.827 167.666 299.986 166.706 289.127Z" fill="#32767C"/>
<path d="M151.036 297.034C150.821 289.094 150.739 281.15 150.787 273.207C150.814 268.745 150.884 264.282 150.994 259.821C151.015 258.955 149.671 258.956 149.649 259.821C149.451 267.807 149.386 275.795 149.454 283.783C149.523 291.726 149.723 299.667 150.055 307.603C150.241 312.062 150.47 316.519 150.739 320.973C150.791 321.833 152.136 321.838 152.084 320.973C151.603 313 151.253 305.019 151.036 297.034Z" fill="#32767C"/>
<path d="M123.667 286.035C123.565 282.785 123.419 279.536 123.234 276.29C123.185 275.43 121.84 275.424 121.889 276.29C122.218 282.049 122.417 287.816 122.485 293.584C122.551 299.353 122.487 305.122 122.291 310.888C122.181 314.137 122.028 317.386 121.834 320.632C121.783 321.497 123.128 321.494 123.179 320.632C123.522 314.873 123.736 309.107 123.817 303.34C123.899 297.571 123.849 291.801 123.667 286.035Z" fill="#32767C"/>
<path d="M130.519 302.766L130.066 284.907C129.981 281.55 129.896 278.193 129.811 274.836C129.789 273.972 128.444 273.968 128.466 274.836C128.617 280.789 128.767 286.742 128.918 292.695C129.07 298.648 129.22 304.601 129.371 310.554C129.456 313.911 129.541 317.268 129.626 320.626C129.648 321.489 130.993 321.493 130.971 320.626C130.82 314.672 130.669 308.719 130.519 302.766Z" fill="#32767C"/>
<path d="M67.829 276.319C67.4408 276.319 67.1862 276.628 67.1569 276.991C66.7049 282.579 66.214 288.163 65.6834 293.743C65.1529 299.323 64.5842 304.901 63.9759 310.473C63.6318 313.625 63.2752 316.777 62.9061 319.927C62.8635 320.288 63.2451 320.599 63.5782 320.599C63.9767 320.599 64.2086 320.289 64.2504 319.927C64.9027 314.359 65.5161 308.788 66.0907 303.211C66.6652 297.634 67.2002 292.055 67.6969 286.47C67.978 283.312 68.2458 280.151 68.5019 276.991C68.5312 276.628 68.1717 276.319 67.829 276.319Z" fill="#32767C"/>
<path d="M91.9325 283.07C91.8767 288.039 91.8202 293.009 91.7644 297.978C91.7079 302.97 91.6514 307.962 91.5957 312.954C91.5641 315.752 91.5326 318.55 91.501 321.348C91.4915 322.214 92.8358 322.215 92.846 321.348C92.9018 316.379 92.9583 311.409 93.0141 306.44C93.0706 301.448 93.1271 296.456 93.1828 291.465C93.2144 288.667 93.2459 285.869 93.2775 283.07C93.287 282.205 91.9428 282.204 91.9325 283.07Z" fill="#32767C"/>
<path d="M98.6717 284.144C98.6651 283.279 97.3201 283.277 97.3267 284.144C97.3641 288.986 97.3465 293.829 97.2746 298.67C97.202 303.513 97.0743 308.353 96.8916 313.193C96.7889 315.913 96.6685 318.633 96.5313 321.352C96.488 322.217 97.8323 322.215 97.8763 321.352C98.1207 316.516 98.3107 311.677 98.445 306.837C98.5793 301.996 98.6592 297.154 98.6835 292.311C98.6967 289.588 98.6923 286.866 98.6717 284.144Z" fill="#32767C"/>
<path d="M91.3135 133.777C89.9993 133.479 88.6851 133.183 87.3702 132.886C86.9526 132.583 86.4911 132.339 86.0039 132.17C86.1499 131.724 85.8182 131.151 85.2158 131.302C81.7172 132.18 78.3697 133.613 75.3208 135.541C75.1242 135.665 75.0317 135.841 75.0126 136.022C72.7651 137.661 70.9666 139.744 69.6928 142.275C67.9963 145.645 67.0526 149.333 66.2396 152.999C65.387 156.842 64.6473 160.711 64.0008 164.595C62.7079 172.362 61.7863 180.187 61.0892 188.028C60.3899 195.895 59.9159 203.778 59.5123 211.664C59.3128 215.569 59.1256 219.474 58.9473 223.38C58.769 227.287 58.6369 231.219 59.1051 235.112C59.2218 236.083 59.3722 237.048 59.5622 238.007C59.6694 238.546 60.2314 238.596 60.5844 238.344C61.0056 238.57 61.44 238.774 61.8832 238.964C63.6457 240.513 65.7648 241.641 68.0396 242.23C68.3279 242.483 68.8401 242.449 69.0654 242.127C69.2686 241.92 69.3471 241.601 69.1769 241.333C69.152 233.727 69.2884 226.121 69.5922 218.522C69.9004 210.82 70.3781 203.125 71.0253 195.444C71.6754 187.727 72.4958 180.025 73.4871 172.345C74.4542 164.85 75.4617 157.298 77.5831 150.025C79.3236 144.06 82.4561 137.424 88.9199 135.507C89.6441 135.292 90.3823 135.153 91.1352 135.097C91.8491 135.045 92.0964 133.953 91.3135 133.777Z" fill="#4A9EA0"/>
<path d="M84.0624 131.206L98.5515 116.002L79.3618 128.766L84.0624 131.206Z" fill="#1D1D1B"/>
<path d="M108.747 140.15L144.879 111.709L109.82 145.337L108.747 140.15Z" fill="#1D1D1B"/>
<path d="M169.348 150.806C167.202 146.537 165.192 142.198 163.335 137.796C162.817 136.568 162.312 135.336 161.818 134.099C161.683 133.762 161.368 133.525 160.991 133.629C160.671 133.717 160.385 134.117 160.521 134.456C162.326 138.967 164.276 143.419 166.377 147.8C166.969 149.034 167.573 150.262 168.187 151.484C168.576 152.258 169.736 151.578 169.348 150.806Z" fill="#1D1D1B"/>
<path d="M191.455 191.227C191.133 191.138 190.689 191.336 190.628 191.697C189.827 196.507 188.198 201.156 185.865 205.437C183.53 209.723 180.521 213.626 176.98 216.985C173.433 220.351 169.356 223.15 164.918 225.207C163.829 225.711 162.72 226.166 161.591 226.572C160.952 226.803 160.304 227.048 159.64 227.196C159.018 227.335 158.404 227.299 157.914 226.857C157.432 226.422 157.106 225.85 156.762 225.307C156.306 224.589 155.85 223.871 155.395 223.152C154.496 221.734 153.596 220.316 152.697 218.898C150.903 216.07 149.106 213.242 147.316 210.412C146.544 209.192 145.648 207.698 145.427 206.202C151.388 204.771 157.107 202.336 162.3 199.079C167.478 195.831 172.16 191.772 176.075 187.076C178.282 184.429 180.254 181.59 181.941 178.585C182.365 177.829 181.203 177.15 180.78 177.906C177.839 183.145 174.034 187.863 169.582 191.894C165.133 195.922 160.042 199.238 154.563 201.685C152.911 202.424 151.22 203.074 149.5 203.642C149.502 203.535 149.48 203.423 149.419 203.309C145.986 196.843 142.625 190.338 139.337 183.797C136.049 177.257 132.833 170.68 129.691 164.067C127.923 160.345 126.178 156.612 124.456 152.869C124.304 152.539 123.828 152.457 123.536 152.627C123.197 152.825 123.142 153.216 123.294 153.548C126.353 160.198 129.486 166.816 132.692 173.397C133.294 174.633 133.901 175.867 134.508 177.1C130.507 173.629 126.64 170.003 122.924 166.228C121.664 164.947 120.421 163.649 119.195 162.335C118.604 161.701 117.654 162.654 118.244 163.286C122.586 167.938 127.146 172.387 131.907 176.609C133.252 177.801 134.613 178.974 135.988 180.131C135.998 180.139 136.009 180.145 136.019 180.153C138.159 184.462 140.327 188.756 142.529 193.033C143.946 195.783 145.379 198.524 146.821 201.261C146.718 201.267 146.613 201.291 146.512 201.334C145.348 201.826 144.569 202.945 144.237 204.135C143.858 205.492 144.064 206.906 144.586 208.196C145.19 209.687 146.11 211.021 146.967 212.374C147.902 213.849 148.838 215.323 149.772 216.798C151.643 219.747 153.513 222.696 155.383 225.646C155.386 225.65 155.388 225.654 155.391 225.659C155.252 225.747 155.142 225.886 155.081 226.053C153.211 231.209 151.28 236.344 149.289 241.455C147.306 246.545 145.262 251.612 143.159 256.655C142.191 258.974 141.208 261.287 140.214 263.596C138.446 256.146 136.664 248.699 134.861 241.257C132.887 233.104 130.892 224.955 128.877 216.812C126.852 208.628 124.806 200.449 122.741 192.276C120.685 184.142 118.609 176.014 116.512 167.891C114.405 159.728 112.277 151.571 110.129 143.418C109.871 142.439 109.613 141.459 109.354 140.479C114.18 136.838 118.989 133.173 123.778 129.484C128.737 125.663 133.678 121.817 138.597 117.945C141.355 115.773 144.107 113.594 146.853 111.407C147.123 111.192 147.091 110.743 146.884 110.496C147.052 110.206 147.028 109.819 146.647 109.619C142.388 107.388 137.69 106.078 132.896 105.775C132.738 105.541 132.431 105.384 132.157 105.487C129.436 106.51 126.983 108.061 124.646 109.77C122.179 111.573 119.776 113.466 117.35 115.323C112.247 119.227 107.145 123.132 102.043 127.037L93.4559 133.608C93.3898 133.659 93.3319 133.717 93.282 133.781C91.9135 133.237 90.5464 132.689 89.1779 132.153C86.4622 131.087 83.7142 130.07 80.9207 129.22C85.4878 125.508 90.2155 121.997 95.0922 118.702C96.534 117.727 97.9891 116.773 99.4552 115.836C100.182 115.371 99.5088 114.207 98.7765 114.675C93.5234 118.031 88.4295 121.63 83.5058 125.454C82.1146 126.535 80.738 127.633 79.3754 128.75C79.3695 128.755 79.3659 128.762 79.36 128.767C76.3486 127.927 73.2836 127.303 70.1482 127.046C66.5057 126.748 62.8089 126.99 59.2802 127.974C58.4481 128.206 58.801 129.504 59.6376 129.271C65.8783 127.531 72.4618 128.276 78.6306 129.949C80.0101 130.323 81.372 130.748 82.7236 131.203C76.7881 131.754 71.8146 136.104 69.0394 141.213C67.3121 144.394 66.2628 147.891 65.5151 151.417C64.7292 155.123 64.1987 158.887 63.6454 162.633C62.4685 170.598 61.4815 178.59 60.6869 186.601C60.5592 187.891 60.4381 189.181 60.32 190.472C57.649 189.083 54.846 187.952 51.9578 187.102C51.9571 187.101 51.9571 187.099 51.9564 187.098C50.1249 183.4 48.1246 179.787 45.9614 176.273C45.5087 175.537 44.3449 176.212 44.8006 176.952C46.8963 180.358 48.8386 183.855 50.6231 187.433C50.5409 187.755 50.662 188.127 51.0722 188.243C54.1584 189.111 57.139 190.3 59.9722 191.802C60.0477 191.843 60.1218 191.863 60.1945 191.875C59.6398 198.145 59.201 204.425 58.8825 210.712C58.4745 218.763 58.261 226.822 58.2419 234.883C58.2404 235.632 58.2419 236.381 58.2434 237.13C57.6336 237.134 57.2315 238.029 57.8882 238.37C61.403 240.198 64.975 241.913 68.5992 243.512C68.8376 243.616 69.1047 243.619 69.3102 243.487C69.713 243.691 70.3184 243.503 70.3052 242.919C70.1496 236.103 70.157 229.285 70.3287 222.47C70.3705 222.511 70.4182 222.548 70.4769 222.581C74.6205 224.854 79.0393 226.634 83.6064 227.851C84.5133 228.092 85.4261 228.31 86.3434 228.507C85.3652 235.732 83.8324 242.885 81.7683 249.878C81.2326 251.692 80.6588 253.495 80.052 255.287C75.5334 253.525 71.014 251.763 66.4954 250.001C61.8007 248.17 57.106 246.339 52.4106 244.509C49.7602 243.476 47.1105 242.442 44.4609 241.409C44.1226 241.276 43.7227 241.554 43.6339 241.878C43.5297 242.259 43.7638 242.573 44.1035 242.705C48.8195 244.544 53.5347 246.383 58.2507 248.222C62.9454 250.052 67.6409 251.883 72.3356 253.714C74.9852 254.747 77.6356 255.781 80.2853 256.814C80.639 256.952 81.0044 256.659 81.1123 256.345C83.602 249.106 85.5179 241.673 86.8306 234.131C87.0471 232.886 87.2444 231.638 87.4286 230.388C87.309 236.82 87.1894 243.252 87.0698 249.684C86.9296 257.213 86.7902 264.74 86.6501 272.269C86.5708 276.526 86.4916 280.783 86.4131 285.04C86.3991 285.774 87.3604 285.883 87.6642 285.373C87.7368 285.379 87.8102 285.373 87.8821 285.349C90.1913 284.552 92.2877 283.273 94.5653 282.403C94.9696 282.249 95.3784 282.116 95.7893 281.999L95.7768 282.088L98.1917 290.405L132.295 272.226C132.45 272.163 132.605 272.103 132.76 272.04C135.112 271.085 137.45 270.098 139.776 269.08C139.792 269.073 139.806 269.061 139.821 269.052C139.939 269.027 140.053 268.97 140.148 268.877C140.285 268.739 140.402 268.584 140.507 268.421C140.6 268.411 140.694 268.387 140.782 268.344C143.558 267 145.892 264.908 147.88 262.576C149.968 260.126 151.759 257.422 153.487 254.711C157.15 248.966 160.353 242.927 163.059 236.674C164.58 233.159 165.95 229.579 167.156 225.944C167.2 225.814 167.2 225.697 167.175 225.593C170.315 223.977 173.261 221.993 175.962 219.705C179.867 216.395 183.239 212.44 185.901 208.069C188.56 203.704 190.524 198.891 191.581 193.887C191.709 193.279 191.824 192.669 191.926 192.056C191.985 191.697 191.831 191.33 191.455 191.227ZM146.052 203.386C146.341 202.976 146.733 202.688 147.192 202.494C147.273 202.46 147.339 202.404 147.389 202.336C147.68 202.886 147.967 203.437 148.259 203.987C148.267 204.002 148.277 204.013 148.286 204.027C147.346 204.313 146.398 204.571 145.444 204.808C145.536 204.322 145.728 203.844 146.052 203.386ZM120.682 189.614C122.753 197.786 124.804 205.963 126.834 214.146C128.854 222.288 130.854 230.436 132.833 238.588C134.823 246.78 136.791 254.978 138.739 263.18C138.912 263.908 139.084 264.635 139.257 265.362C135.914 262.554 132.288 260.086 128.433 258.036C127.392 257.482 126.332 256.964 125.261 256.471L120.416 215.264C118.793 201.463 117.17 187.662 115.548 173.862C115.25 171.331 114.996 168.77 114.691 166.213C116.706 174.008 118.704 181.809 120.682 189.614ZM111.496 158.905C111.448 157.509 111.364 156.082 111.198 154.662C112.777 160.225 113.284 166.055 113.958 171.781C114.765 178.647 115.572 185.512 116.38 192.378C117.994 206.109 119.609 219.841 121.223 233.572C122.126 241.247 123.029 248.922 123.931 256.597C119.326 262.374 114.705 268.14 110.116 273.93C109.906 274.195 109.698 274.464 109.493 274.734C110.255 258.635 110.719 242.521 111.005 226.406C111.317 208.81 111.426 191.211 111.502 173.613C111.522 168.715 111.663 163.799 111.496 158.905ZM109.336 123.137C114.342 119.306 119.321 115.435 124.36 111.647C126.732 109.864 129.206 108.133 131.964 107C132.049 107.047 132.149 107.077 132.265 107.083C136.928 107.29 141.525 108.509 145.681 110.633C140.903 114.439 136.105 118.221 131.289 121.977C126.407 125.784 121.506 129.565 116.585 133.32C114.01 135.285 111.43 137.241 108.845 139.191C108.734 139.053 108.623 138.914 108.512 138.776C108.451 138.711 108.379 138.664 108.296 138.637C108.216 138.595 108.129 138.576 108.037 138.579C107.97 138.577 107.908 138.59 107.847 138.612C107.845 138.611 107.844 138.61 107.842 138.609C103.326 137.614 98.9922 136.026 94.6967 134.34C99.5763 130.605 104.456 126.871 109.336 123.137ZM93.1836 135.18C94.4597 135.687 95.7364 136.189 97.0198 136.672C100.438 137.959 103.912 139.119 107.483 139.906C107.565 139.924 107.641 139.924 107.713 139.917C107.782 140.003 107.851 140.089 107.919 140.175C107.905 140.302 107.93 140.435 108.005 140.564C108.009 140.57 108.014 140.574 108.017 140.58C108.017 140.639 108.023 140.7 108.04 140.764C108.983 144.336 109.92 147.908 110.856 151.481C110.791 151.501 110.73 151.529 110.674 151.564C110.215 149.537 109.506 147.584 108.393 145.824C108.301 145.679 108.181 145.591 108.053 145.546C107.973 145.465 107.877 145.398 107.767 145.379C107.231 145.284 106.695 145.19 106.16 145.094C105.978 145.062 105.806 145.066 105.642 145.162C105.551 145.215 105.467 145.301 105.407 145.398C104.511 145.022 103.388 145.198 102.577 145.731C101.277 146.585 100.822 148.167 100.558 149.615C99.8977 153.24 99.3195 156.883 98.731 160.521C97.5511 167.813 96.4497 175.118 95.4283 182.433C94.8478 186.592 94.2924 190.754 93.7626 194.919C93.7538 194.99 93.7655 195.058 93.7861 195.123C93.6877 195.155 93.5938 195.206 93.5116 195.277C92.2114 196.424 90.9119 197.569 89.6116 198.715C88.9446 199.303 88.2783 199.891 87.6113 200.478C87.3112 200.742 87.0118 201.007 86.711 201.271C86.5041 201.453 86.3368 201.662 86.0491 201.581C85.6661 201.473 85.2933 201.276 84.9272 201.123C84.5148 200.95 84.1024 200.776 83.6908 200.604C82.8865 200.266 82.083 199.929 81.2788 199.592C79.6711 198.917 78.0634 198.243 76.4557 197.568C74.9221 196.924 73.3885 196.281 71.8557 195.637C71.8637 195.547 71.8703 195.459 71.8784 195.369C72.5821 187.493 73.5045 179.635 74.6506 171.811C75.2281 167.869 75.8606 163.934 76.5489 160.011C77.1381 156.65 77.6885 153.26 78.5778 149.962C79.3622 147.052 80.4504 144.15 82.2951 141.734C84.3255 139.074 87.1894 137.528 90.2903 136.423C91.1063 136.133 91.9303 135.865 92.7544 135.599C92.9884 135.523 93.1242 135.363 93.1836 135.18ZM69.2075 215.74C68.8758 223.807 68.7745 231.883 68.9044 239.956C68.9162 240.704 68.9323 241.452 68.9485 242.2C65.7873 240.799 62.6673 239.305 59.5899 237.729C59.5656 229.907 59.7205 222.083 60.0609 214.268C60.4058 206.355 60.9378 198.449 61.6569 190.561C62.3738 182.698 63.2742 174.851 64.3638 167.031C64.8973 163.205 65.4586 159.38 66.1014 155.57C66.6943 152.058 67.4134 148.542 68.685 145.205C70.857 139.505 75.2208 134.029 81.4762 132.732C82.1939 132.583 82.9174 132.508 83.6497 132.49C84.1053 132.478 84.3196 132.099 84.2939 131.746C86.7557 132.622 89.1875 133.587 91.617 134.557C88.5939 135.551 85.5692 136.68 83.1595 138.829C80.8606 140.879 79.3351 143.625 78.2696 146.483C77.1601 149.458 76.5416 152.585 75.9648 155.698C75.2266 159.685 74.5457 163.682 73.922 167.689C72.6878 175.622 71.6752 183.589 70.8893 191.579C70.766 192.83 70.6508 194.081 70.5385 195.332C70.3705 195.426 70.2333 195.586 70.1863 195.755C70.1049 196.052 70.2274 196.296 70.4395 196.457C69.8847 202.874 69.4716 209.304 69.2075 215.74ZM98.5351 280.077C97.2363 280.243 95.9536 280.489 94.715 280.919C93.5483 281.325 92.4271 281.852 91.3154 282.388C90.1531 282.948 88.993 283.513 87.7801 283.954C87.9144 276.742 88.0479 269.53 88.1822 262.318C88.3224 254.79 88.4625 247.262 88.6019 239.733C88.6533 236.965 88.7047 234.198 88.756 231.431C90.396 237.102 92.0602 242.767 93.8426 248.395C96.0703 255.431 98.4822 262.414 101.254 269.256C102.663 272.733 104.168 276.172 105.779 279.56C103.364 279.692 100.932 279.771 98.5351 280.077ZM108.037 276.996C107.768 277.527 107.541 278.079 107.387 278.666C107.296 279.017 107.47 279.282 107.72 279.412L107.266 279.574C104.155 273.103 101.463 266.439 99.045 259.68C96.57 252.762 94.376 245.747 92.284 238.705C91.1056 234.738 89.9594 230.761 88.814 226.784C88.6034 226.053 87.5071 226.2 87.4932 226.963C87.4925 226.99 87.4925 227.016 87.4917 227.043C87.3817 226.977 87.2584 226.936 87.1417 226.936C86.9142 226.936 86.7455 227.037 86.6325 227.189C82.5336 226.302 78.5264 224.981 74.7196 223.219C73.5118 222.66 72.3238 222.058 71.1564 221.417C70.8431 221.246 70.5444 221.344 70.3544 221.547C70.3764 220.739 70.3991 219.93 70.4263 219.121C70.6706 211.749 71.1094 204.384 71.7368 197.034C74.7167 198.284 77.6958 199.536 80.6749 200.786C81.5202 201.14 82.3656 201.495 83.2101 201.85C83.602 202.014 83.9931 202.179 84.3849 202.343C84.8134 202.523 85.2456 202.748 85.6925 202.879C86.6053 203.148 87.2232 202.611 87.8623 202.047C88.5293 201.46 89.1956 200.872 89.8626 200.285L94.4626 196.231C94.6497 196.066 94.6923 195.797 94.624 195.564C94.9065 195.481 95.0687 195.22 95.1069 194.92C96.0043 187.873 96.9751 180.835 98.02 173.807C99.0604 166.808 100.174 159.821 101.36 152.845C101.523 151.888 101.68 150.929 101.854 149.973C101.993 149.207 102.152 148.411 102.539 147.726C102.847 147.183 103.277 146.769 103.887 146.604C104.418 146.46 104.921 146.524 105.286 146.951C105.522 147.227 105.994 147.194 106.237 146.951C106.367 146.821 106.425 146.663 106.426 146.502C106.725 146.555 107.025 146.607 107.324 146.661C109.46 150.141 109.961 154.387 110.129 158.389C110.31 162.66 110.183 166.951 110.165 171.223C110.128 179.979 110.085 188.734 110.015 197.489C109.876 214.909 109.629 232.329 109.107 249.742C108.837 258.831 108.484 267.915 108.037 276.996ZM139.602 267.101C139.578 267.231 139.543 267.358 139.497 267.482C139.445 267.591 139.384 267.695 139.314 267.794C139.293 267.819 139.271 267.844 139.249 267.867C139.198 267.88 139.147 267.896 139.098 267.918C137.839 268.469 136.574 269.007 135.307 269.539L109.294 278.849C109.319 278.347 109.341 277.844 109.366 277.342C109.803 276.533 110.355 275.783 110.923 275.062C112.048 273.632 113.189 272.216 114.323 270.794C116.601 267.936 118.88 265.077 121.158 262.219C122.356 260.716 123.554 259.214 124.751 257.712C128.706 259.548 132.466 261.795 135.946 264.422C136.964 265.19 137.954 265.996 138.92 266.828C139.115 266.996 139.376 267.059 139.608 266.986C139.606 267.024 139.606 267.062 139.602 267.101ZM158.036 244.125C156.506 247.077 154.86 249.97 153.104 252.795C151.425 255.496 149.687 258.198 147.701 260.686C145.801 263.066 143.615 265.247 140.95 266.736C140.938 266.523 140.905 266.311 140.84 266.107C140.823 266.053 140.798 266.003 140.768 265.955C140.765 265.921 140.763 265.889 140.754 265.854C140.748 265.826 140.741 265.799 140.735 265.772C142.92 260.726 145.046 255.655 147.112 250.559C149.18 245.455 151.189 240.326 153.135 235.175C154.175 232.423 155.196 229.665 156.201 226.9C156.798 227.734 157.52 228.452 158.605 228.587C159.417 228.688 160.213 228.459 160.977 228.205C161.581 228.004 162.181 227.789 162.776 227.56C163.73 227.194 164.669 226.794 165.593 226.363C163.524 232.465 161.002 238.406 158.036 244.125Z" fill="#1D1D1B"/>
<path d="M174.214 233.163L174.035 243.18L163.303 235.13L166.344 225.829C166.344 225.829 170.458 231.017 174.214 233.163Z" fill="#1D1D1B"/>
<path d="M118.122 20.4514C117.958 20.1623 117.492 19.9935 117.202 20.21C113.024 23.3227 110.871 28.2361 109.733 33.1891C108.321 39.3278 108.1 45.7249 108.095 51.9994C108.09 58.6166 108.258 65.2368 108.357 71.8525C108.457 78.521 108.556 85.1896 108.657 91.8582L108.957 111.864C108.97 112.706 108.982 113.546 108.995 114.388C109.008 115.252 110.353 115.255 110.34 114.388C110.242 107.813 110.143 101.238 110.044 94.6627C109.946 88.088 109.847 81.5126 109.749 74.938C109.65 68.389 109.53 61.8401 109.459 55.2911C109.389 48.8567 109.452 42.3715 110.539 36.0126C111.366 31.1778 112.906 26.0626 116.513 22.5456C116.944 22.1259 117.399 21.7311 117.881 21.3716C118.174 21.1529 118.316 20.7919 118.122 20.4514Z" fill="#1D1D1B"/>
<path d="M124.862 21.6101C122.696 22.9668 121.195 25.0772 120.149 27.3746C118.97 29.9619 118.22 32.7459 117.553 35.5019C116.082 41.5725 115.323 47.7986 114.936 54.0261C114.543 60.3219 114.529 66.6324 114.541 72.9378C114.553 79.5674 114.569 86.1971 114.583 92.8268L114.625 112.684L114.63 115.189C114.632 116.054 115.976 116.055 115.975 115.189L115.934 95.5175C115.92 88.9913 115.907 82.4651 115.893 75.9389C115.879 69.6879 115.842 63.4324 116.115 57.1858C116.384 51.0345 116.956 44.8833 118.186 38.8436C118.777 35.9385 119.488 33.0328 120.456 30.2283C121.256 27.9096 122.334 25.571 124.137 23.8569C124.57 23.446 125.036 23.0872 125.542 22.7709C126.272 22.313 125.598 21.1493 124.862 21.6101Z" fill="#1D1D1B"/>
<path d="M159.825 46.5798L159.26 44.5956C159.152 44.2163 158.796 44.071 158.433 44.126C154.094 44.7835 149.761 45.4791 145.434 46.2099C145.065 43.7151 144.625 41.232 144.075 38.7709C142.843 33.2529 141.063 27.8391 138.498 22.7907C138.173 22.1509 137.836 21.5184 137.486 20.8924C137.065 20.1359 135.903 20.8139 136.325 21.5712C139.066 26.4934 140.993 31.8096 142.342 37.2718C143.088 40.295 143.658 43.3563 144.113 46.436C143.527 46.5357 142.941 46.6341 142.355 46.7353C141.997 46.7977 141.796 47.2365 141.885 47.5623C141.886 47.5652 141.887 47.5682 141.889 47.5711C141.475 48.467 141.171 49.4041 141.001 50.3793C140.9 50.9604 141.441 51.419 141.989 51.1387C142.822 50.7124 143.509 50.0645 144.178 49.4202C144.279 49.3226 144.381 49.2236 144.484 49.1252C144.688 50.7484 144.866 52.3751 145.021 54.0027C145.578 59.8597 145.874 65.7387 146.211 71.6111C146.584 78.1153 146.958 84.6195 147.331 91.1237C147.704 97.6279 148.078 104.132 148.451 110.636C148.497 111.43 148.542 112.224 148.588 113.018C148.637 113.878 149.982 113.884 149.933 113.018C149.558 106.483 149.183 99.9488 148.807 93.4138C148.43 86.8487 148.053 80.2836 147.676 73.7185C147.333 67.7338 147.041 61.7425 146.525 55.7689C146.305 53.216 146.035 50.6647 145.699 48.1229C145.885 48.0048 146.08 47.8998 146.286 47.814C147.246 47.4133 148.346 47.3708 149.367 47.2563C150.567 47.1213 151.768 46.9855 152.968 46.8505C153.873 46.7485 154.778 46.6465 155.682 46.5445C155.608 50.5921 155.535 54.6403 155.462 58.6878C155.45 59.3291 156.179 59.4972 156.609 59.1633C158.287 57.8594 158.408 55.3792 158.542 53.4399C158.628 52.1968 158.647 50.9487 158.598 49.7035C158.575 49.1348 158.499 48.561 158.516 47.9916C158.52 47.8323 158.536 47.6379 158.628 47.5029C158.672 47.4383 158.83 47.3378 158.835 47.3407C159.344 47.585 159.995 47.1778 159.825 46.5798Z" fill="#1D1D1B"/>
<path d="M276.742 123.304C276.838 123.033 276.783 122.709 276.467 122.515C271.747 119.631 266.705 117.28 261.463 115.513C256.078 113.698 250.529 112.386 245.05 110.888C239.64 109.409 234.246 107.864 228.904 106.156C223.596 104.459 218.337 102.599 213.18 100.486C210.6 99.4278 208.046 98.3029 205.528 97.1047C203.111 95.9549 200.703 94.5255 198.049 94.006C197.389 93.8768 196.719 93.8056 196.047 93.8049C195.685 93.8049 195.476 94.0397 195.417 94.3134C195.299 94.3677 195.198 94.455 195.14 94.5761C193.15 98.6874 191.146 102.791 189.126 106.887C187.106 110.983 185.069 115.072 183.018 119.152C181.863 121.45 180.702 123.745 179.537 126.038C179.496 126.12 179.475 126.2 179.465 126.279L173.751 136.139C173.606 136.388 173.64 136.628 173.763 136.812C173.687 137.193 173.895 137.629 174.394 137.606L181.833 137.262C183.072 137.205 184.312 137.147 185.551 137.09C185.982 137.07 186.565 136.98 186.944 137.242C187.281 137.476 187.445 137.931 187.547 138.311C188.055 140.214 186.849 142.015 185.193 142.856C184.256 143.332 183.225 143.442 182.191 143.513C180.966 143.598 179.764 143.769 178.567 144.044C175.845 144.672 173.149 145.438 170.445 146.142C169.609 146.36 169.963 147.658 170.802 147.439C173.382 146.767 175.954 146.056 178.545 145.43C179.817 145.123 181.076 144.937 182.381 144.844C183.583 144.758 184.737 144.581 185.826 144.04C187.819 143.05 189.244 140.925 188.969 138.65C188.832 137.515 188.335 136.291 187.182 135.877C186.623 135.676 186.001 135.724 185.419 135.751C184.755 135.781 184.091 135.812 183.427 135.843C180.704 135.969 177.981 136.095 175.258 136.222C177.116 133.016 178.974 129.811 180.832 126.605C180.898 126.491 180.923 126.379 180.924 126.273C182.917 122.349 184.896 118.417 186.86 114.478C188.898 110.391 190.92 106.296 192.927 102.193C194.057 99.8835 195.182 97.5706 196.303 95.2556C196.317 95.224 196.329 95.1917 196.34 95.1595C198.882 95.2512 201.192 96.4861 203.432 97.5824C205.923 98.8019 208.45 99.9459 211.004 101.025C216.121 103.188 221.341 105.097 226.619 106.829C231.901 108.563 237.237 110.123 242.593 111.608C248.024 113.113 253.515 114.436 258.9 116.099C264.164 117.725 269.234 119.88 274.013 122.625C274.542 122.929 275.065 123.241 275.586 123.557V123.558C272.932 130.127 270.236 136.679 267.497 143.213C264.779 149.693 262.018 156.155 259.216 162.599C257.671 166.149 256.114 169.694 254.544 173.233C254.041 173.431 253.537 173.627 253.035 173.828C251.361 174.494 249.686 175.159 248.019 175.843C246.466 176.479 244.912 177.153 243.53 178.117C240.647 180.126 238.628 183.048 236.679 185.914C236.191 186.631 237.355 187.305 237.84 186.592C239.424 184.263 241.038 181.901 243.198 180.06C245.538 178.065 248.535 177.068 251.348 175.941C252.522 175.471 253.697 175.005 254.873 174.54C255.121 174.578 255.402 174.492 255.534 174.277C257.26 173.596 258.989 172.918 260.72 172.247C262.296 171.637 263.874 171.03 265.454 170.428C265.82 170.289 266.184 170.139 266.555 170.013C266.599 169.997 266.645 169.981 266.693 169.966C266.696 169.972 266.701 169.976 266.703 169.982C266.916 170.365 267.319 170.38 267.61 170.203C267.92 170.587 268.109 171.16 268.225 171.588C268.594 172.945 268.358 174.425 267.536 175.571C266.764 176.646 265.486 177.39 264.168 177.512C263.939 177.533 263.731 177.642 263.609 177.816C263.189 177.791 262.74 178.122 262.9 178.642C263.325 180.02 263.767 181.394 264.197 182.773L261.365 184.153C261.048 184.307 260.937 184.783 261.124 185.073C261.334 185.398 261.705 185.479 262.044 185.314C262.894 184.9 263.746 184.485 264.596 184.07C264.813 184.787 265.025 185.504 265.225 186.225C265.57 187.471 265.717 188.686 265.667 189.979C265.615 191.331 265.514 192.683 265.435 194.034L265.168 198.564C265.118 199.428 266.462 199.425 266.513 198.564C266.673 195.856 266.848 193.149 266.99 190.441C267.062 189.075 266.993 187.747 266.666 186.415C266.358 185.164 265.94 183.937 265.56 182.706L264.366 178.83C267.292 178.465 269.614 176.074 269.735 173.087C269.766 172.329 269.652 171.543 269.396 170.828C269.159 170.168 268.817 169.424 268.268 168.966C267.979 168.725 267.671 168.608 267.355 168.574C266.646 167.72 265.681 167.105 264.712 166.568C263.244 165.753 261.748 164.986 260.237 164.254C260.157 164.215 260.071 164.19 259.985 164.179C261.362 161.017 262.731 157.851 264.088 154.68C266.89 148.134 269.649 141.569 272.365 134.987C273.884 131.302 275.391 127.613 276.883 123.918C276.966 123.706 276.889 123.473 276.742 123.304ZM263.84 167.619C264.507 167.986 265.198 168.371 265.777 168.871C265.758 168.878 265.739 168.885 265.719 168.892C264.888 169.209 264.057 169.526 263.226 169.844C260.918 170.73 258.614 171.629 256.312 172.533C257.371 170.143 258.423 167.749 259.469 165.353C259.497 165.375 259.525 165.395 259.558 165.411C261.003 166.111 262.431 166.847 263.84 167.619Z" fill="#1D1D1B"/>
<path d="M231.877 185.815C224.193 183.197 216.579 180.37 209.049 177.337C201.533 174.31 194.101 171.075 186.762 167.64C182.621 165.703 178.511 163.7 174.432 161.637C173.661 161.247 172.98 162.406 173.753 162.797C181.035 166.482 188.417 169.967 195.89 173.247C203.376 176.533 210.952 179.617 218.607 182.49C222.887 184.096 227.192 185.636 231.52 187.11C232.34 187.391 232.693 186.093 231.877 185.815Z" fill="#1D1D1B"/>
<path d="M289.243 305.632H0.75718C0.556363 305.632 0.363783 305.517 0.221784 305.312C0.0797851 305.108 0 304.831 0 304.541C0 304.252 0.0797851 303.975 0.221784 303.771C0.363783 303.566 0.556363 303.451 0.75718 303.451H289.243C289.444 303.451 289.636 303.566 289.778 303.771C289.92 303.975 290 304.252 290 304.541C290 304.831 289.92 305.108 289.778 305.312C289.636 305.517 289.444 305.632 289.243 305.632Z" fill="#A64E1B"/>
</g>
<defs>
<clipPath id="clip0_7_1384">
<rect width="290" height="305.263" fill="white" transform="translate(0 0.368408)"/>
</clipPath>
</defs>
</svg>
