<svg width="269" height="274" viewBox="0 0 269 274" fill="none" xmlns="http://www.w3.org/2000/svg">
<path d="M257.901 249.227H133.337C127.207 249.227 122.237 244.257 122.237 238.128V11.0995C122.237 4.96968 127.207 0 133.337 0H257.901C264.031 0 269.001 4.96968 269.001 11.0995V238.128C269.001 244.257 264.032 249.227 257.901 249.227Z" fill="#DFBFAD"/>
<path d="M264.146 16.7372V225.162C264.146 228.474 261.469 231.15 258.157 231.15H133.084C131.556 231.15 130.158 230.575 129.103 229.632C127.867 228.542 127.087 226.946 127.087 225.162V16.7372C127.087 13.4253 129.773 10.7487 133.084 10.7487H258.157C260.397 10.7487 262.353 11.9754 263.374 13.7944C263.863 14.6612 264.146 15.6646 264.146 16.7372Z" fill="#A64E1B"/>
<path d="M209.874 7.35378H181.365C180.215 7.35378 179.282 6.42145 179.282 5.27131C179.282 4.12117 180.215 3.18884 181.365 3.18884H209.874C211.024 3.18884 211.956 4.12117 211.956 5.27131C211.956 6.42054 211.023 7.35378 209.874 7.35378Z" fill="#D1A388"/>
<path d="M195.619 244.745C198.65 244.745 201.106 242.288 201.106 239.258C201.106 236.227 198.65 233.77 195.619 233.77C192.589 233.77 190.132 236.227 190.132 239.258C190.132 242.288 192.589 244.745 195.619 244.745Z" fill="#D1A388"/>
<path d="M122.237 29.5309V58.659C120.76 58.659 119.562 57.4615 119.562 55.9841V32.2057C119.563 30.7284 120.76 29.5309 122.237 29.5309Z" fill="#D1A388"/>
<path d="M256.418 35.8849H136.766V87.5036H256.418V35.8849Z" fill="#F7F7F7"/>
<path d="M256.418 35.8849H136.766V46.1942H256.418V35.8849Z" fill="#A64E1B"/>
<path d="M150.841 59.3116L150.831 55.235L148.832 58.5934H148.124L146.134 55.3225V59.3125H144.658V52.5173H145.959L148.502 56.7397L151.007 52.5173H152.297L152.316 59.3125L150.841 59.3116Z" fill="#D1A388"/>
<path d="M154.469 55.9139C154.469 53.8953 156.041 52.4006 158.186 52.4006C160.322 52.4006 161.904 53.8852 161.904 55.9139C161.904 57.9426 160.322 59.4273 158.186 59.4273C156.04 59.4282 154.469 57.9335 154.469 55.9139ZM160.312 55.9139C160.312 54.6225 159.399 53.7394 158.186 53.7394C156.972 53.7394 156.06 54.6225 156.06 55.9139C156.06 57.2053 156.972 58.0885 158.186 58.0885C159.399 58.0885 160.312 57.2053 160.312 55.9139Z" fill="#D1A388"/>
<path d="M170.286 52.5164V59.3115H168.994L165.607 55.1867V59.3115H164.054V52.5164H165.355L168.733 56.6421V52.5164H170.286Z" fill="#D1A388"/>
<path d="M172.864 52.5164H175.951C178.174 52.5164 179.698 53.8561 179.698 55.9139C179.698 57.9718 178.174 59.3115 175.951 59.3115H172.864V52.5164ZM175.874 58.0201C177.222 58.0201 178.106 57.2144 178.106 55.9139C178.106 54.6134 177.222 53.8068 175.874 53.8068H174.437V58.0201H175.874Z" fill="#D1A388"/>
<path d="M186.227 57.8551H183.072L182.471 59.3115H180.859L183.888 52.5164H185.441L188.478 59.3115H186.828L186.227 57.8551ZM185.732 56.6612L184.654 54.0593L183.577 56.6612H185.732Z" fill="#D1A388"/>
<path d="M192.999 56.9037V59.3115H191.427V56.8845L188.796 52.5164H190.466L192.281 55.5357L194.095 52.5164H195.638L192.999 56.9037Z" fill="#D1A388"/>
<path d="M151.255 63.5648V76.385H147.628V66.3673H145.247V63.5648H151.255Z" fill="#D1A388"/>
<path d="M153.178 69.9745C153.178 65.7439 155.559 63.3079 158.837 63.3079C162.097 63.3079 164.478 65.7439 164.478 69.9745C164.478 74.205 162.097 76.6411 158.837 76.6411C155.559 76.6411 153.178 74.205 153.178 69.9745ZM160.833 69.9745C160.833 67.2823 159.99 66.2753 158.837 66.2753C157.665 66.2753 156.822 67.2823 156.822 69.9745C156.822 72.6667 157.665 73.6746 158.837 73.6746C159.99 73.6746 160.833 72.6667 160.833 69.9745Z" fill="#D1A388"/>
<path d="M165.597 68.3449C165.597 67.1 166.513 66.2935 167.685 66.2935C168.875 66.2935 169.772 67.0991 169.772 68.3449C169.772 69.5543 168.875 70.4146 167.685 70.4146C166.513 70.4146 165.597 69.5534 165.597 68.3449ZM165.597 74.4802C165.597 73.2344 166.513 72.4288 167.685 72.4288C168.875 72.4288 169.772 73.2344 169.772 74.4802C169.772 75.6887 168.875 76.5499 167.685 76.5499C166.513 76.549 165.597 75.6887 165.597 74.4802Z" fill="#D1A388"/>
<path d="M182.996 73.9307H181.091V76.385H177.557V73.9307H170.78V71.5684L176.53 63.5648H180.285L175.065 71.0553H177.666V68.8753H181.091V71.0553H182.995V73.9307H182.996Z" fill="#D1A388"/>
<path d="M193.785 72.2638C193.785 74.5531 192.063 76.6411 188.199 76.6411C186.422 76.6411 184.536 76.2018 183.236 75.377L184.537 72.6484C185.581 73.3447 186.863 73.711 188.089 73.711C189.317 73.711 190.141 73.2162 190.141 72.3558C190.141 71.5684 189.609 71.0553 187.65 71.0553H184.17L184.811 63.5648H192.98V66.3673H187.815L187.65 68.2346H188.51C192.302 68.2346 193.785 69.9927 193.785 72.2638Z" fill="#D1A388"/>
<path d="M249.332 57.5435H200.614V60.9319H249.332V57.5435Z" fill="#B9DDFF"/>
<path d="M249.332 64.4854H200.614V67.8738H249.332V64.4854Z" fill="#9CCAEF"/>
<path d="M234.028 71.4263H200.614V74.8147H234.028V71.4263Z" fill="#B9DDFF"/>
<path d="M256.418 93.33H136.766V148.459H256.418V93.33Z" fill="#F7F7F7"/>
<path d="M166.728 127.383C174.736 127.383 181.228 120.891 181.228 112.883C181.228 104.875 174.736 98.3834 166.728 98.3834C158.72 98.3834 152.229 104.875 152.229 112.883C152.229 120.891 158.72 127.383 166.728 127.383Z" fill="#018389"/>
<path d="M161.808 118.497C161.726 118.497 161.643 118.488 161.562 118.472C161.245 118.406 160.968 118.217 160.791 117.945L157.384 112.693C157.02 112.13 157.179 111.38 157.741 111.015C158.304 110.65 159.055 110.811 159.419 111.372L162.159 115.595L174.387 107.472C174.945 107.102 175.698 107.254 176.068 107.812C176.439 108.369 176.287 109.123 175.729 109.493L162.48 118.295C162.278 118.428 162.044 118.497 161.808 118.497Z" fill="white"/>
<path d="M226.456 127.383C234.464 127.383 240.956 120.891 240.956 112.883C240.956 104.875 234.464 98.3834 226.456 98.3834C218.448 98.3834 211.956 104.875 211.956 112.883C211.956 120.891 218.448 127.383 226.456 127.383Z" fill="#A64E1B"/>
<path d="M233.379 120.828C233.121 120.828 232.861 120.73 232.663 120.531L218.816 106.685C218.419 106.289 218.419 105.647 218.816 105.252C219.211 104.855 219.854 104.855 220.249 105.252L234.096 119.099C234.492 119.494 234.492 120.137 234.096 120.531C233.898 120.73 233.638 120.828 233.379 120.828Z" fill="white"/>
<path d="M219.531 120.828C219.271 120.828 219.013 120.73 218.815 120.531C218.418 120.136 218.418 119.493 218.815 119.099L232.662 105.252C233.058 104.853 233.7 104.855 234.095 105.252C234.491 105.648 234.491 106.29 234.095 106.685L220.248 120.531C220.051 120.73 219.791 120.828 219.531 120.828Z" fill="white"/>
<path d="M244.808 133.529H148.375V136.45H244.808V133.529Z" fill="#B9DDFF"/>
<path d="M219.649 138.889H148.375V141.81H219.649V138.889Z" fill="#9CCAEF"/>
<path d="M256.418 154.286H136.766V213.342H256.418V154.286Z" fill="#F7F7F7"/>
<path d="M186.277 191.764C190.676 180.967 185.489 168.648 174.692 164.249C163.895 159.85 151.576 165.037 147.178 175.834C142.779 186.631 147.966 198.95 158.763 203.349C169.56 207.748 181.879 202.561 186.277 191.764Z" fill="#A64E1B"/>
<path d="M170.266 185.884C170.104 186.398 169.46 186.563 169.069 186.193L166.648 183.894L164.35 181.473C163.979 181.083 164.146 180.439 164.659 180.277C165.885 179.05 165.877 177.051 164.641 175.833L162.381 173.608C161.47 172.712 160.012 172.701 159.088 173.584L157.009 175.569C155.548 176.964 155.448 179.263 156.784 180.78L159.078 183.386C161.598 186.248 164.299 188.948 167.161 191.468L169.764 193.761C171.281 195.096 173.58 194.996 174.975 193.534L176.96 191.456C177.842 190.532 177.832 189.072 176.935 188.162L174.71 185.902C173.493 184.665 171.493 184.657 170.266 185.884Z" fill="white"/>
<path d="M245.784 171.738H196.592V174.647H245.784V171.738Z" fill="#B9DDFF"/>
<path d="M224.349 178.086H196.592V180.995H224.349V178.086Z" fill="#9CCAEF"/>
<path d="M245.645 191.686H196.452V204.982H245.645V191.686Z" fill="#A64E1B"/>
<path d="M204.773 198.919C204.773 199.62 204.216 200.026 203.149 200.026H201.05V195.967H203.033C204.047 195.967 204.569 196.391 204.569 197.022C204.569 197.428 204.361 197.741 204.03 197.914C204.483 198.06 204.773 198.408 204.773 198.919ZM201.984 196.675V197.632H202.918C203.377 197.632 203.625 197.47 203.625 197.151C203.625 196.832 203.377 196.676 202.918 196.676H201.984V196.675ZM203.828 198.82C203.828 198.478 203.567 198.315 203.079 198.315H201.984V199.319H203.079C203.567 199.319 203.828 199.168 203.828 198.82Z" fill="white"/>
<path d="M205.809 197.997C205.809 196.791 206.748 195.898 208.03 195.898C209.305 195.898 210.251 196.785 210.251 197.997C210.251 199.209 209.306 200.096 208.03 200.096C206.748 200.095 205.809 199.203 205.809 197.997ZM209.3 197.997C209.3 197.225 208.754 196.698 208.03 196.698C207.304 196.698 206.76 197.225 206.76 197.997C206.76 198.768 207.305 199.296 208.03 199.296C208.754 199.295 209.3 198.767 209.3 197.997Z" fill="white"/>
<path d="M211.279 197.997C211.279 196.791 212.219 195.898 213.501 195.898C214.776 195.898 215.721 196.785 215.721 197.997C215.721 199.209 214.776 200.096 213.501 200.096C212.219 200.095 211.279 199.203 211.279 197.997ZM214.771 197.997C214.771 197.225 214.225 196.698 213.501 196.698C212.776 196.698 212.231 197.225 212.231 197.997C212.231 198.768 212.776 199.296 213.501 199.296C214.225 199.295 214.771 198.767 214.771 197.997Z" fill="white"/>
<path d="M218.483 198.431L217.938 199V200.026H217.005V195.967H217.938V197.863L219.736 195.967H220.78L219.098 197.776L220.878 200.026H219.783L218.483 198.431Z" fill="white"/>
<path d="M227.816 195.967V200.026H227.044L225.02 197.562V200.026H224.092V195.967H224.869L226.887 198.431V195.967H227.816Z" fill="white"/>
<path d="M229.101 197.997C229.101 196.791 230.04 195.898 231.323 195.898C232.598 195.898 233.543 196.785 233.543 197.997C233.543 199.209 232.598 200.096 231.323 200.096C230.04 200.095 229.101 199.203 229.101 197.997ZM232.592 197.997C232.592 197.225 232.046 196.698 231.322 196.698C230.596 196.698 230.051 197.225 230.051 197.997C230.051 198.768 230.596 199.296 231.322 199.296C232.046 199.295 232.592 198.767 232.592 197.997Z" fill="white"/>
<path d="M240.828 195.967L239.5 200.026H238.491L237.598 197.277L236.676 200.026H235.673L234.339 195.967H235.313L236.229 198.82L237.187 195.967H238.056L238.984 198.843L239.929 195.967H240.828Z" fill="white"/>
<path opacity="0.3" d="M136.885 231.15H172.13L264.146 139.143V103.889L136.885 231.15ZM258.157 10.7487H216.984L127.087 100.646V150.082L263.374 13.7944C262.352 11.9754 260.397 10.7487 258.157 10.7487ZM127.087 161.149V225.162C127.087 226.946 127.868 228.542 129.103 229.632L264.146 94.5887V24.0901L127.087 161.149Z" fill="white"/>
<path d="M104.616 232.224C105.215 232.135 105.821 232.038 106.427 231.94C106.726 233.574 107.114 235.183 107.583 236.776C104.745 237.334 102.004 237.827 99.3599 238.256C58.0423 244.984 39.291 236.776 39.291 236.776C39.9217 235.183 40.4958 233.55 41.0135 231.94C41.0135 231.94 59.3438 239.162 104.616 232.224Z" fill="#4893FF"/>
<path d="M71.125 111.416C66.5482 111.327 63.064 113.914 61.5275 115.305C61.3014 114.003 60.9451 112.717 60.4603 111.456C59.5954 109.224 58.9082 107.478 58.8672 105.667L66.2091 106.945V106.953L68.1822 107.293C69.3306 107.495 70.2519 108.328 70.5673 109.444L70.8425 110.398L71.1259 111.409V111.416H71.125Z" fill="#FF654B"/>
<path d="M65.8529 96.0368L62.7314 89.5679C63.5079 87.1747 65.2222 85.1852 66.1035 82.8484C66.1117 82.832 66.1117 82.8238 66.1199 82.8083L73.5912 90.8293C70.8909 91.387 68.3272 91.4198 66.8964 91.3788C66.2493 91.3624 65.7244 91.8883 65.7399 92.5353L65.8529 96.0368Z" fill="#A33914"/>
<path d="M111.037 167.474C112.452 173.279 110.034 178.236 107.988 181.155C106.856 179.797 105.611 177.848 104.382 175.689C104.641 175.107 104.891 174.509 105.126 173.894C106.055 171.484 107.195 168.88 108.166 166.213C109.104 166.633 110.066 167.053 111.037 167.474Z" fill="#DD2F2F"/>
<path d="M108.165 166.213C107.195 168.881 106.055 171.485 105.125 173.894C104.891 174.508 104.64 175.107 104.381 175.689C103.209 173.619 102.045 171.364 101.002 169.245C101.762 167.449 102.417 165.622 102.95 163.779C104.616 164.579 106.354 165.403 108.165 166.213Z" fill="#DD2F2F"/>
<path d="M97.1533 160.844C98.9405 161.782 100.889 162.769 102.951 163.779C102.416 165.623 101.762 167.45 101.002 169.245C98.8594 164.854 97.2508 161.07 97.1533 160.844Z" fill="#DD2F2F"/>
<path d="M94.5985 117.763H94.5903L84.5798 115.911L80.3994 115.134V115.143L84.7093 117.964L86.9412 119.42L93.1995 123.519C93.7983 123.277 94.3879 123.114 94.9621 123.058L97.4119 121.158C96.66 120.407 95.6575 119.17 94.5985 117.763Z" fill="#DD2F2F"/>
<path d="M94.5902 117.763L84.5797 115.911C84.4904 115.086 84.361 114.261 84.1751 113.445C83.528 110.429 82.315 107.518 80.6982 104.906L82.1619 104.09C82.7279 104.591 83.3266 105.14 83.9163 105.731C83.9163 105.731 85.5977 107.55 88.5414 109.111V109.119C88.5414 109.119 91.7759 114.027 94.5902 117.763Z" fill="#FC4C4C"/>
<path d="M77.06 107.178C75.1516 108.035 73.3244 109.628 71.7559 111.44C71.5372 111.423 71.3276 111.415 71.1252 111.415V111.407L70.8418 110.396L77.019 106.959C77.0363 107.033 77.0518 107.106 77.06 107.178Z" fill="#FC4C4C"/>
<path d="M77.9495 113.542L77.6178 113.324C75.5316 112.119 73.5667 111.569 71.7559 111.44C73.3243 109.629 75.1516 108.036 77.06 107.178C77.2058 107.906 77.3024 108.602 77.3999 109.11C77.6907 110.615 77.8684 112.087 77.9495 113.542Z" fill="#FC4C4C"/>
<path d="M64.4951 68.3185C65.6754 72.6684 64.9235 76.2182 63.1609 79.6303L58.3662 74.4793L64.4951 68.3185Z" fill="#0B57C7"/>
<path d="M77.2781 68.3832C76.4697 67.3397 74.9733 67.1383 73.9225 67.9303C73.2918 68.3996 72.9519 69.1269 72.9519 69.8624C72.9519 70.3153 73.0813 70.7683 73.3401 71.172C75.8792 75.0772 82.5011 85.2088 85.9534 90.3271C87.1254 92.0577 86.7536 94.3945 85.1122 95.6795C84.4004 96.2455 83.5273 96.5362 82.6542 96.5362C82.1047 96.5362 81.5469 96.4232 81.0293 96.1881L76.8252 94.3043L76.8169 94.2961L73.5907 90.8274L66.1193 82.8065L63.1602 79.6286C64.9227 76.2164 65.6746 72.6667 64.4944 68.3167L71.7716 61.0076L73.3319 62.6571L80.9728 70.7264L82.4118 72.2547L89.8586 80.1143V80.1225C90.3762 83.3405 88.3138 82.5887 88.3138 82.5887L77.2781 68.3832Z" fill="#0B57C7"/>
<path d="M107.955 237.973L119.558 273.55H109.386L99.3604 238.264V238.256C102.004 237.828 104.746 237.335 107.584 236.776C107.705 237.172 107.826 237.577 107.955 237.973Z" fill="#4893FF"/>
<path d="M55.1879 273.55H28.0365C26.541 259.117 33.0016 247.935 35.4104 244.328C36.5259 242.671 37.5047 240.924 38.3213 239.097C38.6612 238.337 38.9838 237.561 39.2919 236.777C39.2919 236.777 58.0422 244.984 99.3608 238.257V238.265L109.387 273.551H55.1879V273.55Z" fill="#1F75FE"/>
<path d="M62.5056 170.45C69.8794 165.461 74.2139 158.451 76.9388 150.219C77.1002 149.726 77.2542 149.233 77.4073 148.739C79.2027 142.821 81.1913 137.079 84.3127 131.702C85.7034 129.317 89.5439 124.967 93.1985 123.519L86.9402 119.42C86.099 119.816 85.2988 120.366 84.5387 121.021C82.1537 123.091 80.1888 126.147 78.8381 128.298C75.5226 133.57 74.2531 139.319 72.9352 145.294C72.7894 145.941 72.6363 146.604 72.4504 147.275C70.4536 154.739 66.1027 163.415 58.9713 166.479C54.1201 168.573 49.1313 168.807 44.1343 170.223C42.0163 170.822 39.0325 171.768 36.4287 173.15C37.084 174.8 37.7794 176.708 38.4747 178.867C40.6502 177.452 43.2047 176.514 45.525 175.988C51.1372 174.702 57.6626 173.724 62.5056 170.45ZM58.8027 147.914C60.8724 144.972 62.6432 141.858 63.9537 138.511C64.229 137.832 64.4796 137.137 64.7138 136.433C66.5329 130.886 67.9081 125.913 71.6839 121.264C73.1713 119.437 75.436 117.165 77.9824 115.54C78.5164 115.208 79.0578 114.901 79.6073 114.626L80.3993 115.144V115.135L84.5797 115.912C84.4904 115.087 84.361 114.262 84.1751 113.446C83.528 110.43 82.3159 107.519 80.6982 104.907L77.019 106.961C77.0354 107.034 77.0509 107.107 77.0591 107.18C77.205 107.907 77.3016 108.603 77.3991 109.112C77.6898 110.616 77.8684 112.088 77.9486 113.543L77.6169 113.324C75.5308 112.12 73.5659 111.57 71.755 111.441C70.1701 113.252 68.8441 115.298 67.9464 117.036C66.0216 120.764 65.319 124.944 63.2966 128.624C63.1836 128.818 63.0706 129.012 62.9567 129.206C61.2424 132.068 59.4963 135.245 57.1513 137.51C57.3135 140.106 58.1301 142.564 58.4937 145.143C58.625 146.062 58.7298 146.993 58.8027 147.914ZM45.5095 193.283C50.6925 188.917 57.6216 187.332 64.0503 185.642C71.1088 183.782 77.0601 182.286 83.0031 177.669C89.019 172.996 92.2206 166.479 95.1151 159.751C91.8242 157.972 89.1475 156.404 87.2965 155.288C86.7141 156.242 86.1892 157.253 85.7198 158.329C83.8196 162.703 82.5182 166.673 79.4214 170.425C74.5055 176.384 69.298 179.87 61.4384 180.306C55.3094 180.654 50.1511 180.517 44.6766 183.783C43.2776 184.616 41.9033 185.464 40.6419 186.443C41.3701 189.371 42.0573 192.597 42.6305 196.089C43.4717 195.135 44.4104 194.205 45.5095 193.283ZM96.1021 188.157C96.3445 187.907 96.5632 187.656 96.7893 187.397C100.007 183.695 102.465 180.072 104.382 175.689C103.21 173.619 102.045 171.364 101.003 169.245C98.7542 174.589 95.6009 179.538 91.9463 183.136C87.8142 187.219 82.5346 190.647 76.9388 192.717C74.7479 193.525 72.5078 194.132 70.2677 194.488C62.2139 195.774 55.0989 198.264 48.0559 202.469C46.7135 203.269 45.2261 204.158 43.819 205.145C44.0213 207.321 44.1826 209.576 44.2956 211.905C44.312 212.35 44.3357 212.794 44.3439 213.247C45.6699 212.164 47.0771 211.194 48.5972 210.296C57.3135 205.145 67.1134 204.66 76.2991 201.046C83.9172 198.046 90.6284 194.165 96.1021 188.157ZM105.102 186.872C104.325 187.243 103.63 187.64 103.056 188.02C100.25 189.88 97.7836 192.467 95.8679 195.224C91.3721 201.693 86.7633 205.396 79.1462 207.854C71.3112 210.385 62.4409 211.832 55.3906 216.279C53.7246 217.33 52.4468 218.47 51.3313 219.869C54.8246 220.362 59.5546 220.823 65.3035 220.937C65.9095 220.402 66.5402 219.886 67.1636 219.376C72.4759 215.107 78.9201 213.821 85.3161 212.228C91.2427 210.741 95.1725 208.056 98.7624 203.011C100.501 200.577 101.455 197.594 103.614 195.467C104.22 194.868 104.899 194.343 105.635 193.89V186.823C105.457 186.839 105.28 186.855 105.102 186.872Z" fill="#FF654B"/>
<path d="M58.9724 166.479C66.1038 163.415 70.4538 154.739 72.4515 147.275C72.6374 146.605 72.7914 145.941 72.9363 145.294C74.2542 139.319 75.5237 133.569 78.8392 128.298C80.1899 126.147 82.1538 123.091 84.5398 121.021C85.2999 120.366 86.1001 119.816 86.9413 119.42L84.7093 117.964L80.3995 115.143L79.6075 114.625C79.058 114.9 78.5157 115.207 77.9825 115.539C75.4353 117.164 73.1715 119.436 71.6841 121.263C67.9083 125.912 66.534 130.886 64.714 136.432C64.4798 137.136 64.2291 137.831 63.9539 138.51C62.6443 141.857 60.8735 144.971 58.8029 147.913C59.223 153.501 58.3827 159.079 54.5177 163.172C54.0975 163.624 53.6282 164.061 53.1269 164.473C48.4698 168.313 43.1976 167.86 37.8616 166.244C36.818 165.928 35.7754 165.872 34.7483 165.904C34.2152 165.912 33.6811 165.952 33.1553 165.977C33.5918 166.761 34.8778 169.203 36.4298 173.149C39.0336 171.767 42.0174 170.821 44.1354 170.222C49.1324 168.808 54.1212 168.573 58.9724 166.479ZM61.4386 180.306C69.2982 179.87 74.5048 176.384 79.4216 170.425C82.5184 166.673 83.8198 162.703 85.72 158.329C86.1894 157.253 86.7143 156.242 87.2967 155.288C85.4366 154.165 84.4022 153.485 84.4022 153.485C88.4131 140.726 95.6247 132.389 98.6331 129.309C99.498 128.428 100.016 127.975 100.016 127.975L93.8302 123.932L93.1996 123.52C89.545 124.967 85.7045 129.317 84.3138 131.703C81.1924 137.08 79.2038 142.821 77.4084 148.74C77.2544 149.233 77.1013 149.726 76.9399 150.22C74.215 158.452 69.8814 165.462 62.5067 170.451C57.6637 173.725 51.1383 174.704 45.527 175.989C43.2067 176.515 40.6512 177.453 38.4767 178.868C39.2122 181.115 39.9486 183.646 40.644 186.444C41.9053 185.465 43.2796 184.617 44.6786 183.784C50.1513 180.516 55.3096 180.653 61.4386 180.306ZM62.9587 129.204C63.0717 129.01 63.1847 128.816 63.2986 128.622C65.32 124.943 66.0236 120.762 67.9484 117.035C68.8461 115.296 70.1722 113.251 71.757 111.439C71.5383 111.422 71.3287 111.414 71.1264 111.414C66.5495 111.325 63.0653 113.912 61.5288 115.303C62.143 118.845 61.7794 122.491 60.4616 125.911C60.3003 126.34 60.1216 126.761 59.9439 127.189C58.6179 130.342 57.0412 133.537 57.1305 137.014C57.1387 137.175 57.1469 137.345 57.1551 137.507C59.4983 135.245 61.2444 132.067 62.9587 129.204ZM104.382 175.689C102.465 180.072 100.007 183.694 96.7895 187.397C96.5634 187.656 96.3447 187.907 96.1023 188.157C90.6286 194.165 83.9173 198.047 76.3002 201.046C67.1145 204.66 57.3146 205.145 48.5983 210.296C47.0782 211.194 45.671 212.164 44.345 213.247C44.4179 214.986 44.4498 216.764 44.4498 218.592C44.4498 218.592 46.8914 219.248 51.3306 219.87C52.4461 218.471 53.7239 217.331 55.3898 216.28C62.4401 211.833 71.3104 210.386 79.1454 207.855C86.7617 205.397 91.3714 201.694 95.8671 195.225C97.7837 192.468 100.25 189.881 103.055 188.021C103.629 187.641 104.325 187.244 105.101 186.872C105.271 186.791 105.449 186.703 105.635 186.63V186.266C105.635 184.892 106.112 183.566 106.978 182.498C107.285 182.118 107.633 181.665 107.988 181.155C106.856 179.797 105.611 177.848 104.382 175.689ZM70.2688 194.488C72.5089 194.132 74.7481 193.525 76.9399 192.717C82.5348 190.647 87.8152 187.219 91.9474 183.136C95.6019 179.538 98.7553 174.589 101.004 169.245C98.861 164.854 97.2515 161.07 97.1549 160.844C97.1467 160.836 97.1467 160.836 97.1467 160.836C96.4431 160.464 95.7642 160.108 95.1171 159.752C92.2226 166.48 89.021 172.997 83.0051 177.67C77.0621 182.287 71.1109 183.783 64.0523 185.643C57.6245 187.333 50.6945 188.918 45.5116 193.284C44.4115 194.205 43.4737 195.136 42.6326 196.09C43.1092 198.928 43.5138 201.952 43.821 205.146C45.2281 204.16 46.7155 203.271 48.0579 202.47C55.1 198.265 62.215 195.774 70.2688 194.488ZM98.7626 203.011C95.1727 208.056 91.2429 210.741 85.3163 212.228C78.9203 213.821 72.4761 215.107 67.1637 219.376C66.5413 219.886 65.9106 220.403 65.3036 220.937C73.8823 221.106 84.7339 220.467 97.1449 217.913C99.9018 217.347 102.732 216.684 105.635 215.916V193.89C104.9 194.343 104.22 194.869 103.614 195.467C101.455 197.593 100.501 200.577 98.7626 203.011Z" fill="#FC4C4C"/>
<path d="M106.428 231.941C105.822 232.039 105.215 232.135 104.617 232.225C100.21 227.818 97.1455 217.913 97.1455 217.913C99.9024 217.347 102.733 216.684 105.636 215.916L105.652 223.597C105.659 226.402 105.918 229.192 106.428 231.941Z" fill="#A33914"/>
<path d="M51.3312 219.869C54.8245 220.362 59.5545 220.823 65.3033 220.936C73.882 221.106 84.7336 220.467 97.1446 217.913C97.1446 217.913 100.21 227.817 104.616 232.225C59.3439 239.162 41.0137 231.941 41.0137 231.941C43.2611 224.996 44.4504 218.592 44.4504 218.592C44.4504 218.592 46.892 219.247 51.3312 219.869Z" fill="#C6592A"/>
<path d="M100.994 118.385L97.4124 121.159C96.6605 120.407 95.658 119.17 94.599 117.763H94.5908C91.7765 114.027 88.543 109.119 88.543 109.119V109.111C89.9583 109.871 91.6644 110.567 93.6211 110.971C94.486 111.149 95.2789 111.586 95.8931 112.216C96.9184 113.267 98.6491 115.192 100.994 118.385Z" fill="#A33914"/>
<path d="M62.7324 89.5679L65.8538 96.0367L66.2093 106.945L58.8673 105.667C58.8427 104.22 59.2228 102.732 60.2499 100.921C61.277 99.1171 62.11 97.412 62.3278 95.3095C62.5219 93.4002 62.1337 91.4034 62.7324 89.5679Z" fill="#C6592A"/>
<path d="M80.973 70.7281L73.3321 62.6589C73.1863 61.1142 72.7825 59.6104 72.6367 58.0584C74.3027 56.9666 75.9441 55.7945 77.5444 54.5332L77.3585 56.6512C77.2373 58.0101 77.5198 59.368 78.1505 60.5728C79.2833 62.7473 80.973 66.6771 80.973 70.7281Z" fill="#C6592A"/>
<path d="M77.3429 49.8506C77.6337 51.225 77.7066 52.6485 77.5854 54.0475L77.5453 54.5323C75.944 55.7937 74.3026 56.9666 72.6376 58.0575C72.5729 57.4186 72.5565 56.7715 72.6212 56.109C72.8636 53.6428 73.4213 51.225 72.4435 48.7834C70.834 44.7652 66.7347 42.485 66.4758 37.8598C66.4594 37.5044 66.4357 37.1481 66.4111 36.7844C67.7454 37.2857 75.3297 40.5365 77.3429 49.8506Z" fill="#C6592A"/>
<path d="M136.789 90.6835L115.686 107.017C114.197 105.659 112.662 104.284 111.069 102.901C110.527 102.433 110.131 101.809 109.937 101.106C109.395 99.1008 108.118 94.5805 106.5 90.5294L129.819 77.5361C130.134 77.3584 130.418 77.1397 130.66 76.8809L131.501 76.0078C133.054 74.3746 134.711 72.8298 136.45 71.3908L138.342 69.8305C139.716 68.6904 141.56 68.3022 143.274 68.787L144.657 69.1753L144.69 69.2318L144.836 69.1425C146.016 68.4389 147.463 68.366 148.709 68.9401L150.584 69.8214L150.698 69.9107L155.016 64.3232C155.072 64.2421 155.137 64.1609 155.21 64.0889C155.517 63.7572 155.849 63.4501 156.204 63.1675L162.308 58.3729C163.238 57.6529 164.572 57.8069 165.3 58.7283C165.607 59.1165 165.761 59.585 165.761 60.0543C165.761 60.572 165.567 61.0896 165.195 61.4934L160.15 66.9916C159.867 67.2988 159.608 67.6141 159.366 67.9458L152.015 78.021L157.57 75.1666C159.034 74.4147 160.828 74.9643 161.621 76.4033C161.88 76.8727 162.001 77.3739 162.001 77.8751C162.001 78.9588 161.419 80.0096 160.392 80.5591L154.044 83.9394C152.363 84.8371 150.858 86.0173 149.588 87.4326C148.836 88.2738 147.955 88.961 146.976 89.4859C145.999 90.02 144.939 90.3754 143.831 90.5449L142.845 90.698C140.832 91.007 138.795 91.007 136.789 90.6835Z" fill="#C6592A"/>
<path d="M95.1157 159.752C91.8248 157.973 89.1481 156.405 87.2971 155.289C85.437 154.165 84.4026 153.486 84.4026 153.486C88.4126 140.727 95.6252 132.391 98.6336 129.31C98.6336 129.31 104.892 132.787 112.816 137.598C107.997 128.606 103.995 122.461 100.995 118.386C98.65 115.192 96.9202 113.268 95.8931 112.217C95.2789 111.586 94.486 111.15 93.6211 110.972C91.6644 110.568 89.9583 109.872 88.543 109.112C85.5993 107.552 83.9178 105.732 83.9178 105.732C83.3272 105.141 82.7294 104.592 82.1634 104.091C81.0233 103.08 79.9643 102.255 79.1477 101.664C78.2336 101.001 77.2238 100.492 76.1557 100.136C73.2129 99.1573 71.2398 97.9607 69.9785 96.9828C69.3077 96.4651 68.9678 95.6969 68.9678 94.9131C68.9678 94.3225 69.1619 93.7247 69.5583 93.2316C70.3184 92.2774 71.6198 91.9621 72.7281 92.4633L76.8192 94.2988L76.8274 94.307L81.0315 96.1908C81.5492 96.425 82.1069 96.539 82.6565 96.539C83.5296 96.539 84.4026 96.2482 85.1144 95.6823C86.7558 94.3963 87.1276 92.0596 85.9556 90.3298C82.5034 85.2116 75.8805 75.08 73.3423 71.1748C73.0835 70.7701 72.9541 70.3181 72.9541 69.8652C72.9541 69.1297 73.294 68.4015 73.9247 67.9331C74.9755 67.1411 76.4719 67.3425 77.2803 68.386L88.3169 82.5924C88.3169 82.5924 90.3785 83.3442 89.8617 80.1262V80.118L82.415 72.2584L82.5772 72.1044C82.5772 72.1044 90.3803 68.7405 93.5172 74.9105L94.722 77.506C99.9368 77.5306 102.492 82.5194 103.123 83.9503C103.236 84.2173 103.382 84.4597 103.551 84.694C104.595 86.1412 105.605 88.2674 106.502 90.5322C108.119 94.5832 109.397 99.1026 109.939 101.109C110.133 101.812 110.53 102.435 111.071 102.904C112.664 104.286 114.2 105.661 115.688 107.02C144.91 133.961 152.801 158.073 154.281 163.491C154.499 164.282 154.669 165.092 154.709 165.917C155.114 174.293 145.233 175.644 140.195 175.789C138.626 175.829 137.058 175.708 135.521 175.401C127.039 173.679 118.573 170.695 111.037 167.477C110.067 167.057 109.105 166.636 108.166 166.215C106.356 165.407 104.617 164.582 102.952 163.781C100.89 162.771 98.9407 161.784 97.1545 160.846C97.1462 160.838 97.1462 160.838 97.1462 160.838C96.4418 160.464 95.7619 160.108 95.1157 159.752Z" fill="#C6592A"/>
<path d="M84.4021 153.485C81.9751 152.936 79.6521 151.977 77.4302 150.845C75.2037 149.718 73.1021 148.333 71.1472 146.775C69.2024 145.203 67.3979 143.446 65.8422 141.487C65.0666 140.509 64.3293 139.498 63.6749 138.439C63.0725 137.344 62.4492 136.267 61.875 135.172C62.6096 136.179 63.2949 137.206 64.0012 138.215C64.7157 139.22 65.4968 140.172 66.317 141.087C67.9565 142.917 69.7337 144.617 71.6521 146.145C73.5605 147.691 75.6011 149.062 77.7254 150.302C78.7863 150.925 79.8781 151.497 80.9927 152.024C82.1009 152.572 83.2383 153.054 84.4021 153.485Z" fill="#840606"/>
<path d="M61.5273 115.305C62.7322 114.101 64.1521 113.105 65.7005 112.348C67.2617 111.628 68.9723 111.158 70.7166 111.113C72.4674 111.013 74.2163 111.401 75.834 112.038C76.6378 112.368 77.4316 112.739 78.1679 113.224L80.3124 114.604C83.1385 116.495 85.9884 118.349 88.7981 120.265C91.606 122.184 94.4085 124.111 97.1626 126.111C94.2244 124.392 91.3363 122.595 88.4573 120.786C85.5773 118.978 82.7302 117.117 79.8704 115.28L77.7451 113.869C77.0688 113.409 76.3179 113.045 75.5569 112.718C74.0285 112.08 72.3817 111.732 70.7285 111.732C67.3938 111.704 64.1484 113.165 61.5273 115.305Z" fill="#840606"/>
<path d="M122.415 113.541C120.178 111.606 118.009 109.612 115.852 107.609L112.531 104.697L110.871 103.241C110.254 102.733 109.773 102.015 109.551 101.228C108.809 98.3771 107.951 95.5665 107.018 92.7786C106.553 91.3851 106.054 90.0008 105.492 88.6456C104.948 87.2813 104.328 85.9461 103.549 84.6912C105.373 87.0379 106.515 89.8267 107.603 92.5672C108.665 95.3322 109.525 98.1702 110.329 101.011C110.501 101.647 110.863 102.219 111.376 102.658L113.018 104.146C114.102 105.149 115.233 106.103 116.272 107.154C118.349 109.259 120.415 111.371 122.415 113.541Z" fill="#7C230A"/>
<path d="M108.324 134.904C109.829 135.7 111.308 136.541 112.802 137.359L117.209 139.936C120.133 141.681 122.998 143.521 125.852 145.38C128.668 147.295 131.474 149.231 134.171 151.316C136.864 153.401 139.495 155.599 141.81 158.102C140.532 156.977 139.236 155.881 137.883 154.855C136.546 153.81 135.186 152.796 133.8 151.815C131.039 149.843 128.248 147.909 125.404 146.051C122.596 144.141 119.73 142.315 116.882 140.461C114.037 138.602 111.157 136.795 108.324 134.904Z" fill="#7C230A"/>
<path d="M39.292 236.776C42.0006 237.746 44.8185 238.343 47.6374 238.859C49.0536 239.086 50.4635 239.349 51.8898 239.507L54.0233 239.775L56.165 239.97C61.8765 240.476 67.6181 240.599 73.3506 240.426C79.0858 240.29 84.8083 239.805 90.5161 239.187C93.3733 238.899 96.2112 238.455 99.0629 238.1L107.584 236.777C104.772 237.372 101.949 237.932 99.1258 238.491C96.2823 238.927 93.448 239.441 90.5918 239.804C87.7346 240.163 84.8757 240.521 82.0013 240.717C80.5649 240.821 79.1314 240.977 77.6923 241.036L73.3743 241.232C67.6135 241.339 61.8364 241.228 56.103 240.585C50.3897 239.914 44.6371 238.949 39.292 236.776Z" fill="#002F68"/>
<path d="M60.6541 244.053C60.3561 246.606 59.6598 249.12 58.5626 251.481C57.3623 253.774 56.2486 256.018 55.6535 258.488C54.9946 260.936 54.5799 263.447 54.4459 265.978C54.3183 268.51 54.5608 271.06 55.1878 273.55C54.2381 271.158 53.8235 268.554 53.8235 265.964C53.8125 263.369 54.2163 260.784 54.8715 258.28C55.4967 255.752 56.7052 253.369 58.0093 251.201C58.6072 250.089 59.1076 248.918 59.535 247.72C59.9834 246.527 60.3434 245.299 60.6541 244.053Z" fill="#002F68"/>
<path d="M48.3232 194.076C50.2189 194.001 52.1072 193.85 53.9819 193.591C54.9206 193.483 55.8538 193.324 56.7889 193.193L59.5749 192.676C63.2733 191.915 66.9169 190.899 70.4329 189.545C72.2165 188.93 73.9225 188.131 75.6441 187.363C76.4917 186.954 77.311 186.487 78.1467 186.052L79.3953 185.389L80.5992 184.649C81.3985 184.15 82.2132 183.672 83.0034 183.156L85.2873 181.483C85.6682 181.204 86.0656 180.943 86.4338 180.647L87.511 179.725L89.6828 177.886C87.0298 180.588 84.1863 183.174 80.9291 185.175L79.7398 185.971L78.4867 186.662C77.6464 187.113 76.8216 187.597 75.9676 188.022C74.2351 188.822 72.5163 189.657 70.7173 190.298C67.1338 191.606 63.4482 192.646 59.6898 193.282C55.9322 193.909 52.1191 194.254 48.3232 194.076Z" fill="#840606"/>
<path d="M82.5742 72.1026C84.1563 71.3097 85.9381 70.8667 87.7617 70.8914C88.6712 70.9351 89.5926 71.0855 90.4566 71.4491C91.3078 71.8209 92.1098 72.3587 92.7213 73.0659L93.1761 73.599C93.3055 73.7922 93.4204 73.9964 93.5416 74.1941C93.6582 74.3937 93.7886 74.5933 93.8915 74.7938L94.164 75.398C94.5149 76.2082 94.8822 77.013 95.2167 77.8287C95.9066 79.45 96.5491 81.0941 97.1451 82.76C96.2638 81.2262 95.4299 79.6714 94.6443 78.0939L93.4741 75.7298L93.1898 75.1356C93.0886 74.9469 92.9711 74.7801 92.8635 74.6006C92.7523 74.4256 92.6494 74.2452 92.5327 74.0738L92.1226 73.6081C91.049 72.3286 89.4076 71.697 87.7252 71.5184C86.0265 71.3944 84.2666 71.6013 82.5742 72.1026Z" fill="#7C230A"/>
<path d="M140.662 71.6259C141.362 71.0153 142.102 70.4739 142.857 69.9563C143.23 69.6911 143.619 69.4505 144 69.1989L144.581 68.8371C144.786 68.7113 145.014 68.5865 145.244 68.4926C146.173 68.1153 147.236 68.0798 148.167 68.4097C148.647 68.5664 149.041 68.8326 149.429 69.0604C149.819 69.3056 150.21 69.5471 150.585 69.8232C150.134 69.7102 149.697 69.5644 149.261 69.4204C148.819 69.2691 148.404 69.0941 147.998 69.0176C147.17 68.8517 146.31 68.92 145.549 69.2408C145.173 69.3757 144.807 69.6327 144.394 69.8533C143.99 70.0684 143.593 70.2944 143.181 70.4958C142.364 70.9114 141.532 71.3033 140.662 71.6259Z" fill="#7C230A"/>
<path d="M148.805 72.3613C149.756 70.6069 150.904 69.0048 152.095 67.4418C152.702 66.668 153.317 65.8998 153.97 65.1597C154.299 64.7833 154.614 64.4316 154.982 64.0524C155.377 63.7152 155.789 63.44 156.204 63.1675C155.907 63.5749 155.562 63.9367 155.283 64.3122L154.478 65.5352C153.927 66.3536 153.338 67.1447 152.74 67.9284C151.521 69.4823 150.261 70.9979 148.805 72.3613Z" fill="#7C230A"/>
<path d="M149.589 87.4335C148.824 88.5289 147.757 89.4394 146.538 90.0591C145.931 90.3799 145.279 90.6114 144.612 90.7855C143.927 90.9513 143.287 91.027 142.62 91.14C141.28 91.3186 139.917 91.3532 138.576 91.202C137.906 91.1272 137.239 91.0179 136.59 90.8438C135.946 90.6378 135.302 90.4583 134.678 90.2314C136.015 90.358 137.304 90.5722 138.617 90.5722C139.922 90.5923 141.223 90.5248 142.509 90.3398C143.832 90.1621 145.083 89.9962 146.274 89.4886C147.463 88.9965 148.588 88.3193 149.589 87.4335Z" fill="#7C230A"/>
<path d="M150.583 78.7573C150.995 78.3919 151.434 78.082 151.879 77.7813L151.809 77.8323L151.816 77.8232L151.825 77.8123L151.886 77.7722C152.762 77.1989 153.671 76.6904 154.614 76.2484C155.558 75.8082 156.525 75.4126 157.57 75.1675C156.762 75.8729 155.877 76.4297 154.969 76.941C154.061 77.4504 153.118 77.8934 152.142 78.2716L152.213 78.2205L152.203 78.2278L152.148 78.2734L152.133 78.2789C151.629 78.4621 151.121 78.638 150.583 78.7573Z" fill="#7C230A"/>
<path d="M71.7721 61.0094L73.3323 62.659C73.1865 61.1142 72.7828 59.6105 72.637 58.0584C72.5723 57.4195 72.5559 56.7725 72.6206 56.1099C72.863 53.6438 73.4207 51.2259 72.4428 48.7843C70.8334 44.7661 66.734 42.4859 66.4752 37.8607C66.4588 37.5053 66.4351 37.149 66.4105 36.7853C66.3376 35.5486 66.2164 34.2946 65.9412 33.1062C65.4481 30.9553 64.4128 29.0387 62.0761 27.9396C60.5076 27.2042 58.5673 26.969 56.6826 27.0501C55.4696 27.0902 54.273 27.2607 53.214 27.5031C51.4997 27.8913 48.7018 27.7136 47.2464 28.2468C46.8581 28.3844 46.4462 28.4892 46.0169 28.5621C43.6556 28.974 40.7128 28.5539 38.4727 28.7963C38.3031 28.8127 38.1245 28.8364 37.955 28.8528C34.058 29.2894 29.9578 29.8389 27.1845 32.912C25.1148 35.2087 23.9419 38.4267 22.6076 41.1435C21.1768 44.0544 18.5812 45.6228 16.3092 47.5631C14.902 48.7762 13.6088 50.1268 12.8004 52.0261C11.4343 55.2204 11.0944 58.2844 11.1755 61.7048C11.2566 65.2545 11.6603 68.4972 10.3261 71.8847C9.50951 73.9225 8.27278 75.6605 7.12446 77.4796C6.72802 78.102 6.34069 78.7327 5.99255 79.388C4.4806 82.194 3.66402 85.4194 3.41339 88.5973C3.18737 91.5082 3.55101 94.4674 4.23817 97.2972C5.20058 101.259 5.25708 104.833 5.01465 108.941C4.72393 113.825 4.21448 119.29 2.37079 123.867C1.24707 126.673 -0.127259 129.098 0.0094457 132.22C0.138859 135.099 0.858833 138.802 2.5485 141.187C3.72052 142.828 5.5077 144.033 6.91485 145.464C8.23268 146.814 9.45391 148.326 10.1575 150.089C10.2623 150.348 10.3516 150.615 10.4327 150.882C11.0388 152.96 11.0953 155.151 12.0823 157.132C13.586 160.172 16.044 161.312 19.0041 161.716C19.7478 161.821 20.516 161.878 21.3162 161.902C24.8979 162.023 26.1109 164.853 29.2323 165.734C30.5265 166.098 31.8361 166.05 33.1539 165.977C33.6798 165.953 34.2129 165.912 34.747 165.904C35.7741 165.872 36.8167 165.928 37.8602 166.244C43.1972 167.861 48.4685 168.313 53.1256 164.473C53.6268 164.061 54.0962 163.624 54.5163 163.171C58.3814 159.08 59.2226 153.501 58.8015 147.913C58.7286 146.992 58.6238 146.062 58.4944 145.14C58.1308 142.561 57.3142 140.103 57.152 137.507C57.1438 137.346 57.1356 137.176 57.1274 137.014C57.0381 133.538 58.6147 130.343 59.9407 127.19C60.1185 126.762 60.2962 126.341 60.4584 125.912C61.7762 122.492 62.1399 118.845 61.5256 115.304C61.2996 114.002 60.9433 112.717 60.4584 111.455C59.5935 109.223 58.9064 107.477 58.8653 105.666C58.8407 104.219 59.2208 102.731 60.2479 100.92C61.275 99.1172 62.108 97.4111 62.3258 95.3086C62.5199 93.4002 62.1317 91.4034 62.7304 89.5679C63.5069 87.1746 65.2203 85.1851 66.1025 82.8484C66.1107 82.832 66.1107 82.8238 66.1189 82.8083L63.1597 79.6304L58.365 74.4793L64.4939 68.3185L71.7721 61.0094Z" fill="#1E3135"/>
<path d="M10.231 150.284C10.2392 150.236 10.2474 150.179 10.2556 150.131V150.106C10.6193 147.939 10.3449 145.764 10.0861 143.662C10.0542 143.395 10.0132 143.128 9.98131 142.862C9.72248 140.654 9.37525 138.423 9.03531 136.263C8.53406 133.021 8.0082 129.665 7.76578 126.351C7.13512 117.586 10.0624 110.017 13.3688 102.401C15.2043 98.1885 16.781 94.2824 17.3952 89.2134C17.9211 85.0011 18.0505 81.0877 17.7917 77.2545C17.7598 76.6557 17.7024 76.0414 17.6541 75.4518L17.6377 75.3306C17.4354 73.0339 17.1446 70.6653 16.8612 68.3851C16.2059 63.0563 15.5352 57.5499 15.8505 52.2703C15.9553 50.6527 16.1412 49.076 16.4082 47.5805C16.4164 47.5404 16.4246 47.5076 16.4328 47.4675L16.1986 47.6698C15.9398 49.1334 15.7539 50.6782 15.6491 52.2548C15.3337 57.559 16.0045 63.0736 16.668 68.4106C16.9432 70.6908 17.2339 73.0522 17.4445 75.3479L17.4527 75.4691C17.5092 76.0916 17.5575 76.6739 17.5985 77.2727C17.8491 81.0895 17.7197 84.9865 17.202 89.1906C16.5796 94.2359 15.0184 98.1174 13.1911 102.322C9.86009 109.962 6.93279 117.555 7.57166 126.369C7.81408 129.692 8.33174 133.047 8.84119 136.298C9.17293 138.457 9.52015 140.689 9.78718 142.888C9.81908 143.155 9.85189 143.422 9.88379 143.688C10.1344 145.726 10.4014 147.829 10.0861 149.922V149.93L10.231 150.284ZM19.1013 161.733V161.725C19.3201 159.833 19.7803 157.917 20.225 156.057C20.5887 154.529 20.9368 153.082 21.1391 151.691C21.7051 147.947 21.1555 144.034 20.6297 140.25L20.5331 139.586C20.2424 137.508 19.8459 135.503 19.4659 133.562C18.4716 128.517 17.5338 123.754 18.3987 118.296C19.4659 111.585 21.4955 105.9 25.1829 99.2867C28.1667 93.9662 28.4419 86.5194 28.6433 81.0776C28.7399 78.5796 28.6834 75.984 28.4738 73.3639C28.1503 69.3858 27.4385 65.3101 26.3631 61.2591C23.0475 48.7907 27.5114 36.4035 38.0149 28.9321C38.0632 28.9002 38.1197 28.8592 38.168 28.8273L37.7633 28.8756C27.2845 36.4035 22.8452 48.8153 26.168 61.3074C27.2434 65.3502 27.9552 69.4094 28.2788 73.3793C28.4811 75.9913 28.5376 78.5787 28.4401 81.0767C28.2378 86.4939 27.9634 93.9087 25.0033 99.1892C21.3077 105.819 19.2708 111.528 18.2027 118.263C17.3214 123.761 18.2674 128.54 19.2617 133.594C19.65 135.534 20.0382 137.54 20.3371 139.618L20.4264 140.273C20.9523 144.049 21.4937 147.947 20.9441 151.658C20.7336 153.041 20.3946 154.488 20.03 156.016C19.5853 157.876 19.1241 159.792 18.9063 161.701L19.1013 161.733ZM34.8761 165.905C34.8597 165.88 34.836 165.865 34.8196 165.84C27.8331 158.086 25.8044 143.895 30.2993 134.201C30.9053 132.9 31.7064 131.67 32.482 130.482C33.2503 129.302 34.0422 128.089 34.641 126.803C36.1447 123.616 36.2906 119.502 36.1529 116.598C35.9989 113.614 35.2152 110.607 34.4633 107.696C33.5902 104.357 32.6925 100.896 32.7818 97.5241C32.903 93.2471 34.8278 89.3009 36.687 85.4923C37.5847 83.6486 38.5061 81.7484 39.2097 79.8482C40.2368 77.0667 40.7544 74.1239 40.7863 70.8567C40.851 66.6599 40.1074 62.5368 39.3309 58.1705C39.2179 57.5644 39.1121 56.9493 38.9991 56.335C37.633 48.5082 36.9376 39.606 42.2008 32.8865C43.0574 31.7865 44.5293 30.0886 46.0905 28.6332C46.1306 28.5931 46.1716 28.5521 46.2199 28.5202L46.147 28.5366L45.8398 28.5849C44.3197 30.0239 42.8888 31.6735 42.0394 32.7571C39.638 35.8293 38.2956 39.5495 37.9319 44.1419C37.5765 48.6212 38.2555 53.2628 38.805 56.3678C38.9098 56.9821 39.0237 57.5973 39.1285 58.2115C39.905 62.5615 40.6405 66.6772 40.584 70.8576C40.5521 74.1002 40.0426 77.0193 39.0155 79.7844C38.3202 81.6682 37.3988 83.5684 36.5011 85.4039C34.6337 89.2362 32.7007 93.1988 32.5795 97.5241C32.4902 100.92 33.3879 104.389 34.2692 107.752C35.021 110.647 35.7975 113.647 35.9506 116.614C36.0882 119.485 35.9424 123.576 34.4633 126.722C33.8645 127.991 33.0807 129.204 32.3125 130.368C31.536 131.564 30.7358 132.802 30.1215 134.12C27.9461 138.802 27.1942 144.655 28.0108 150.615C28.8356 156.639 31.1805 162.081 34.6246 165.913L34.8761 165.905ZM54.4358 163.254C50.6764 162.485 47.5869 160.124 45.4926 156.421C42.5981 151.303 42.0641 144.244 44.1347 138.438C44.7088 136.821 45.4853 135.228 46.229 133.692C47.2151 131.637 48.2422 129.519 48.8246 127.312C50.0294 122.768 48.6222 117.787 47.3773 113.396L47.1586 112.628C47.0292 112.183 46.908 111.739 46.7785 111.302C45.2748 106.03 43.9807 101.478 44.8464 95.7369C45.6548 90.3845 48.0891 86.6971 50.9107 82.4274C51.1531 82.0555 51.4037 81.6755 51.6543 81.2955C54.4276 77.0749 55.0583 72.7086 53.7085 67.1538C53.0861 64.623 52.1155 62.0438 51.1695 59.5531C49.601 55.389 47.9752 51.0956 47.8467 46.6809C47.6771 40.5201 49.7952 34.7302 54.1451 29.4744C54.9134 28.5603 55.7053 27.7437 56.5146 27.0565L56.8546 27.0483C56.8227 27.0729 56.7817 27.0966 56.7498 27.1294C55.9168 27.8248 55.092 28.6578 54.3082 29.6038C49.9902 34.8195 47.8886 40.5684 48.0499 46.6809C48.1711 51.0555 49.7961 55.3407 51.3654 59.481C52.3114 61.98 53.282 64.5592 53.9045 67.1055C55.2706 72.725 54.6327 77.1314 51.8184 81.4094C51.576 81.7894 51.3253 82.1613 51.0829 82.5331C48.2768 86.7864 45.8517 90.4574 45.0433 95.7698C44.1939 101.462 45.4798 105.998 46.9754 111.246C47.1048 111.682 47.226 112.127 47.3554 112.58L47.5742 113.34C48.8273 117.755 50.2426 122.76 49.0214 127.36C48.439 129.592 47.4046 131.719 46.4094 133.78C45.6658 135.308 44.9057 136.893 44.3315 138.502C42.2773 144.259 42.8032 151.253 45.674 156.314C47.7437 159.985 50.8086 162.322 54.5361 163.074C54.5607 163.082 54.5762 163.082 54.6008 163.082L54.4358 163.254ZM59.9824 127.093C56.9102 125.112 55.0984 121.814 55.2524 118.498C55.277 117.924 55.3089 117.358 55.3417 116.809C55.4957 114.116 55.6406 111.586 55.1157 108.82C54.9699 108.068 54.8168 107.308 54.6545 106.572C54.0075 103.492 53.3285 100.306 53.7168 97.0712C54.2262 92.7941 56.7817 89.0257 58.6573 86.5677C60.2986 84.4005 62.0129 82.0965 63.2341 79.7115C63.2423 79.7033 63.2423 79.6869 63.2505 79.6796C65.2637 75.7899 65.6766 72.273 64.593 68.2949C64.5848 68.2785 64.5848 68.2548 64.5766 68.2384C64.4955 67.9148 64.3906 67.5831 64.2776 67.2441C63.8812 66.0638 63.3964 64.8827 62.7329 63.533C62.0694 62.1905 61.3257 60.8645 60.5985 59.5786C60.1619 58.8021 59.709 57.9937 59.2724 57.1853C57.5746 54.0639 56.9111 49.6739 57.4852 45.4606C58.0266 41.4825 59.9915 37.6657 62.886 34.9818C63.8484 34.0841 64.9721 33.6229 65.9582 33.2028L65.9181 33.0005L65.9017 33.0087C64.891 33.4288 63.7509 33.9064 62.7484 34.8359C59.8211 37.5527 57.8325 41.4096 57.2902 45.4278C56.6997 49.6894 57.3795 54.1195 59.0938 57.2819C59.5303 58.0903 59.9833 58.8987 60.4198 59.6752C61.1471 60.9611 61.8917 62.2871 62.5543 63.6296C63.2095 64.9638 63.6944 66.1358 64.0826 67.3088C64.2038 67.6642 64.3086 68.0123 64.3979 68.3441C64.4061 68.3605 64.4061 68.3842 64.4143 68.4006C65.4579 72.3058 65.045 75.7425 63.0883 79.5511C63.0801 79.5593 63.0801 79.5757 63.0719 79.583C61.8507 81.9599 60.1446 84.2811 58.495 86.4392C56.603 88.9218 54.0321 92.7221 53.5226 97.0475C53.1262 100.314 53.8061 103.516 54.4604 106.621C54.6145 107.349 54.7758 108.109 54.9216 108.853C55.4392 111.595 55.2934 114.126 55.1403 116.793C55.1084 117.351 55.0756 117.917 55.051 118.483C54.8897 121.887 56.7489 125.251 59.8858 127.28C59.894 127.28 59.894 127.288 59.9022 127.288L59.9824 127.093Z" fill="#295154"/>
</svg>
